Amstelvar-Roman-opsz8-wght100-wdth125.ufo
<glyph name="exclam" format="2">
  <advance width="598"/>
  <unicode hex="0021"/>
  <outline>
    <contour>
      <point x="180" y="94" type="qcurve" smooth="yes"/>
      <point x="180" y="140"/>
      <point x="247" y="208"/>
      <point x="299.0" y="208" type="qcurve" smooth="yes"/>
      <point x="351" y="208"/>
      <point x="418" y="140"/>
      <point x="418" y="94" type="qcurve" smooth="yes"/>
      <point x="418" y="50"/>
      <point x="351" y="-18.0"/>
      <point x="299.0" y="-18.0" type="qcurve" smooth="yes"/>
      <point x="247" y="-18.0"/>
      <point x="180" y="50"/>
    </contour>
    <contour>
      <point x="208.0" y="1404.0" type="line" smooth="yes"/>
      <point x="201" y="1472"/>
      <point x="271.0" y="1540.0"/>
      <point x="302.0" y="1540.0" type="qcurve" smooth="yes"/>
      <point x="333.0" y="1540.0"/>
      <point x="401" y="1474"/>
      <point x="394.0" y="1405.0" type="qcurve" smooth="yes"/>
      <point x="365.0" y="1128.0" type="line"/>
      <point x="343.0" y="760.0" type="line"/>
      <point x="329.0" y="465.0" type="line"/>
      <point x="271.0" y="465.0" type="line"/>
      <point x="257.0" y="760.0" type="line"/>
      <point x="237.0" y="1128.0" type="line"/>
    </contour>
  </outline>
</glyph>
<glyph name="numbersign" format="2">
	<unicode hex="0023"/>
	<advance width="1678"/>
	<outline>
		<contour>
			<point x="86" y="390" type="line"/>
			<point x="86" y="511" type="line"/>
			<point x="1447" y="511" type="line"/>
			<point x="1447" y="390" type="line"/>
		</contour>
		<contour>
			<point x="195" y="944" type="line"/>
			<point x="195" y="1065" type="line"/>
			<point x="1592" y="1065" type="line"/>
			<point x="1592" y="944" type="line"/>
		</contour>
		<contour>
			<point x="148" y="-67" type="line"/>
			<point x="702" y="1536" type="line"/>
			<point x="793" y="1523" type="line"/>
			<point x="238" y="-80" type="line"/>
		</contour>
		<contour>
			<point x="879" y="-67" type="line"/>
			<point x="1435" y="1536" type="line"/>
			<point x="1524" y="1523" type="line"/>
			<point x="968" y="-80" type="line"/>
		</contour>
	</outline>
</glyph>
<glyph name="dollar" format="2">
	<unicode hex="0024"/>
	<advance width="1346"/>
	<outline>
		<contour>
			<point x="36" y="277" type="qcurve"/>
			<point x="120" y="381" type="line"/>
			<point x="199" y="276"/>
			<point x="503" y="127"/>
			<point x="692" y="127" type="qcurve" smooth="yes"/>
			<point x="915" y="127"/>
			<point x="1176" y="275"/>
			<point x="1176" y="415" type="qcurve" smooth="yes"/>
			<point x="1176" y="545"/>
			<point x="921" y="670"/>
			<point x="668" y="741" type="qcurve" smooth="yes"/>
			<point x="388" y="820"/>
			<point x="109" y="976"/>
			<point x="109" y="1146" type="qcurve" smooth="yes"/>
			<point x="109" y="1320"/>
			<point x="411" y="1501"/>
			<point x="653" y="1501" type="qcurve" smooth="yes"/>
			<point x="858" y="1501"/>
			<point x="1160" y="1408"/>
			<point x="1249" y="1343" type="qcurve"/>
			<point x="1193" y="1233" type="line"/>
			<point x="1131" y="1287"/>
			<point x="839" y="1392"/>
			<point x="655" y="1392" type="qcurve" smooth="yes"/>
			<point x="441" y="1392"/>
			<point x="223" y="1275"/>
			<point x="223" y="1155" type="qcurve" smooth="yes"/>
			<point x="223" y="1041"/>
			<point x="430" y="931"/>
			<point x="702" y="855" type="qcurve" smooth="yes"/>
			<point x="983" y="776"/>
			<point x="1300" y="589"/>
			<point x="1300" y="432" type="qcurve" smooth="yes"/>
			<point x="1300" y="242"/>
			<point x="986" y="16"/>
			<point x="698" y="16" type="qcurve" smooth="yes"/>
			<point x="489" y="16"/>
			<point x="134" y="159"/>
		</contour>
		<contour>
			<point x="639" y="-200" type="line"/>
			<point x="639" y="43" type="line"/>
			<point x="639" y="43" type="line"/>
			<point x="639" y="810" type="line"/>
			<point x="723" y="791" type="line"/>
			<point x="723" y="43" type="line"/>
			<point x="723" y="43" type="line"/>
			<point x="723" y="-172" type="line"/>
		</contour>
		<contour>
			<point x="639" y="1593" type="line"/>
			<point x="723" y="1613" type="line"/>
			<point x="723" y="1456" type="line"/>
			<point x="723" y="1456" type="line"/>
			<point x="723" y="791" type="line"/>
			<point x="639" y="810" type="line"/>
			<point x="639" y="1456" type="line"/>
			<point x="639" y="1456" type="line"/>
		</contour>
	</outline>
</glyph>
<glyph name="percent" format="2">
  <advance width="2429"/>
  <unicode hex="0025"/>
  <outline>
    <contour>
      <point x="144.0" y="1043.0" type="qcurve" smooth="yes"/>
      <point x="144.0" y="1243.0"/>
      <point x="397.0" y="1522.0"/>
      <point x="595.0" y="1522.0" type="qcurve" smooth="yes"/>
      <point x="793.0" y="1522.0"/>
      <point x="1049.0" y="1249.0"/>
      <point x="1049.0" y="1045.0" type="qcurve" smooth="yes"/>
      <point x="1049.0" y="846.0"/>
      <point x="787.0" y="561.0"/>
      <point x="590.0" y="561.0" type="qcurve" smooth="yes"/>
      <point x="391.0" y="561.0"/>
      <point x="144.0" y="839.0"/>
    </contour>
    <contour>
      <point x="264" y="1048" type="qcurve" smooth="yes"/>
      <point x="264" y="884"/>
      <point x="443" y="664"/>
      <point x="594" y="664" type="qcurve" smooth="yes"/>
      <point x="749" y="664"/>
      <point x="932" y="879"/>
      <point x="932" y="1045" type="qcurve" smooth="yes"/>
      <point x="932" y="1204"/>
      <point x="732" y="1418"/>
      <point x="595" y="1418" type="qcurve" smooth="yes"/>
      <point x="456" y="1418"/>
      <point x="262" y="1209"/>
    </contour>
    <contour>
      <point x="541.0" y="11.0" type="line"/>
      <point x="1808.0" y="1540.0" type="line"/>
      <point x="1886.0" y="1469.0" type="line"/>
      <point x="619.0" y="-63.0" type="line"/>
    </contour>
    <contour>
      <point x="1381.0" y="481.0" type="qcurve" smooth="yes"/>
      <point x="1381.0" y="680.0"/>
      <point x="1633.0" y="939.0"/>
      <point x="1831.0" y="939.0" type="qcurve" smooth="yes"/>
      <point x="2029.0" y="939.0"/>
      <point x="2285.0" y="686.0"/>
      <point x="2285.0" y="483.0" type="qcurve" smooth="yes"/>
      <point x="2285.0" y="244.0"/>
      <point x="2025.0" y="-22.0"/>
      <point x="1827.0" y="-22.0" type="qcurve" smooth="yes"/>
      <point x="1628.0" y="-22.0"/>
      <point x="1381.0" y="237.0"/>
    </contour>
    <contour>
      <point x="1500" y="482" type="qcurve" smooth="yes"/>
      <point x="1500" y="281"/>
      <point x="1680" y="79.0"/>
      <point x="1830" y="79.0" type="qcurve" smooth="yes"/>
      <point x="1986" y="79.0"/>
      <point x="2168" y="277"/>
      <point x="2168" y="479" type="qcurve" smooth="yes"/>
      <point x="2168" y="640"/>
      <point x="1968" y="837"/>
      <point x="1831" y="837" type="qcurve" smooth="yes"/>
      <point x="1692" y="837"/>
      <point x="1497" y="643"/>
    </contour>
  </outline>
</glyph>
<glyph name="ampersand" format="2">
	<unicode hex="0026"/>
	<advance width="1996"/>
	<outline>
		<contour>
			<point x="679" y="-27" type="qcurve" smooth="yes"/>
			<point x="400" y="-27"/>
			<point x="102" y="181"/>
			<point x="102" y="367" type="qcurve" smooth="yes"/>
			<point x="102" y="552"/>
			<point x="404" y="789"/>
			<point x="572" y="821" type="qcurve"/>
			<point x="838" y="903"/>
			<point x="1027" y="1072"/>
			<point x="1027" y="1181" type="qcurve" smooth="yes"/>
			<point x="1027" y="1288"/>
			<point x="861" y="1433"/>
			<point x="728" y="1433" type="qcurve" smooth="yes"/>
			<point x="582" y="1433"/>
			<point x="439" y="1306"/>
			<point x="439" y="1191" type="qcurve" smooth="yes"/>
			<point x="439" y="1081"/>
			<point x="576" y="925"/>
			<point x="721" y="846" type="qcurve"/>
			<point x="1296" y="239" type="line" smooth="yes"/>
			<point x="1390" y="140"/>
			<point x="1525" y="84"/>
			<point x="1618" y="84" type="qcurve" smooth="yes"/>
			<point x="1704" y="84"/>
			<point x="1818" y="132"/>
			<point x="1854" y="164" type="qcurve"/>
			<point x="1913" y="90" type="line"/>
			<point x="1875" y="59"/>
			<point x="1717" y="-17"/>
			<point x="1623" y="-28" type="qcurve" smooth="yes"/>
			<point x="1527" y="-39"/>
			<point x="1331" y="47"/>
			<point x="1283" y="97" type="qcurve" smooth="yes"/>
			<point x="590" y="821" type="line"/>
			<point x="454" y="885"/>
			<point x="316" y="1071"/>
			<point x="314" y="1186" type="qcurve" smooth="yes"/>
			<point x="312" y="1325"/>
			<point x="532" y="1522"/>
			<point x="722" y="1521" type="qcurve" smooth="yes"/>
			<point x="925" y="1520"/>
			<point x="1149" y="1347"/>
			<point x="1149" y="1209" type="qcurve" smooth="yes"/>
			<point x="1149" y="1053"/>
			<point x="933" y="856"/>
			<point x="711" y="786" type="qcurve" smooth="yes"/>
			<point x="484" y="714"/>
			<point x="241" y="526"/>
			<point x="239" y="391" type="qcurve" smooth="yes"/>
			<point x="238" y="246"/>
			<point x="441" y="79"/>
			<point x="683" y="79" type="qcurve" smooth="yes"/>
			<point x="1017" y="79"/>
			<point x="1601" y="606"/>
			<point x="1752" y="854" type="qcurve"/>
			<point x="1865" y="850" type="line"/>
			<point x="1671" y="539"/>
			<point x="1078" y="-27"/>
		</contour>
		<contour>
			<point x="1280" y="858" type="line"/>
			<point x="1318" y="914"/>
			<point x="1452" y="978"/>
			<point x="1520" y="978" type="qcurve" smooth="yes"/>
			<point x="1585" y="978"/>
			<point x="1689" y="923"/>
			<point x="1756" y="923" type="qcurve" smooth="yes"/>
			<point x="1798" y="923"/>
			<point x="1868" y="940"/>
			<point x="1904" y="977" type="qcurve"/>
			<point x="1964" y="889" type="line"/>
			<point x="1917" y="827"/>
			<point x="1802" y="774"/>
			<point x="1744" y="774" type="qcurve" smooth="yes"/>
			<point x="1693" y="774"/>
			<point x="1558" y="846"/>
			<point x="1501" y="846" type="qcurve" smooth="yes"/>
			<point x="1443" y="846"/>
			<point x="1360" y="810"/>
			<point x="1326" y="788" type="qcurve"/>
		</contour>
	</outline>
</glyph>
<glyph name="quotesingle" format="2">
	<unicode hex="0027"/>
	<advance width="576"/>
	<outline>
		<contour>
			<point x="265" y="943" type="line"/>
			<point x="217" y="1429" type="line"/>
			<point x="216" y="1486"/>
			<point x="246" y="1558"/>
			<point x="288" y="1558" type="qcurve" smooth="yes"/>
			<point x="329" y="1558"/>
			<point x="359" y="1486"/>
			<point x="358" y="1429" type="qcurve"/>
			<point x="308" y="943" type="line"/>
		</contour>
	</outline>
</glyph>
<glyph name="parenright" format="2">
  <advance width="804"/>
  <unicode hex="0029"/>
  <outline>
    <contour>
      <point x="732.0" y="526.0" type="qcurve" smooth="yes"/>
      <point x="732.0" y="169.0"/>
      <point x="325.0" y="-313.0"/>
      <point x="69.0" y="-460.0" type="qcurve"/>
      <point x="6.0" y="-378.0" type="line"/>
      <point x="190.0" y="-276.0"/>
      <point x="600.0" y="169.0"/>
      <point x="600.0" y="526.0" type="qcurve" smooth="yes"/>
      <point x="600.0" y="883.0"/>
      <point x="223.0" y="1321.0"/>
      <point x="6.0" y="1432.0" type="qcurve"/>
      <point x="71.0" y="1512.0" type="line"/>
      <point x="322.0" y="1375.0"/>
      <point x="732.0" y="883.0"/>
    </contour>
  </outline>
</glyph>
<glyph name="plus" format="2">
  <advance width="1237"/>
  <unicode hex="002B"/>
  <outline>
    <contour>
      <point x="114.0" y="618.0" type="line"/>
      <point x="114.0" y="724.0" type="line"/>
      <point x="1124.0" y="724.0" type="line"/>
      <point x="1124.0" y="618.0" type="line"/>
    </contour>
    <contour>
      <point x="567.0" y="174.0" type="line"/>
      <point x="567.0" y="1168.0" type="line"/>
      <point x="672.0" y="1168.0" type="line"/>
      <point x="672.0" y="174.0" type="line"/>
    </contour>
  </outline>
</glyph>
<glyph name="comma" format="2">
  <advance width="590"/>
  <unicode hex="002C"/>
  <outline>
    <contour>
      <point x="166.0" y="-184.0" type="line"/>
      <point x="215.0" y="-147.0"/>
      <point x="282.0" y="-62.0"/>
      <point x="300.0" y="-6.0" type="qcurve"/>
      <point x="246" y="-3.0"/>
      <point x="181.0" y="43"/>
      <point x="181.0" y="91.0" type="qcurve" smooth="yes"/>
      <point x="181" y="145"/>
      <point x="241" y="214"/>
      <point x="294.0" y="214.0" type="qcurve" smooth="yes"/>
      <point x="347.0" y="214.0"/>
      <point x="417" y="140"/>
      <point x="417.0" y="82.0" type="qcurve" smooth="yes"/>
      <point x="417.0" y="2"/>
      <point x="289.0" y="-185.0"/>
      <point x="212.0" y="-235.0" type="qcurve"/>
    </contour>
  </outline>
</glyph>
<glyph name="hyphen" format="2">
	<unicode hex="002D"/>
	<advance width="1173"/>
	<outline>
		<contour>
			<point x="127" y="605" type="line"/>
			<point x="127" y="739" type="line"/>
			<point x="587" y="735" type="line"/>
			<point x="1047" y="739" type="line"/>
			<point x="1047" y="605" type="line"/>
			<point x="587" y="609" type="line"/>
		</contour>
	</outline>
</glyph>
<glyph name="period" format="2">
  <advance width="590"/>
  <unicode hex="002E"/>
  <outline>
    <contour>
      <point x="175" y="99" type="qcurve" smooth="yes"/>
      <point x="175" y="145"/>
      <point x="243" y="214"/>
      <point x="295.0" y="214" type="qcurve" smooth="yes"/>
      <point x="348" y="214"/>
      <point x="415" y="145"/>
      <point x="415" y="99" type="qcurve" smooth="yes"/>
      <point x="415" y="51"/>
      <point x="348" y="-18.0"/>
      <point x="295.0" y="-18.0" type="qcurve" smooth="yes"/>
      <point x="243" y="-18.0"/>
      <point x="175" y="51"/>
    </contour>
  </outline>
</glyph>
<glyph name="slash" format="2">
  <advance width="823"/>
  <unicode hex="002F"/>
  <outline>
    <contour>
      <point x="-70" y="-131" type="line"/>
      <point x="784" y="1555" type="line"/>
      <point x="870" y="1501" type="line"/>
      <point x="16" y="-186" type="line"/>
    </contour>
  </outline>
</glyph>
<glyph name="two" format="2">
	<unicode hex="0032"/>
	<advance width="1322"/>
	<outline>
		<contour>
			<point x="78" y="0" type="line"/>
			<point x="78" y="87" type="line"/>
			<point x="90" y="233"/>
			<point x="331" y="532"/>
			<point x="637" y="699" type="qcurve" smooth="yes"/>
			<point x="883" y="833"/>
			<point x="1078" y="988"/>
			<point x="1078" y="1130" type="qcurve" smooth="yes"/>
			<point x="1078" y="1268"/>
			<point x="862" y="1401"/>
			<point x="679" y="1401" type="qcurve" smooth="yes"/>
			<point x="519" y="1401"/>
			<point x="270" y="1299"/>
			<point x="196" y="1231" type="qcurve"/>
			<point x="137" y="1334" type="line"/>
			<point x="219" y="1406"/>
			<point x="488" y="1520"/>
			<point x="689" y="1520" type="qcurve" smooth="yes"/>
			<point x="917" y="1520"/>
			<point x="1207" y="1312"/>
			<point x="1207" y="1141" type="qcurve" smooth="yes"/>
			<point x="1207" y="977"/>
			<point x="969" y="751"/>
			<point x="699" y="605" type="qcurve" smooth="yes"/>
			<point x="459" y="475"/>
			<point x="218" y="251"/>
			<point x="199" y="122" type="qcurve"/>
			<point x="204" y="112" type="line"/>
			<point x="1238" y="112" type="line"/>
			<point x="1238" y="0" type="line"/>
		</contour>
	</outline>
</glyph>
<glyph name="five" format="2">
	<unicode hex="0035"/>
	<advance width="1312"/>
	<outline>
		<contour>
			<point x="46" y="137" type="qcurve"/>
			<point x="115" y="250" type="line"/>
			<point x="186" y="188"/>
			<point x="424" y="82"/>
			<point x="617" y="82" type="qcurve" smooth="yes"/>
			<point x="844" y="82"/>
			<point x="1116" y="308"/>
			<point x="1116" y="493" type="qcurve" smooth="yes"/>
			<point x="1116" y="669"/>
			<point x="802" y="869"/>
			<point x="477" y="849" type="qcurve" smooth="yes"/>
			<point x="211" y="833" type="line"/>
			<point x="148" y="889" type="line"/>
			<point x="190" y="1475" type="line"/>
			<point x="220" y="1500" type="line"/>
			<point x="1153" y="1500" type="line"/>
			<point x="1144" y="1390" type="line"/>
			<point x="301" y="1390" type="line"/>
			<point x="288" y="1379" type="line"/>
			<point x="259" y="922" type="line"/>
			<point x="387" y="934" type="line"/>
			<point x="822" y="1002"/>
			<point x="1245" y="751"/>
			<point x="1245" y="504" type="qcurve" smooth="yes"/>
			<point x="1245" y="257"/>
			<point x="892" y="-31"/>
			<point x="627" y="-31" type="qcurve" smooth="yes"/>
			<point x="399" y="-31"/>
			<point x="126" y="75"/>
		</contour>
	</outline>
</glyph>
<glyph name="eight" format="2">
  <advance width="1304"/>
  <unicode hex="0038"/>
  <outline>
    <contour>
      <point x="64.0" y="367" type="qcurve" smooth="yes"/>
      <point x="64" y="530"/>
      <point x="300" y="745"/>
      <point x="552" y="819" type="qcurve"/>
      <point x="660" y="777" type="line"/>
      <point x="396" y="698"/>
      <point x="183" y="503"/>
      <point x="183" y="382" type="qcurve" smooth="yes"/>
      <point x="183" y="261.0"/>
      <point x="413" y="78.0"/>
      <point x="645" y="77" type="qcurve" smooth="yes"/>
      <point x="872" y="76"/>
      <point x="1116" y="241"/>
      <point x="1119" y="387" type="qcurve" smooth="yes"/>
      <point x="1121" y="526"/>
      <point x="854" y="685"/>
      <point x="601" y="766" type="qcurve" smooth="yes"/>
      <point x="355" y="845"/>
      <point x="149" y="1017"/>
      <point x="149.0" y="1151" type="qcurve" smooth="yes"/>
      <point x="149" y="1301.0"/>
      <point x="391" y="1520.0"/>
      <point x="629" y="1520" type="qcurve" smooth="yes"/>
      <point x="867" y="1520"/>
      <point x="1132" y="1317"/>
      <point x="1132" y="1172" type="qcurve" smooth="yes"/>
      <point x="1132" y="1031"/>
      <point x="939" y="852"/>
      <point x="708" y="785" type="qcurve"/>
      <point x="597" y="833" type="line"/>
      <point x="840" y="901"/>
      <point x="1013" y="1057"/>
      <point x="1014" y="1165" type="qcurve" smooth="yes"/>
      <point x="1015" y="1271"/>
      <point x="830" y="1407"/>
      <point x="634" y="1407" type="qcurve" smooth="yes"/>
      <point x="438.0" y="1407.0"/>
      <point x="267" y="1273"/>
      <point x="267.0" y="1164" type="qcurve" smooth="yes"/>
      <point x="267" y="1060"/>
      <point x="440" y="923"/>
      <point x="697" y="843" type="qcurve" smooth="yes"/>
      <point x="954" y="763"/>
      <point x="1240" y="573"/>
      <point x="1240.0" y="395" type="qcurve" smooth="yes"/>
      <point x="1240.0" y="208.0"/>
      <point x="932" y="-32"/>
      <point x="657" y="-32" type="qcurve" smooth="yes"/>
      <point x="377.0" y="-32"/>
      <point x="64" y="197.0"/>
    </contour>
  </outline>
</glyph>
<glyph name="nine" format="2">
  <advance width="1420"/>
  <unicode hex="0039"/>
  <outline>
    <contour>
      <point x="50.0" y="989.0" type="qcurve" smooth="yes"/>
      <point x="50.0" y="1248.0"/>
      <point x="402.0" y="1526.0"/>
      <point x="667.0" y="1526.0" type="qcurve" smooth="yes"/>
      <point x="945.0" y="1526.0"/>
      <point x="1339.0" y="1184.0"/>
      <point x="1339.0" y="850.0" type="qcurve" smooth="yes"/>
      <point x="1339.0" y="504.0"/>
      <point x="811.0" y="-9.0"/>
      <point x="437.0" y="-72.0" type="qcurve"/>
      <point x="404.0" y="39.0" type="line"/>
      <point x="739.0" y="88.0"/>
      <point x="1211.0" y="534.0"/>
      <point x="1211.0" y="829.0" type="qcurve" smooth="yes"/>
      <point x="1211.0" y="1116.0"/>
      <point x="897.0" y="1408.0"/>
      <point x="673.0" y="1408.0" type="qcurve" smooth="yes"/>
      <point x="453.0" y="1408.0"/>
      <point x="177.0" y="1204.0"/>
      <point x="177.0" y="994.0" type="qcurve" smooth="yes"/>
      <point x="177.0" y="823.0"/>
      <point x="378.0" y="633.0"/>
      <point x="517.0" y="633.0" type="qcurve" smooth="yes"/>
      <point x="649.0" y="633.0"/>
      <point x="827.0" y="710.0"/>
      <point x="859.0" y="737.0" type="qcurve"/>
      <point x="908.0" y="642.0" type="line"/>
      <point x="871.0" y="602.0"/>
      <point x="675" y="515"/>
      <point x="512.0" y="515.0" type="qcurve" smooth="yes"/>
      <point x="324.0" y="515.0"/>
      <point x="50.0" y="754.0"/>
    </contour>
  </outline>
</glyph>
<glyph name="colon" format="2">
	<unicode hex="003A"/>
	<advance width="610"/>
	<outline>
		<contour>
			<point x="192" y="92" type="qcurve" smooth="yes"/>
			<point x="192" y="133"/>
			<point x="256" y="198"/>
			<point x="305" y="198" type="qcurve" smooth="yes"/>
			<point x="356" y="198"/>
			<point x="418" y="133"/>
			<point x="418" y="92" type="qcurve" smooth="yes"/>
			<point x="418" y="50"/>
			<point x="357" y="-18"/>
			<point x="305" y="-18" type="qcurve" smooth="yes"/>
			<point x="254" y="-18"/>
			<point x="192" y="50"/>
		</contour>
		<contour>
			<point x="192" y="909" type="qcurve" smooth="yes"/>
			<point x="192" y="950"/>
			<point x="254" y="1017"/>
			<point x="305" y="1017" type="qcurve" smooth="yes"/>
			<point x="355" y="1017"/>
			<point x="418" y="950"/>
			<point x="418" y="909" type="qcurve" smooth="yes"/>
			<point x="418" y="868"/>
			<point x="354" y="802"/>
			<point x="305" y="802" type="qcurve" smooth="yes"/>
			<point x="256" y="802"/>
			<point x="192" y="868"/>
		</contour>
	</outline>
</glyph>
<glyph name="semicolon" format="2">
  <advance width="610"/>
  <unicode hex="003B"/>
  <outline>
    <contour>
      <point x="171.0" y="-184.0" type="line"/>
      <point x="220.0" y="-147.0"/>
      <point x="287.0" y="-62.0"/>
      <point x="305.0" y="-6.0" type="qcurve"/>
      <point x="251" y="-3.0"/>
      <point x="188.0" y="43"/>
      <point x="188.0" y="91.0" type="qcurve" smooth="yes"/>
      <point x="188" y="145"/>
      <point x="246" y="209"/>
      <point x="299.0" y="209.0" type="qcurve" smooth="yes"/>
      <point x="352.0" y="209.0"/>
      <point x="417" y="140"/>
      <point x="417.0" y="82.0" type="qcurve" smooth="yes"/>
      <point x="417.0" y="2"/>
      <point x="294.0" y="-185.0"/>
      <point x="217.0" y="-235.0" type="qcurve"/>
    </contour>
    <contour>
      <point x="197" y="909" type="qcurve" smooth="yes"/>
      <point x="197" y="950"/>
      <point x="259" y="1017.0"/>
      <point x="310.0" y="1017.0" type="qcurve" smooth="yes"/>
      <point x="360" y="1017.0"/>
      <point x="422" y="950"/>
      <point x="422" y="909" type="qcurve" smooth="yes"/>
      <point x="422" y="868"/>
      <point x="359" y="802"/>
      <point x="310.0" y="802" type="qcurve" smooth="yes"/>
      <point x="261" y="802"/>
      <point x="197" y="868"/>
    </contour>
  </outline>
</glyph>
<glyph name="less" format="2">
  <advance width="1200"/>
  <unicode hex="003C"/>
  <outline>
    <contour>
      <point x="160.0" y="634.0" type="qcurve"/>
      <point x="160.0" y="655"/>
      <point x="817" y="1009"/>
      <point x="908.0" y="1056.0" type="qcurve" smooth="yes"/>
      <point x="948" y="1077"/>
      <point x="991" y="992"/>
      <point x="951.0" y="968.0" type="qcurve" smooth="yes"/>
      <point x="795.0" y="875.0"/>
      <point x="451.0" y="672.0"/>
      <point x="375.0" y="630.0" type="qcurve"/>
      <point x="450.0" y="590.0"/>
      <point x="797.0" y="395.0"/>
      <point x="959.0" y="304.0" type="qcurve" smooth="yes"/>
      <point x="999" y="282"/>
      <point x="962" y="179"/>
      <point x="907" y="209" type="qcurve" smooth="yes"/>
      <point x="839" y="246"/>
      <point x="160.0" y="606"/>
    </contour>
  </outline>
</glyph>
<glyph name="greater" format="2">
  <advance width="1200"/>
  <unicode hex="003E"/>
  <outline>
    <contour>
      <point x="250.0" y="295.0" type="qcurve" smooth="yes"/>
      <point x="409.0" y="385.0"/>
      <point x="742.0" y="599.0"/>
      <point x="836.0" y="648.0" type="qcurve"/>
      <point x="752.0" y="688.0"/>
      <point x="403.0" y="874.0"/>
      <point x="242.0" y="969.0" type="qcurve" smooth="yes"/>
      <point x="200.0" y="986.0"/>
      <point x="218.0" y="1096.0"/>
      <point x="260.0" y="1079.0" type="qcurve" smooth="yes"/>
      <point x="357.0" y="1018.0"/>
      <point x="1041.0" y="639.0"/>
      <point x="1041.0" y="639.0" type="qcurve"/>
      <point x="1040.0" y="639.0"/>
      <point x="354.0" y="256.0"/>
      <point x="261.0" y="196.0" type="qcurve" smooth="yes"/>
      <point x="221.0" y="177.0"/>
      <point x="207.0" y="279.0"/>
    </contour>
  </outline>
</glyph>
<glyph name="question" format="2">
	<unicode hex="003F"/>
	<advance width="1242"/>
	<outline>
		<contour>
			<point x="322" y="94" type="qcurve" smooth="yes"/>
			<point x="322" y="140"/>
			<point x="386" y="208"/>
			<point x="438" y="208" type="qcurve" smooth="yes"/>
			<point x="489" y="208"/>
			<point x="552" y="140"/>
			<point x="552" y="94" type="qcurve" smooth="yes"/>
			<point x="552" y="50"/>
			<point x="489" y="-18"/>
			<point x="438" y="-18" type="qcurve" smooth="yes"/>
			<point x="386" y="-18"/>
			<point x="322" y="50"/>
		</contour>
		<contour>
			<point x="42" y="1180" type="qcurve" smooth="yes"/>
			<point x="42" y="1356"/>
			<point x="378" y="1521"/>
			<point x="619" y="1521" type="qcurve" smooth="yes"/>
			<point x="881" y="1521"/>
			<point x="1230" y="1352"/>
			<point x="1230" y="1189" type="qcurve" smooth="yes"/>
			<point x="1230" y="1048"/>
			<point x="1055" y="866"/>
			<point x="854" y="780" type="qcurve" smooth="yes"/>
			<point x="677" y="704"/>
			<point x="496" y="563"/>
			<point x="496" y="452" type="qcurve" smooth="yes"/>
			<point x="496" y="395" type="line"/>
			<point x="401" y="395" type="line"/>
			<point x="401" y="475" type="line" smooth="yes"/>
			<point x="401" y="619"/>
			<point x="588" y="788"/>
			<point x="770" y="868" type="qcurve" smooth="yes"/>
			<point x="937" y="941"/>
			<point x="1100" y="1078"/>
			<point x="1100" y="1189" type="qcurve" smooth="yes"/>
			<point x="1100" y="1295"/>
			<point x="842" y="1408"/>
			<point x="621" y="1408" type="qcurve" smooth="yes"/>
			<point x="405" y="1408"/>
			<point x="160" y="1327"/>
			<point x="159" y="1269" type="qcurve" smooth="yes"/>
			<point x="159" y="1243"/>
			<point x="268" y="1163"/>
			<point x="268" y="1120" type="qcurve" smooth="yes"/>
			<point x="267" y="1084"/>
			<point x="210" y="1028"/>
			<point x="165" y="1028" type="qcurve" smooth="yes"/>
			<point x="104" y="1028"/>
			<point x="42" y="1106"/>
		</contour>
	</outline>
</glyph>
<glyph name="at" format="2">
	<unicode hex="0040"/>
	<advance width="2173"/>
	<outline>
		<contour>
			<point x="110" y="725" type="qcurve" smooth="yes"/>
			<point x="110" y="1068"/>
			<point x="648" y="1531"/>
			<point x="1114" y="1531" type="qcurve" smooth="yes"/>
			<point x="1580" y="1531"/>
			<point x="2102" y="1133"/>
			<point x="2102" y="844" type="qcurve" smooth="yes"/>
			<point x="2102" y="603"/>
			<point x="1771" y="349"/>
			<point x="1591" y="349" type="qcurve" smooth="yes"/>
			<point x="1457" y="349"/>
			<point x="1340" y="437"/>
			<point x="1325" y="511" type="qcurve"/>
			<point x="1281" y="457"/>
			<point x="1101" y="347"/>
			<point x="974" y="347" type="qcurve" smooth="yes"/>
			<point x="854" y="347"/>
			<point x="718" y="471"/>
			<point x="718" y="577" type="qcurve" smooth="yes"/>
			<point x="718" y="692"/>
			<point x="1028" y="869"/>
			<point x="1335" y="876" type="qcurve"/>
			<point x="1343" y="785" type="line"/>
			<point x="1101" y="779"/>
			<point x="854" y="677"/>
			<point x="854" y="580" type="qcurve" smooth="yes"/>
			<point x="854" y="507"/>
			<point x="953" y="438"/>
			<point x="1029" y="438" type="qcurve" smooth="yes"/>
			<point x="1106" y="438"/>
			<point x="1263" y="556"/>
			<point x="1298" y="607" type="qcurve"/>
			<point x="1300" y="874" type="line" smooth="yes"/>
			<point x="1301" y="1031"/>
			<point x="1177" y="1132"/>
			<point x="1097" y="1132" type="qcurve" smooth="yes"/>
			<point x="1024" y="1132"/>
			<point x="912" y="1091"/>
			<point x="886" y="1056" type="qcurve"/>
			<point x="905" y="1037"/>
			<point x="928" y="997"/>
			<point x="930" y="980" type="qcurve" smooth="yes"/>
			<point x="937" y="944"/>
			<point x="896" y="895"/>
			<point x="857" y="895" type="qcurve" smooth="yes"/>
			<point x="817" y="895"/>
			<point x="768" y="964"/>
			<point x="768" y="1022" type="qcurve" smooth="yes"/>
			<point x="768" y="1104"/>
			<point x="970" y="1223"/>
			<point x="1098" y="1223" type="qcurve" smooth="yes"/>
			<point x="1250" y="1223"/>
			<point x="1407" y="1052"/>
			<point x="1410" y="864" type="qcurve" smooth="yes"/>
			<point x="1415" y="586" type="line" smooth="yes"/>
			<point x="1416" y="534"/>
			<point x="1484" y="440"/>
			<point x="1582" y="440" type="qcurve" smooth="yes"/>
			<point x="1720" y="440"/>
			<point x="2000" y="634"/>
			<point x="2000" y="845" type="qcurve" smooth="yes"/>
			<point x="2000" y="1088"/>
			<point x="1532" y="1432"/>
			<point x="1113" y="1432" type="qcurve" smooth="yes"/>
			<point x="694" y="1432"/>
			<point x="225" y="1037"/>
			<point x="225" y="739" type="qcurve" smooth="yes"/>
			<point x="225" y="441"/>
			<point x="735" y="57"/>
			<point x="1092" y="57" type="qcurve" smooth="yes"/>
			<point x="1345" y="57"/>
			<point x="1690" y="154"/>
			<point x="1814" y="225" type="qcurve"/>
			<point x="1863" y="139" type="line"/>
			<point x="1692" y="47"/>
			<point x="1377" y="-40"/>
			<point x="1092" y="-40" type="qcurve" smooth="yes"/>
			<point x="671" y="-40"/>
			<point x="110" y="382"/>
		</contour>
	</outline>
</glyph>
<glyph name="A" format="2">
  <advance width="2103"/>
  <unicode hex="0041"/>
  <outline>
    <contour>
      <point x="-24" y="0" type="line"/>
      <point x="-22" y="98" type="line"/>
      <point x="219" y="133" type="line"/>
      <point x="491" y="622" type="line"/>
      <point x="985" y="1508" type="line"/>
      <point x="1138" y="1508" type="line"/>
      <point x="1573" y="668" type="line"/>
      <point x="1852" y="130" type="line"/>
      <point x="2107" y="98" type="line"/>
      <point x="2105" y="0" type="line"/>
      <point x="1472" y="0" type="line"/>
      <point x="1475" y="98" type="line"/>
      <point x="1709" y="135" type="line"/>
      <point x="1466" y="605" type="line"/>
      <point x="1051" y="1407" type="line"/>
      <point x="594" y="581" type="line"/>
      <point x="348" y="138" type="line"/>
      <point x="603" y="98" type="line"/>
      <point x="601" y="0" type="line"/>
    </contour>
    <contour>
      <point x="1061.0" y="643.0" type="line"/>
      <point x="1509.0" y="646.0" type="line"/>
      <point x="1563.0" y="544.0" type="line"/>
      <point x="1059.0" y="546.0" type="line"/>
    </contour>
    <contour>
      <point x="511.0" y="542.0" type="line"/>
      <point x="567.0" y="645.0" type="line"/>
      <point x="1061.0" y="643.0" type="line"/>
      <point x="1059.0" y="546.0" type="line"/>
    </contour>
  </outline>
</glyph>
<glyph name="B" format="2">
  <advance width="2016"/>
  <unicode hex="0042"/>
  <anchor x="1008.0" y="0" name="bottom"/>
  <anchor x="1008.0" y="1500" name="top"/>
  <outline>
    <contour>
      <point x="136" y="0" type="line"/>
      <point x="136" y="98" type="line"/>
      <point x="404" y="132" type="line"/>
      <point x="407" y="760" type="line"/>
      <point x="405" y="1369" type="line"/>
      <point x="136" y="1403" type="line"/>
      <point x="136" y="1500" type="line"/>
      <point x="1244" y="1500" type="line" smooth="yes"/>
      <point x="1530" y="1500"/>
      <point x="1765" y="1321"/>
      <point x="1765" y="1171" type="qcurve" smooth="yes"/>
      <point x="1765" y="1027"/>
      <point x="1604" y="849"/>
      <point x="1485" y="831" type="qcurve"/>
      <point x="1485" y="826" type="line"/>
      <point x="1665" y="813"/>
      <point x="1903" y="619"/>
      <point x="1903" y="442" type="qcurve" smooth="yes"/>
      <point x="1903" y="236"/>
      <point x="1597" y="0"/>
      <point x="1286" y="0" type="qcurve" smooth="yes"/>
    </contour>
    <contour>
      <point x="527" y="127" type="line"/>
      <point x="550" y="109" type="line"/>
      <point x="1259" y="109" type="line" smooth="yes"/>
      <point x="1521" y="109"/>
      <point x="1770" y="275"/>
      <point x="1770" y="439" type="qcurve" smooth="yes"/>
      <point x="1770" y="586"/>
      <point x="1538" y="754"/>
      <point x="1316" y="754" type="qcurve" smooth="yes"/>
      <point x="523" y="754" type="line"/>
      <point x="523" y="744" type="line"/>
    </contour>
    <contour>
      <point x="525" y="873" type="line"/>
      <point x="526" y="854" type="line"/>
      <point x="1252" y="854" type="line" smooth="yes"/>
      <point x="1430" y="854"/>
      <point x="1632" y="1013"/>
      <point x="1632" y="1149" type="qcurve" smooth="yes"/>
      <point x="1632" y="1267"/>
      <point x="1442" y="1391"/>
      <point x="1234" y="1391" type="qcurve" smooth="yes"/>
      <point x="550" y="1391" type="line"/>
      <point x="528" y="1370" type="line"/>
    </contour>
  </outline>
</glyph>
<glyph name="C" format="2">
  <advance width="1894"/>
  <unicode hex="0043"/>
  <outline>
    <contour>
      <point x="102.0" y="718.0" type="qcurve" smooth="yes"/>
      <point x="102" y="1079"/>
      <point x="646" y="1519"/>
      <point x="1127" y="1519.0" type="qcurve" smooth="yes"/>
      <point x="1322" y="1519.0"/>
      <point x="1666.0" y="1449.0"/>
      <point x="1762.0" y="1398.0" type="qcurve"/>
      <point x="1804.0" y="1501.0" type="line"/>
      <point x="1884.0" y="1501.0" type="line"/>
      <point x="1884.0" y="1031.0" type="line"/>
      <point x="1780.0" y="1031.0" type="line"/>
      <point x="1759.0" y="1159.0" type="line" smooth="yes"/>
      <point x="1737" y="1290"/>
      <point x="1446" y="1406"/>
      <point x="1102" y="1406.0" type="qcurve" smooth="yes"/>
      <point x="710" y="1406.0"/>
      <point x="241" y="1052"/>
      <point x="241" y="727" type="qcurve" smooth="yes"/>
      <point x="241" y="421"/>
      <point x="710" y="82"/>
      <point x="1083" y="83.0" type="qcurve" smooth="yes"/>
      <point x="1394" y="84"/>
      <point x="1789.0" y="255.0"/>
      <point x="1878.0" y="333.0" type="qcurve"/>
      <point x="1943.0" y="243.0" type="line"/>
      <point x="1855.0" y="152.0"/>
      <point x="1406" y="-31"/>
      <point x="1066" y="-31" type="qcurve" smooth="yes"/>
      <point x="673" y="-31"/>
      <point x="102.0" y="348"/>
    </contour>
  </outline>
</glyph>
<glyph name="D" format="2">
  <advance width="2199"/>
  <unicode hex="0044"/>
  <anchor x="1077" y="0" name="bottom"/>
  <anchor x="626" y="750.0" name="center"/>
  <anchor x="1077" y="1500" name="top"/>
  <outline>
    <contour>
      <point x="136" y="0" type="line"/>
      <point x="136" y="98" type="line"/>
      <point x="404" y="133" type="line"/>
      <point x="406" y="754" type="line"/>
      <point x="404" y="1369" type="line"/>
      <point x="136" y="1403" type="line"/>
      <point x="136" y="1500" type="line"/>
      <point x="1186" y="1500" type="line" smooth="yes"/>
      <point x="1591" y="1500"/>
      <point x="2098" y="1132"/>
      <point x="2098" y="778" type="qcurve" smooth="yes"/>
      <point x="2098" y="376"/>
      <point x="1577" y="0"/>
      <point x="1135" y="0" type="qcurve" smooth="yes"/>
    </contour>
    <contour>
      <point x="529" y="108" type="line"/>
      <point x="576" y="109"/>
      <point x="903" y="100"/>
      <point x="1047" y="100" type="qcurve" smooth="yes"/>
      <point x="1498" y="100"/>
      <point x="1961" y="427"/>
      <point x="1961" y="767" type="qcurve" smooth="yes"/>
      <point x="1962" y="1097"/>
      <point x="1493" y="1402"/>
      <point x="1076" y="1402" type="qcurve" smooth="yes"/>
      <point x="875" y="1402"/>
      <point x="583" y="1394"/>
      <point x="529" y="1389" type="qcurve"/>
      <point x="525" y="758" type="line"/>
    </contour>
  </outline>
</glyph>
<glyph name="E" format="2">
  <advance width="1842"/>
  <unicode hex="0045"/>
  <anchor x="994.0" y="0" name="bottom"/>
  <anchor x="1750" y="0" name="ogonek"/>
  <anchor x="982.0" y="1500" name="top"/>
  <outline>
    <contour>
      <point x="136" y="0" type="line"/>
      <point x="136" y="98" type="line"/>
      <point x="405" y="131" type="line"/>
      <point x="406" y="755" type="line"/>
      <point x="405" y="1369" type="line"/>
      <point x="136" y="1402" type="line"/>
      <point x="136" y="1500" type="line"/>
      <point x="1668" y="1500" type="line"/>
      <point x="1668" y="1139" type="line"/>
      <point x="1576" y="1139" type="line"/>
      <point x="1519" y="1396" type="line"/>
      <point x="567" y="1396" type="line"/>
      <point x="531" y="1367" type="line"/>
      <point x="529" y="784" type="line"/>
      <point x="531" y="141" type="line"/>
      <point x="545" y="104" type="line"/>
      <point x="1601" y="104" type="line"/>
      <point x="1702" y="411" type="line"/>
      <point x="1793" y="411" type="line"/>
      <point x="1750" y="0" type="line"/>
    </contour>
    <contour>
      <point x="478" y="732" type="line"/>
      <point x="478" y="835" type="line"/>
      <point x="1342" y="838" type="line"/>
      <point x="1382" y="1021" type="line"/>
      <point x="1467" y="1021" type="line"/>
      <point x="1467" y="547" type="line"/>
      <point x="1382" y="547" type="line"/>
      <point x="1342" y="732" type="line"/>
    </contour>
  </outline>
</glyph>
<glyph name="F" format="2">
  <advance width="1794"/>
  <unicode hex="0046"/>
  <outline>
    <contour>
      <point x="136.0" y="0.0" type="line"/>
      <point x="136.0" y="98.0" type="line"/>
      <point x="405.0" y="131.0" type="line"/>
      <point x="407.0" y="763.0" type="line"/>
      <point x="405.0" y="1369.0" type="line"/>
      <point x="136.0" y="1402.0" type="line"/>
      <point x="136.0" y="1500.0" type="line"/>
      <point x="1669.0" y="1500.0" type="line"/>
      <point x="1669.0" y="1129.0" type="line"/>
      <point x="1575.0" y="1129.0" type="line"/>
      <point x="1518.0" y="1393.0" type="line"/>
      <point x="566.0" y="1393.0" type="line"/>
      <point x="531.0" y="1367.0" type="line"/>
      <point x="528.0" y="762.0" type="line"/>
      <point x="530.0" y="128.0" type="line"/>
      <point x="796.0" y="98.0" type="line"/>
      <point x="796.0" y="0.0" type="line"/>
    </contour>
    <contour>
      <point x="469.0" y="703.0" type="line"/>
      <point x="469.0" y="806.0" type="line"/>
      <point x="1402.0" y="806.0" type="line"/>
      <point x="1441.0" y="997.0" type="line"/>
      <point x="1521.0" y="997.0" type="line"/>
      <point x="1521.0" y="513.0" type="line"/>
      <point x="1441.0" y="513.0" type="line"/>
      <point x="1402.0" y="705.0" type="line"/>
    </contour>
  </outline>
</glyph>
<glyph name="G" format="2">
  <advance width="2329"/>
  <unicode hex="0047"/>
  <anchor x="1145" y="0" name="bottom"/>
  <anchor x="1137" y="1500" name="top"/>
  <outline>
    <contour>
      <point x="105" y="730" type="qcurve" smooth="yes"/>
      <point x="105" y="1082"/>
      <point x="650" y="1519"/>
      <point x="1137" y="1519" type="qcurve" smooth="yes"/>
      <point x="1381" y="1519"/>
      <point x="1681" y="1449"/>
      <point x="1802" y="1383" type="qcurve"/>
      <point x="1847" y="1498" type="line"/>
      <point x="1942" y="1498" type="line"/>
      <point x="1942" y="1040" type="line"/>
      <point x="1835" y="1040" type="line"/>
      <point x="1812" y="1160" type="line" smooth="yes"/>
      <point x="1790" y="1276"/>
      <point x="1432" y="1409"/>
      <point x="1131" y="1409" type="qcurve" smooth="yes"/>
      <point x="758" y="1409"/>
      <point x="237" y="1052"/>
      <point x="237" y="737" type="qcurve" smooth="yes"/>
      <point x="236" y="410"/>
      <point x="704" y="89"/>
      <point x="1127" y="90" type="qcurve" smooth="yes"/>
      <point x="1408" y="90"/>
      <point x="1797" y="212"/>
      <point x="1877" y="277" type="qcurve"/>
      <point x="1877" y="585" type="line"/>
      <point x="1559" y="612" type="line"/>
      <point x="1559" y="712" type="line"/>
      <point x="2255" y="712" type="line"/>
      <point x="2255" y="612" type="line"/>
      <point x="2005" y="585" type="line"/>
      <point x="2005" y="209" type="line"/>
      <point x="1920" y="133"/>
      <point x="1452" y="-26"/>
      <point x="1143" y="-29" type="qcurve" smooth="yes"/>
      <point x="653" y="-34"/>
      <point x="105" y="351"/>
    </contour>
  </outline>
</glyph>
<glyph name="H" format="2">
  <advance width="2386"/>
  <unicode hex="0048"/>
  <anchor x="1193.0" y="0" name="bottom"/>
  <anchor x="1193.0" y="1101.0" name="center"/>
  <anchor x="1193.0" y="1500" name="top"/>
  <outline>
    <contour>
      <point x="136" y="0" type="line"/>
      <point x="136" y="98" type="line"/>
      <point x="404" y="133" type="line"/>
      <point x="406" y="754" type="line"/>
      <point x="404" y="1369" type="line"/>
      <point x="136" y="1403" type="line"/>
      <point x="136" y="1500" type="line"/>
      <point x="807" y="1500" type="line"/>
      <point x="807" y="1403" type="line"/>
      <point x="532" y="1369" type="line"/>
      <point x="530" y="754" type="line"/>
      <point x="532" y="133" type="line"/>
      <point x="807" y="98" type="line"/>
      <point x="807" y="0" type="line"/>
    </contour>
    <contour>
      <point x="486" y="731" type="line"/>
      <point x="486" y="839" type="line"/>
      <point x="1207" y="831" type="line"/>
      <point x="1892" y="839" type="line"/>
      <point x="1892" y="731" type="line"/>
      <point x="1207" y="731" type="line"/>
    </contour>
    <contour>
      <point x="1579" y="0" type="line"/>
      <point x="1579" y="98" type="line"/>
      <point x="1854" y="133" type="line"/>
      <point x="1856" y="754" type="line"/>
      <point x="1854" y="1369" type="line"/>
      <point x="1579" y="1403" type="line"/>
      <point x="1579" y="1500" type="line"/>
      <point x="2250" y="1500" type="line"/>
      <point x="2250" y="1403" type="line"/>
      <point x="1982" y="1369" type="line"/>
      <point x="1980" y="754" type="line"/>
      <point x="1982" y="133" type="line"/>
      <point x="2250" y="98" type="line"/>
      <point x="2250" y="0" type="line"/>
    </contour>
  </outline>
</glyph>
<glyph name="I" format="2">
	<unicode hex="0049"/>
	<advance width="956"/>
	<outline>
		<contour>
			<point x="146" y="0" type="line"/>
			<point x="146" y="98" type="line"/>
			<point x="414" y="133" type="line"/>
			<point x="416" y="754" type="line"/>
			<point x="414" y="1369" type="line"/>
			<point x="146" y="1403" type="line"/>
			<point x="146" y="1500" type="line"/>
			<point x="810" y="1500" type="line"/>
			<point x="810" y="1403" type="line"/>
			<point x="542" y="1369" type="line"/>
			<point x="540" y="754" type="line"/>
			<point x="542" y="132" type="line"/>
			<point x="810" y="98" type="line"/>
			<point x="810" y="0" type="line"/>
		</contour>
	</outline>
</glyph>
<glyph name="J" format="2">
  <advance width="947"/>
  <unicode hex="004A"/>
  <anchor x="473.5" y="-301" name="bottom"/>
  <anchor x="473.5" y="1500" name="top"/>
  <outline>
    <contour>
      <point x="-5" y="-336" type="qcurve"/>
      <point x="-5" y="-225" type="line"/>
      <point x="12" y="-229"/>
      <point x="67" y="-235"/>
      <point x="100" y="-235" type="qcurve" smooth="yes"/>
      <point x="240" y="-235"/>
      <point x="394" y="-104"/>
      <point x="395" y="78" type="qcurve" smooth="yes"/>
      <point x="397" y="674" type="line"/>
      <point x="394" y="1369" type="line"/>
      <point x="73" y="1403" type="line"/>
      <point x="73" y="1500" type="line"/>
      <point x="811" y="1500" type="line"/>
      <point x="811" y="1403" type="line"/>
      <point x="522" y="1369" type="line"/>
      <point x="520" y="674" type="line"/>
      <point x="514" y="46" type="line" smooth="yes"/>
      <point x="512" y="-137"/>
      <point x="308" y="-351"/>
      <point x="125" y="-351" type="qcurve" smooth="yes"/>
      <point x="95" y="-351"/>
      <point x="30" y="-345"/>
    </contour>
  </outline>
</glyph>
<glyph name="K" format="2">
  <advance width="2058"/>
  <unicode hex="004B"/>
  <outline>
    <contour>
      <point x="136.0" y="0.0" type="line"/>
      <point x="136.0" y="98.0" type="line"/>
      <point x="404.0" y="133.0" type="line"/>
      <point x="406.0" y="754.0" type="line"/>
      <point x="404.0" y="1369.0" type="line"/>
      <point x="136.0" y="1403.0" type="line"/>
      <point x="136.0" y="1500.0" type="line"/>
      <point x="827.0" y="1500.0" type="line"/>
      <point x="827.0" y="1403.0" type="line"/>
      <point x="532.0" y="1369.0" type="line"/>
      <point x="530.0" y="754.0" type="line"/>
      <point x="532.0" y="133.0" type="line"/>
      <point x="807.0" y="98.0" type="line"/>
      <point x="807.0" y="0.0" type="line"/>
    </contour>
    <contour>
      <point x="494.0" y="519.0" type="line"/>
      <point x="494.0" y="639.0" type="line"/>
      <point x="1521.0" y="1393.0" type="line"/>
      <point x="1251.0" y="1403.0" type="line"/>
      <point x="1251.0" y="1500.0" type="line"/>
      <point x="1939.0" y="1500.0" type="line"/>
      <point x="1939.0" y="1403.0" type="line"/>
      <point x="1674.0" y="1383.0" type="line"/>
      <point x="947.0" y="855.0" type="line"/>
      <point x="916.0" y="839.0" type="line"/>
    </contour>
    <contour>
      <point x="856.0" y="852.0" type="line"/>
      <point x="961.0" y="923.0" type="line"/>
      <point x="1795.0" y="133.0" type="line"/>
      <point x="2099.0" y="98.0" type="line"/>
      <point x="2099.0" y="0.0" type="line"/>
      <point x="1345.0" y="0.0" type="line"/>
      <point x="1345.0" y="98.0" type="line"/>
      <point x="1610.0" y="133.0" type="line"/>
    </contour>
  </outline>
</glyph>
<glyph name="L" format="2">
  <advance width="1735"/>
  <unicode hex="004C"/>
  <anchor x="931" y="0" name="bottom"/>
  <anchor x="1225" y="784.0" name="center"/>
  <anchor x="769" y="1500" name="top"/>
  <anchor x="1142" y="1047" name="topright"/>
  <outline>
    <contour>
      <point x="136" y="0" type="line"/>
      <point x="136" y="98" type="line"/>
      <point x="405" y="135" type="line"/>
      <point x="406" y="754" type="line"/>
      <point x="404" y="1369" type="line"/>
      <point x="128" y="1402" type="line"/>
      <point x="128" y="1500" type="line"/>
      <point x="840" y="1500" type="line"/>
      <point x="840" y="1403" type="line"/>
      <point x="532" y="1369" type="line"/>
      <point x="530" y="754" type="line"/>
      <point x="530" y="138" type="line"/>
      <point x="545" y="104" type="line"/>
      <point x="1545" y="104" type="line"/>
      <point x="1642" y="430" type="line"/>
      <point x="1733" y="430" type="line"/>
      <point x="1688" y="0" type="line"/>
    </contour>
  </outline>
</glyph>
<glyph name="M" format="2">
  <advance width="2676"/>
  <unicode hex="004D"/>
  <anchor x="1338.0" y="0" name="bottom"/>
  <anchor x="1338.0" y="1500" name="top"/>
  <outline>
    <contour>
      <point x="137" y="0" type="line"/>
      <point x="137" y="98" type="line"/>
      <point x="406" y="133" type="line"/>
      <point x="408" y="753" type="line"/>
      <point x="406" y="1369" type="line"/>
      <point x="137" y="1403" type="line"/>
      <point x="137" y="1500" type="line"/>
      <point x="583" y="1500" type="line"/>
      <point x="949" y="789" type="line"/>
      <point x="1315" y="77" type="line"/>
      <point x="1698" y="798" type="line"/>
      <point x="2071" y="1500" type="line"/>
      <point x="2540" y="1500" type="line"/>
      <point x="2540" y="1403" type="line"/>
      <point x="2272" y="1369" type="line"/>
      <point x="2270" y="754" type="line"/>
      <point x="2272" y="133" type="line"/>
      <point x="2540" y="98" type="line"/>
      <point x="2540" y="0" type="line"/>
      <point x="1892" y="0" type="line"/>
      <point x="1892" y="98" type="line"/>
      <point x="2143" y="133" type="line"/>
      <point x="2145" y="753" type="line"/>
      <point x="2142" y="1410" type="line"/>
      <point x="1796" y="758" type="line"/>
      <point x="1384" y="-7" type="line"/>
      <point x="1226" y="-7" type="line"/>
      <point x="843" y="737" type="line"/>
      <point x="508" y="1387" type="line"/>
      <point x="513" y="753" type="line"/>
      <point x="515" y="133" type="line"/>
      <point x="775" y="98" type="line"/>
      <point x="775" y="0" type="line"/>
    </contour>
  </outline>
</glyph>
<glyph name="N" format="2">
  <advance width="2326"/>
  <unicode hex="004E"/>
  <anchor x="1163.0" y="0" name="bottom"/>
  <anchor x="1163.0" y="1500" name="top"/>
  <outline>
    <contour>
      <point x="137" y="0" type="line"/>
      <point x="137" y="98" type="line"/>
      <point x="407" y="133" type="line"/>
      <point x="409" y="753" type="line"/>
      <point x="407" y="1369" type="line"/>
      <point x="137" y="1403" type="line"/>
      <point x="137" y="1500" type="line"/>
      <point x="561" y="1500" type="line"/>
      <point x="1226" y="798" type="line"/>
      <point x="1827" y="162" type="line"/>
      <point x="1825" y="751" type="line"/>
      <point x="1822" y="1369" type="line"/>
      <point x="1546" y="1403" type="line"/>
      <point x="1546" y="1500" type="line"/>
      <point x="2202" y="1500" type="line"/>
      <point x="2202" y="1403" type="line"/>
      <point x="1942" y="1369" type="line"/>
      <point x="1938" y="753" type="line"/>
      <point x="1941" y="-4" type="line"/>
      <point x="1806" y="-4" type="line"/>
      <point x="1138" y="705" type="line"/>
      <point x="521" y="1359" type="line"/>
      <point x="524" y="755" type="line"/>
      <point x="531" y="133" type="line"/>
      <point x="793" y="98" type="line"/>
      <point x="793" y="0" type="line"/>
    </contour>
  </outline>
</glyph>
<glyph name="O" format="2">
  <advance width="2277"/>
  <unicode hex="004F"/>
  <anchor x="1138.5" y="0" name="bottom"/>
  <anchor x="1138.5" y="750.0" name="center"/>
  <anchor x="1468" y="0" name="ogonek"/>
  <anchor x="1138.5" y="1500" name="top"/>
  <anchor x="1419" y="1500" name="topright"/>
  <outline>
    <contour>
      <point x="101" y="737" type="qcurve" smooth="yes"/>
      <point x="101" y="1078"/>
      <point x="649" y="1519"/>
      <point x="1138" y="1520" type="qcurve" smooth="yes"/>
      <point x="1625" y="1521"/>
      <point x="2176" y="1097"/>
      <point x="2176" y="752" type="qcurve" smooth="yes"/>
      <point x="2176" y="413"/>
      <point x="1623" y="-31"/>
      <point x="1143" y="-31" type="qcurve" smooth="yes"/>
      <point x="654" y="-31"/>
      <point x="101" y="413"/>
    </contour>
    <contour>
      <point x="239" y="777" type="qcurve" smooth="yes"/>
      <point x="239" y="444"/>
      <point x="735" y="80"/>
      <point x="1147" y="80" type="qcurve" smooth="yes"/>
      <point x="1573" y="80"/>
      <point x="2038" y="439"/>
      <point x="2038" y="749" type="qcurve" smooth="yes"/>
      <point x="2038" y="1033"/>
      <point x="1575" y="1409"/>
      <point x="1144" y="1409" type="qcurve" smooth="yes"/>
      <point x="708" y="1409"/>
      <point x="239" y="1062"/>
    </contour>
  </outline>
</glyph>
<glyph name="P" format="2">
  <advance width="1746"/>
  <unicode hex="0050"/>
  <outline>
    <contour>
      <point x="138.0" y="0.0" type="line"/>
      <point x="138.0" y="98.0" type="line"/>
      <point x="404.0" y="132.0" type="line"/>
      <point x="406.0" y="762.0" type="line"/>
      <point x="405.0" y="1369.0" type="line"/>
      <point x="136.0" y="1403.0" type="line"/>
      <point x="136.0" y="1500.0" type="line"/>
      <point x="1055.0" y="1500.0" type="line" smooth="yes"/>
      <point x="1324.0" y="1500.0"/>
      <point x="1613.0" y="1286.0"/>
      <point x="1613.0" y="1076.0" type="qcurve" smooth="yes"/>
      <point x="1613.0" y="857.0"/>
      <point x="1270" y="595.0"/>
      <point x="941.0" y="595.0" type="qcurve" smooth="yes"/>
      <point x="852" y="595"/>
      <point x="543.0" y="621.0"/>
      <point x="488.0" y="633.0" type="qcurve"/>
      <point x="492.0" y="739.0" type="line"/>
      <point x="551.0" y="724.0"/>
      <point x="843.0" y="704.0"/>
      <point x="945.0" y="704.0" type="qcurve" smooth="yes"/>
      <point x="1215.0" y="704.0"/>
      <point x="1488.0" y="895.0"/>
      <point x="1488.0" y="1079.0" type="qcurve" smooth="yes"/>
      <point x="1488" y="1242"/>
      <point x="1239" y="1390"/>
      <point x="1015.0" y="1390.0" type="qcurve" smooth="yes"/>
      <point x="549.0" y="1390.0" type="line"/>
      <point x="530.0" y="1372.0" type="line"/>
      <point x="523.0" y="766.0" type="line"/>
      <point x="533.0" y="132.0" type="line"/>
      <point x="820.0" y="98.0" type="line"/>
      <point x="820.0" y="0.0" type="line"/>
    </contour>
  </outline>
</glyph>
<glyph name="Q" format="2">
  <advance width="2277"/>
  <unicode hex="0051"/>
  <anchor x="1138.5" y="0" name="bottom"/>
  <anchor x="1138.5" y="1500" name="top"/>
  <outline>
    <contour>
      <point x="101" y="737" type="qcurve" smooth="yes"/>
      <point x="101" y="1068"/>
      <point x="659" y="1520"/>
      <point x="1138" y="1520" type="qcurve" smooth="yes"/>
      <point x="1625" y="1520"/>
      <point x="2176" y="1097"/>
      <point x="2176" y="752" type="qcurve" smooth="yes"/>
      <point x="2176" y="413"/>
      <point x="1623" y="-22"/>
      <point x="1143" y="-22" type="qcurve" smooth="yes"/>
      <point x="669" y="-22"/>
      <point x="101" y="386"/>
    </contour>
    <contour>
      <point x="239" y="777" type="qcurve" smooth="yes"/>
      <point x="239" y="448"/>
      <point x="732" y="88"/>
      <point x="1144" y="88" type="qcurve" smooth="yes"/>
      <point x="1566" y="88"/>
      <point x="2038" y="439"/>
      <point x="2038" y="749" type="qcurve" smooth="yes"/>
      <point x="2038" y="1033"/>
      <point x="1575" y="1409"/>
      <point x="1144" y="1409" type="qcurve" smooth="yes"/>
      <point x="718" y="1409"/>
      <point x="239" y="1047"/>
    </contour>
    <contour>
      <point x="405" y="-344" type="qcurve"/>
      <point x="324" y="-264" type="line"/>
      <point x="383" y="-194"/>
      <point x="601" y="-76"/>
      <point x="707" y="-62" type="qcurve"/>
      <point x="1178" y="433" type="line"/>
      <point x="1255" y="356" type="line"/>
      <point x="816" y="-82" type="line"/>
      <point x="1588" y="-293" type="line"/>
      <point x="1691" y="-293"/>
      <point x="1870" y="-212"/>
      <point x="1924" y="-116" type="qcurve"/>
      <point x="2023" y="-170" type="line"/>
      <point x="1970" y="-281"/>
      <point x="1747" y="-420"/>
      <point x="1586" y="-420" type="qcurve"/>
      <point x="801" y="-200" type="line"/>
      <point x="667" y="-189"/>
      <point x="480" y="-255"/>
    </contour>
  </outline>
</glyph>
<glyph name="R" format="2">
  <advance width="1906"/>
  <unicode hex="0052"/>
  <outline>
    <contour>
      <point x="118.0" y="0.0" type="line"/>
      <point x="118.0" y="98.0" type="line"/>
      <point x="404.0" y="133.0" type="line"/>
      <point x="406.0" y="742.0" type="line"/>
      <point x="405.0" y="1369.0" type="line"/>
      <point x="136.0" y="1403.0" type="line"/>
      <point x="136.0" y="1500.0" type="line"/>
      <point x="1212.0" y="1500.0" type="line" smooth="yes"/>
      <point x="1425.0" y="1500.0"/>
      <point x="1668.0" y="1265.0"/>
      <point x="1668.0" y="1082.0" type="qcurve" smooth="yes"/>
      <point x="1668.0" y="886.0"/>
      <point x="1378.0" y="658.0"/>
      <point x="1182.0" y="658.0" type="qcurve" smooth="yes"/>
      <point x="1117.0" y="658.0"/>
      <point x="537.0" y="665.0"/>
      <point x="468.0" y="667.0" type="qcurve"/>
      <point x="468.0" y="770.0" type="line"/>
      <point x="1166.0" y="767.0" type="line" smooth="yes"/>
      <point x="1357" y="766"/>
      <point x="1540.0" y="926.0"/>
      <point x="1540.0" y="1080.0" type="qcurve" smooth="yes"/>
      <point x="1540.0" y="1217.0"/>
      <point x="1350.0" y="1390.0"/>
      <point x="1189.0" y="1390.0" type="qcurve" smooth="yes"/>
      <point x="548.0" y="1390.0" type="line"/>
      <point x="526.0" y="1369.0" type="line"/>
      <point x="523.0" y="678.0" type="line"/>
      <point x="525.0" y="133.0" type="line"/>
      <point x="820.0" y="98.0" type="line"/>
      <point x="820.0" y="0.0" type="line"/>
    </contour>
    <contour>
      <point x="1127.0" y="686.0" type="line"/>
      <point x="1237.0" y="736.0" type="line"/>
      <point x="1542.0" y="283.0" type="line" smooth="yes"/>
      <point x="1625" y="160"/>
      <point x="1742" y="113.0"/>
      <point x="1905.0" y="98.0" type="qcurve"/>
      <point x="1905.0" y="0.0" type="line"/>
      <point x="1608.0" y="0.0" type="line"/>
      <point x="1570.0" y="28.0" type="line"/>
    </contour>
  </outline>
</glyph>
<glyph name="S" format="2">
  <advance width="1743"/>
  <unicode hex="0053"/>
  <anchor x="894" y="0" name="bottom"/>
  <anchor x="827" y="1500" name="top"/>
  <outline>
    <contour>
      <point x="120" y="0" type="line"/>
      <point x="120" y="461" type="line"/>
      <point x="206" y="461" type="line"/>
      <point x="267" y="261" type="line" smooth="yes"/>
      <point x="293" y="177"/>
      <point x="614" y="80"/>
      <point x="898" y="80" type="qcurve" smooth="yes"/>
      <point x="1157" y="80"/>
      <point x="1468" y="272"/>
      <point x="1468" y="413" type="qcurve" smooth="yes"/>
      <point x="1468" y="512"/>
      <point x="1279" y="660"/>
      <point x="807" y="750" type="qcurve" smooth="yes"/>
      <point x="413" y="827"/>
      <point x="177" y="1007"/>
      <point x="177" y="1159" type="qcurve" smooth="yes"/>
      <point x="177" y="1314"/>
      <point x="498" y="1519"/>
      <point x="824" y="1519" type="qcurve" smooth="yes"/>
      <point x="1002" y="1519"/>
      <point x="1293" y="1449"/>
      <point x="1353" y="1402" type="qcurve"/>
      <point x="1377" y="1487" type="line"/>
      <point x="1464" y="1487" type="line"/>
      <point x="1464" y="1084" type="line"/>
      <point x="1375" y="1084" type="line"/>
      <point x="1340" y="1238" type="line" smooth="yes"/>
      <point x="1321" y="1323"/>
      <point x="1067" y="1406"/>
      <point x="826" y="1406" type="qcurve" smooth="yes"/>
      <point x="544" y="1406"/>
      <point x="308" y="1273"/>
      <point x="308" y="1163" type="qcurve" smooth="yes"/>
      <point x="308" y="1045"/>
      <point x="494" y="938"/>
      <point x="904" y="858" type="qcurve" smooth="yes"/>
      <point x="1351" y="771"/>
      <point x="1592" y="578"/>
      <point x="1592" y="422" type="qcurve" smooth="yes"/>
      <point x="1592" y="241"/>
      <point x="1234" y="-31"/>
      <point x="896" y="-31" type="qcurve" smooth="yes"/>
      <point x="689" y="-31"/>
      <point x="366" y="41"/>
      <point x="256" y="108" type="qcurve"/>
      <point x="205" y="0" type="line"/>
    </contour>
  </outline>
</glyph>
<glyph name="T" format="2">
  <advance width="1791"/>
  <unicode hex="0054"/>
  <anchor x="895.5" y="0" name="bottom"/>
  <anchor x="895.5" y="750.0" name="center"/>
  <anchor x="895.5" y="1500" name="top"/>
  <outline>
    <contour>
      <point x="30" y="1103" type="line"/>
      <point x="30" y="1500" type="line"/>
      <point x="1761" y="1500" type="line"/>
      <point x="1761" y="1103" type="line"/>
      <point x="1667" y="1103" type="line"/>
      <point x="1614" y="1400" type="line"/>
      <point x="984" y="1400" type="line"/>
      <point x="958" y="1388" type="line"/>
      <point x="955" y="754" type="line"/>
      <point x="960" y="133" type="line"/>
      <point x="1242" y="98" type="line"/>
      <point x="1242" y="0" type="line"/>
      <point x="546" y="0" type="line"/>
      <point x="546" y="98" type="line"/>
      <point x="833" y="133" type="line"/>
      <point x="837" y="754" type="line"/>
      <point x="834" y="1386" type="line"/>
      <point x="803" y="1400" type="line"/>
      <point x="169" y="1400" type="line"/>
      <point x="125" y="1103" type="line"/>
    </contour>
  </outline>
</glyph>
<glyph name="U" format="2">
  <advance width="2229"/>
  <unicode hex="0055"/>
  <anchor x="1114.5" y="0" name="bottom"/>
  <anchor x="1397" y="0" name="ogonek"/>
  <anchor x="1115" y="1500" name="top"/>
  <anchor x="2112" y="1500" name="topright"/>
  <outline>
    <contour>
      <point x="92" y="1403" type="line"/>
      <point x="92" y="1500" type="line"/>
      <point x="796" y="1500" type="line"/>
      <point x="796" y="1403" type="line"/>
      <point x="508" y="1369" type="line"/>
      <point x="506" y="869" type="line"/>
      <point x="506" y="618" type="line" smooth="yes"/>
      <point x="506" y="332"/>
      <point x="781" y="80"/>
      <point x="1100" y="80" type="qcurve" smooth="yes"/>
      <point x="1428" y="80"/>
      <point x="1737" y="340"/>
      <point x="1738" y="628" type="qcurve" smooth="yes"/>
      <point x="1739" y="864" type="line"/>
      <point x="1738" y="1369" type="line"/>
      <point x="1449" y="1404" type="line"/>
      <point x="1449" y="1500" type="line"/>
      <point x="2112" y="1500" type="line"/>
      <point x="2112" y="1404" type="line"/>
      <point x="1849" y="1369" type="line"/>
      <point x="1848" y="864" type="line"/>
      <point x="1852" y="601" type="line" smooth="yes"/>
      <point x="1857" y="289"/>
      <point x="1480" y="-31"/>
      <point x="1103" y="-31" type="qcurve" smooth="yes"/>
      <point x="726" y="-31"/>
      <point x="379" y="268"/>
      <point x="380" y="601" type="qcurve" smooth="yes"/>
      <point x="381" y="869" type="line"/>
      <point x="379" y="1369" type="line"/>
    </contour>
  </outline>
</glyph>
<glyph name="V" format="2">
  <advance width="2111"/>
  <unicode hex="0056"/>
  <anchor x="1055.5" y="0" name="bottom"/>
  <anchor x="1055.5" y="1500" name="top"/>
  <outline>
    <contour>
      <point x="0" y="1401" type="line"/>
      <point x="0" y="1500" type="line"/>
      <point x="690" y="1500" type="line"/>
      <point x="690" y="1401" type="line"/>
      <point x="412" y="1374" type="line"/>
      <point x="717" y="770" type="line"/>
      <point x="1059" y="91" type="line"/>
      <point x="1419" y="797" type="line"/>
      <point x="1710" y="1367" type="line"/>
      <point x="1417" y="1401" type="line"/>
      <point x="1415" y="1500" type="line"/>
      <point x="2110" y="1500" type="line"/>
      <point x="2111" y="1401" type="line"/>
      <point x="1832" y="1372" type="line"/>
      <point x="1505" y="741" type="line"/>
      <point x="1117" y="-7" type="line"/>
      <point x="968" y="-7" type="line"/>
      <point x="606" y="711" type="line"/>
      <point x="272" y="1372" type="line"/>
    </contour>
  </outline>
</glyph>
<glyph name="W" format="2">
  <advance width="2966"/>
  <unicode hex="0057"/>
  <anchor x="1483.0" y="0" name="bottom"/>
  <anchor x="1483.0" y="1500" name="top"/>
  <outline>
    <contour>
      <point x="5" y="1403" type="line"/>
      <point x="5" y="1500" type="line"/>
      <point x="733" y="1500" type="line"/>
      <point x="733" y="1403" type="line"/>
      <point x="424" y="1380" type="line"/>
      <point x="700" y="769" type="line"/>
      <point x="1009" y="83" type="line"/>
      <point x="1250" y="636" type="line"/>
      <point x="1469" y="1139" type="line"/>
      <point x="1518" y="1034" type="line"/>
      <point x="1324" y="584" type="line"/>
      <point x="1070" y="-5" type="line"/>
      <point x="912" y="-5" type="line"/>
      <point x="588" y="712" type="line"/>
      <point x="288" y="1377" type="line"/>
    </contour>
    <contour>
      <point x="1017" y="1402" type="line"/>
      <point x="1017" y="1500" type="line"/>
      <point x="1745" y="1500" type="line"/>
      <point x="1745" y="1402" type="line"/>
      <point x="1439" y="1382" type="line"/>
      <point x="1730" y="738" type="line"/>
      <point x="2025" y="85" type="line"/>
      <point x="2313" y="763" type="line"/>
      <point x="2573" y="1377" type="line"/>
      <point x="2257" y="1403" type="line"/>
      <point x="2257" y="1500" type="line"/>
      <point x="2960" y="1500" type="line"/>
      <point x="2960" y="1403" type="line"/>
      <point x="2686" y="1381" type="line"/>
      <point x="2398" y="709" type="line"/>
      <point x="2091" y="-5" type="line"/>
      <point x="1930" y="-5" type="line"/>
      <point x="1624" y="671" type="line"/>
      <point x="1303" y="1378" type="line"/>
    </contour>
  </outline>
</glyph>
<glyph name="X" format="2">
  <advance width="2054"/>
  <unicode hex="0058"/>
  <anchor x="1027.0" y="0" name="bottom"/>
  <anchor x="1027.0" y="1500" name="top"/>
  <outline>
    <contour>
      <point x="-24" y="0" type="line"/>
      <point x="-24" y="98" type="line"/>
      <point x="294" y="134" type="line"/>
      <point x="992" y="821" type="line"/>
      <point x="1010" y="821" type="line"/>
      <point x="1550" y="1370" type="line"/>
      <point x="1273" y="1403" type="line"/>
      <point x="1273" y="1500" type="line"/>
      <point x="2008" y="1500" type="line"/>
      <point x="2008" y="1403" type="line"/>
      <point x="1688" y="1369" type="line"/>
      <point x="1078" y="751" type="line"/>
      <point x="1060" y="751" type="line"/>
      <point x="442" y="138" type="line"/>
      <point x="724" y="98" type="line"/>
      <point x="724" y="0" type="line"/>
    </contour>
    <contour>
      <point x="91" y="1403" type="line"/>
      <point x="91" y="1500" type="line"/>
      <point x="910" y="1500" type="line"/>
      <point x="910" y="1403" type="line"/>
      <point x="581" y="1369" type="line"/>
      <point x="1081" y="838" type="line"/>
      <point x="1744" y="133" type="line"/>
      <point x="2078" y="98" type="line"/>
      <point x="2078" y="0" type="line"/>
      <point x="1230" y="0" type="line"/>
      <point x="1230" y="98" type="line"/>
      <point x="1576" y="133" type="line"/>
      <point x="991" y="753" type="line"/>
      <point x="410" y="1369" type="line"/>
    </contour>
  </outline>
</glyph>
<glyph name="Y" format="2">
  <advance width="1899"/>
  <unicode hex="0059"/>
  <anchor x="949.5" y="0" name="bottom"/>
  <anchor x="978" y="1500" name="top"/>
  <outline>
    <contour>
      <point x="-24" y="1403" type="line"/>
      <point x="-24" y="1500" type="line"/>
      <point x="683" y="1500" type="line"/>
      <point x="683" y="1403" type="line"/>
      <point x="418" y="1375" type="line"/>
      <point x="708" y="1007" type="line"/>
      <point x="966" y="680" type="line"/>
      <point x="1223" y="993" type="line"/>
      <point x="1531" y="1369" type="line"/>
      <point x="1287" y="1403" type="line"/>
      <point x="1287" y="1500" type="line"/>
      <point x="1923" y="1500" type="line"/>
      <point x="1923" y="1403" type="line"/>
      <point x="1654" y="1369" type="line"/>
      <point x="1298" y="934" type="line"/>
      <point x="1011" y="583" type="line"/>
      <point x="1011" y="133" type="line"/>
      <point x="1279" y="98" type="line"/>
      <point x="1279" y="0" type="line"/>
      <point x="615" y="0" type="line"/>
      <point x="615" y="98" type="line"/>
      <point x="883" y="133" type="line"/>
      <point x="886" y="578" type="line"/>
      <point x="616" y="924" type="line"/>
      <point x="269" y="1369" type="line"/>
    </contour>
  </outline>
</glyph>
<glyph name="Z" format="2">
  <advance width="1767"/>
  <unicode hex="005A"/>
  <outline>
    <contour>
      <point x="69.0" y="0.0" type="line"/>
      <point x="39.0" y="88.0" type="line"/>
      <point x="1466.0" y="1382.0" type="line"/>
      <point x="1465.0" y="1397.0" type="line"/>
      <point x="303.0" y="1397.0" type="line"/>
      <point x="233.0" y="1113.0" type="line"/>
      <point x="142.0" y="1113.0" type="line"/>
      <point x="142.0" y="1500.0" type="line"/>
      <point x="1646.0" y="1500.0" type="line"/>
      <point x="1646.0" y="1389.0" type="line"/>
      <point x="245.0" y="118.0" type="line"/>
      <point x="248.0" y="104.0" type="line"/>
      <point x="1514.0" y="104.0" type="line"/>
      <point x="1620.0" y="412.0" type="line"/>
      <point x="1711.0" y="412.0" type="line"/>
      <point x="1664.0" y="0.0" type="line"/>
    </contour>
  </outline>
</glyph>
<glyph name="bracketleft" format="2">
	<unicode hex="005B"/>
	<advance width="720"/>
	<outline>
		<contour>
			<point x="183" y="509" type="line"/>
			<point x="183" y="1432" type="line"/>
			<point x="184" y="1452" type="line"/>
			<point x="184" y="1500" type="line"/>
			<point x="647" y="1500" type="line"/>
			<point x="637" y="1400" type="line"/>
			<point x="297" y="1389" type="line"/>
			<point x="305" y="509" type="line"/>
			<point x="297" y="-370" type="line"/>
			<point x="647" y="-381" type="line"/>
			<point x="647" y="-480" type="line"/>
			<point x="182" y="-480" type="line"/>
			<point x="182" y="-432" type="line"/>
			<point x="183" y="-412" type="line"/>
		</contour>
	</outline>
</glyph>
<glyph name="backslash" format="2">
  <advance width="823"/>
  <unicode hex="005C"/>
  <outline>
    <contour>
      <point x="-35" y="1513" type="line"/>
      <point x="47" y="1561" type="line"/>
      <point x="901" y="-125" type="line"/>
      <point x="819" y="-174" type="line"/>
    </contour>
  </outline>
</glyph>
<glyph name="bracketright" format="2">
	<unicode hex="005D"/>
	<advance width="720"/>
	<outline>
		<contour>
			<point x="73" y="-480" type="line"/>
			<point x="73" y="-381" type="line"/>
			<point x="423" y="-370" type="line"/>
			<point x="415" y="509" type="line"/>
			<point x="423" y="1389" type="line"/>
			<point x="83" y="1400" type="line"/>
			<point x="73" y="1500" type="line"/>
			<point x="536" y="1500" type="line"/>
			<point x="536" y="1452" type="line"/>
			<point x="537" y="1432" type="line"/>
			<point x="537" y="509" type="line"/>
			<point x="537" y="-412" type="line"/>
			<point x="538" y="-432" type="line"/>
			<point x="538" y="-480" type="line"/>
		</contour>
	</outline>
</glyph>
<glyph name="grave" format="2">
  <advance width="1024"/>
  <unicode hex="0060"/>
  <outline>
    <contour>
      <point x="259.0" y="1414" type="qcurve" smooth="yes"/>
      <point x="259.0" y="1448"/>
      <point x="305" y="1494.0"/>
      <point x="335" y="1494.0" type="qcurve" smooth="yes"/>
      <point x="363" y="1494"/>
      <point x="417" y="1460"/>
      <point x="439.0" y="1438.0" type="qcurve" smooth="yes"/>
      <point x="734.0" y="1134.0" type="line"/>
      <point x="684.0" y="1072.0" type="line"/>
      <point x="328.0" y="1327.0" type="line" smooth="yes"/>
      <point x="310" y="1340"/>
      <point x="259" y="1389"/>
    </contour>
  </outline>
</glyph>
<glyph name="a" format="2">
  <advance width="1550"/>
  <unicode hex="0061"/>
  <anchor x="775.0" y="0" name="bottom"/>
  <anchor x="1285" y="0" name="ogonek"/>
  <anchor x="699.0" y="1050" name="top"/>
  <outline>
    <contour>
      <point x="87" y="290" type="qcurve" smooth="yes"/>
      <point x="87" y="478"/>
      <point x="632" y="677"/>
      <point x="1207" y="669" type="qcurve"/>
      <point x="1215" y="574" type="line"/>
      <point x="675" y="584"/>
      <point x="218" y="428"/>
      <point x="218" y="300" type="qcurve" smooth="yes"/>
      <point x="218" y="184"/>
      <point x="435" y="86"/>
      <point x="604" y="86" type="qcurve" smooth="yes"/>
      <point x="784" y="86"/>
      <point x="1108" y="187"/>
      <point x="1160" y="231" type="qcurve"/>
      <point x="1163" y="695" type="line" smooth="yes"/>
      <point x="1164" y="848"/>
      <point x="955" y="978"/>
      <point x="711" y="978" type="qcurve" smooth="yes"/>
      <point x="525" y="978"/>
      <point x="340" y="923"/>
      <point x="313" y="897" type="qcurve"/>
      <point x="361" y="876"/>
      <point x="412" y="820"/>
      <point x="412" y="776" type="qcurve" smooth="yes"/>
      <point x="412" y="735"/>
      <point x="355" y="682"/>
      <point x="308" y="682" type="qcurve" smooth="yes"/>
      <point x="253" y="682"/>
      <point x="184" y="758"/>
      <point x="184" y="829" type="qcurve" smooth="yes"/>
      <point x="184" y="944"/>
      <point x="452" y="1082"/>
      <point x="698" y="1082" type="qcurve" smooth="yes"/>
      <point x="1008" y="1082"/>
      <point x="1288" y="910"/>
      <point x="1287" y="715" type="qcurve" smooth="yes"/>
      <point x="1285" y="128" type="line"/>
      <point x="1504" y="101" type="line"/>
      <point x="1504" y="0" type="line"/>
      <point x="1208" y="0" type="line"/>
      <point x="1183" y="20" type="line"/>
      <point x="1168" y="148" type="line"/>
      <point x="1100" y="84"/>
      <point x="796" y="-20"/>
      <point x="617" y="-20" type="qcurve" smooth="yes"/>
      <point x="370" y="-20"/>
      <point x="87" y="119"/>
    </contour>
  </outline>
</glyph>
<glyph name="b" format="2">
  <advance width="1750"/>
  <unicode hex="0062"/>
  <anchor x="875.0" y="0" name="bottom"/>
  <anchor x="875.0" y="1514" name="top"/>
  <outline>
    <contour>
      <point x="304" y="0" type="line"/>
      <point x="306" y="477" type="line"/>
      <point x="301" y="1377" type="line"/>
      <point x="54" y="1398" type="line"/>
      <point x="54" y="1500" type="line"/>
      <point x="397" y="1514" type="line"/>
      <point x="406" y="1509" type="line"/>
      <point x="419" y="1486" type="line"/>
      <point x="421" y="867" type="line"/>
      <point x="488" y="937"/>
      <point x="790" y="1080"/>
      <point x="1002" y="1080" type="qcurve" smooth="yes"/>
      <point x="1297" y="1080"/>
      <point x="1656" y="805"/>
      <point x="1656" y="571" type="qcurve" smooth="yes"/>
      <point x="1656" y="301"/>
      <point x="1282" y="-27"/>
      <point x="948" y="-28" type="qcurve" smooth="yes"/>
      <point x="753" y="-29"/>
      <point x="500" y="55"/>
      <point x="406" y="113" type="qcurve"/>
      <point x="359" y="0" type="line"/>
    </contour>
    <contour>
      <point x="422" y="339" type="line"/>
      <point x="427" y="219" type="line"/>
      <point x="494" y="161"/>
      <point x="762" y="84"/>
      <point x="959" y="84" type="qcurve" smooth="yes"/>
      <point x="1228" y="84"/>
      <point x="1528" y="335"/>
      <point x="1528" y="554" type="qcurve" smooth="yes"/>
      <point x="1528" y="741"/>
      <point x="1247" y="964"/>
      <point x="991" y="964" type="qcurve" smooth="yes"/>
      <point x="776" y="964"/>
      <point x="481" y="822"/>
      <point x="422" y="749" type="qcurve"/>
    </contour>
  </outline>
</glyph>
<glyph name="c" format="2">
  <advance width="1428"/>
  <unicode hex="0063"/>
  <outline>
    <contour>
      <point x="95.0" y="503.0" type="qcurve" smooth="yes"/>
      <point x="95.0" y="784"/>
      <point x="497" y="1079.0"/>
      <point x="804.0" y="1079.0" type="qcurve" smooth="yes"/>
      <point x="967" y="1079"/>
      <point x="1223.0" y="1013.0"/>
      <point x="1290.0" y="962.0" type="qcurve"/>
      <point x="1324.0" y="1056.0" type="line"/>
      <point x="1396.0" y="1056.0" type="line"/>
      <point x="1406.0" y="678.0" type="line"/>
      <point x="1318.0" y="676.0" type="line"/>
      <point x="1288" y="773" type="line" smooth="yes"/>
      <point x="1257" y="874"/>
      <point x="1051" y="965"/>
      <point x="817" y="965" type="qcurve" smooth="yes"/>
      <point x="528" y="965.0"/>
      <point x="228" y="733"/>
      <point x="228" y="517" type="qcurve" smooth="yes"/>
      <point x="228" y="318"/>
      <point x="560.0" y="75.0"/>
      <point x="835.0" y="75.0" type="qcurve" smooth="yes"/>
      <point x="1008.0" y="75.0"/>
      <point x="1300.0" y="186.0"/>
      <point x="1375.0" y="264.0" type="qcurve"/>
      <point x="1453.0" y="179.0" type="line"/>
      <point x="1348.0" y="85.0"/>
      <point x="1038" y="-32"/>
      <point x="799" y="-32" type="qcurve" smooth="yes"/>
      <point x="501" y="-32"/>
      <point x="95" y="266"/>
    </contour>
  </outline>
</glyph>
<glyph name="d" format="2">
  <advance width="1712"/>
  <unicode hex="0064"/>
  <anchor x="856.0" y="0" name="bottom"/>
  <anchor x="1217.0" y="1235.0" name="center"/>
  <anchor x="856.0" y="1514" name="top"/>
  <anchor x="1435" y="1050" name="topright"/>
  <outline>
    <contour>
      <point x="94" y="512" type="qcurve" smooth="yes"/>
      <point x="94" y="775"/>
      <point x="488" y="1081"/>
      <point x="819" y="1081" type="qcurve" smooth="yes"/>
      <point x="962" y="1081"/>
      <point x="1246" y="1003"/>
      <point x="1314" y="962" type="qcurve"/>
      <point x="1316" y="1378" type="line"/>
      <point x="1037" y="1399" type="line"/>
      <point x="1037" y="1500" type="line"/>
      <point x="1404" y="1514" type="line"/>
      <point x="1424" y="1509" type="line"/>
      <point x="1435" y="1486" type="line"/>
      <point x="1432" y="554" type="line"/>
      <point x="1434" y="128" type="line"/>
      <point x="1660" y="101" type="line"/>
      <point x="1660" y="0" type="line"/>
      <point x="1350" y="0" type="line"/>
      <point x="1328" y="14" type="line"/>
      <point x="1317" y="129" type="line"/>
      <point x="1248" y="55"/>
      <point x="893" y="-29"/>
      <point x="775" y="-30" type="qcurve" smooth="yes"/>
      <point x="494" y="-31"/>
      <point x="94" y="267"/>
    </contour>
    <contour>
      <point x="223" y="526" type="qcurve" smooth="yes"/>
      <point x="223" y="337"/>
      <point x="542" y="79"/>
      <point x="779" y="79" type="qcurve" smooth="yes"/>
      <point x="910" y="79"/>
      <point x="1242" y="165"/>
      <point x="1312" y="238" type="qcurve"/>
      <point x="1312" y="567" type="line"/>
      <point x="1312" y="838" type="line"/>
      <point x="1260" y="886"/>
      <point x="947" y="960"/>
      <point x="806" y="960" type="qcurve" smooth="yes"/>
      <point x="527" y="960"/>
      <point x="223" y="727"/>
    </contour>
  </outline>
</glyph>
<glyph name="e" format="2">
  <advance width="1459"/>
  <unicode hex="0065"/>
  <anchor x="804" y="0" name="bottom"/>
  <anchor x="1082" y="0" name="ogonek"/>
  <anchor x="788" y="1050" name="top"/>
  <outline>
    <contour>
      <point x="94" y="523" type="qcurve" smooth="yes"/>
      <point x="94" y="791"/>
      <point x="484" y="1080"/>
      <point x="789" y="1080" type="qcurve" smooth="yes"/>
      <point x="1045" y="1080"/>
      <point x="1424" y="837"/>
      <point x="1450" y="623" type="qcurve"/>
      <point x="1450" y="528" type="line"/>
      <point x="190" y="528" type="line"/>
      <point x="193" y="639" type="line"/>
      <point x="1328" y="639" type="line"/>
      <point x="1303" y="787"/>
      <point x="984" y="968"/>
      <point x="776" y="967" type="qcurve" smooth="yes"/>
      <point x="528" y="966"/>
      <point x="219" y="746"/>
      <point x="221" y="537" type="qcurve" smooth="yes"/>
      <point x="223" y="313"/>
      <point x="532" y="75"/>
      <point x="822" y="75" type="qcurve" smooth="yes"/>
      <point x="998" y="75"/>
      <point x="1257" y="166"/>
      <point x="1354" y="238" type="qcurve"/>
      <point x="1425" y="161" type="line"/>
      <point x="1349" y="78"/>
      <point x="999" y="-30"/>
      <point x="805" y="-30" type="qcurve" smooth="yes"/>
      <point x="481" y="-30"/>
      <point x="94" y="252"/>
    </contour>
  </outline>
</glyph>
<glyph name="f" format="2">
  <advance width="887"/>
  <unicode hex="0066"/>
  <anchor x="443.5" y="0" name="bottom"/>
  <anchor x="443.5" y="1497" name="top"/>
  <outline>
    <contour>
      <point x="129" y="0" type="line"/>
      <point x="129" y="101" type="line"/>
      <point x="347" y="128" type="line"/>
      <point x="350" y="552" type="line"/>
      <point x="345" y="925" type="line"/>
      <point x="104" y="927" type="line"/>
      <point x="104" y="1038" type="line"/>
      <point x="353" y="1049" type="line"/>
      <point x="351" y="1195" type="line" smooth="yes"/>
      <point x="349" y="1333"/>
      <point x="543" y="1497"/>
      <point x="686" y="1497" type="qcurve" smooth="yes"/>
      <point x="763" y="1497"/>
      <point x="903" y="1455"/>
      <point x="949" y="1426" type="qcurve" smooth="yes"/>
      <point x="981" y="1406" type="line"/>
      <point x="945" y="1295" type="line"/>
      <point x="925" y="1307" type="line" smooth="yes"/>
      <point x="865" y="1343"/>
      <point x="727" y="1376"/>
      <point x="656" y="1376" type="qcurve" smooth="yes"/>
      <point x="576" y="1376"/>
      <point x="470" y="1279"/>
      <point x="472" y="1174" type="qcurve" smooth="yes"/>
      <point x="474" y="1037" type="line"/>
      <point x="848" y="1037" type="line"/>
      <point x="848" y="929" type="line"/>
      <point x="473" y="929" type="line"/>
      <point x="470" y="552" type="line"/>
      <point x="482" y="128" type="line"/>
      <point x="729" y="101" type="line"/>
      <point x="729" y="0" type="line"/>
    </contour>
  </outline>
</glyph>
<glyph name="g" format="2">
  <advance width="1638"/>
  <unicode hex="0067"/>
  <anchor x="819.0" y="-416" name="bottom"/>
  <anchor x="819.0" y="1050" name="top"/>
  <outline>
    <contour>
      <point x="118" y="-234" type="qcurve" smooth="yes"/>
      <point x="118" y="-144"/>
      <point x="292" y="-10"/>
      <point x="468" y="24" type="qcurve"/>
      <point x="549" y="-12" type="line"/>
      <point x="386" y="-53"/>
      <point x="245" y="-156"/>
      <point x="245" y="-222" type="qcurve" smooth="yes"/>
      <point x="245" y="-310"/>
      <point x="542" y="-410"/>
      <point x="818" y="-414" type="qcurve" smooth="yes"/>
      <point x="1187" y="-419"/>
      <point x="1463" y="-301"/>
      <point x="1463" y="-212" type="qcurve" smooth="yes"/>
      <point x="1463" y="-146"/>
      <point x="1245" y="-79"/>
      <point x="850" y="-65" type="qcurve" smooth="yes"/>
      <point x="428" y="-50"/>
      <point x="200" y="70"/>
      <point x="200" y="162" type="qcurve" smooth="yes"/>
      <point x="200" y="225"/>
      <point x="336" y="334"/>
      <point x="512" y="369" type="qcurve"/>
      <point x="568" y="312" type="line"/>
      <point x="430" y="285"/>
      <point x="338" y="217"/>
      <point x="338" y="167" type="qcurve" smooth="yes"/>
      <point x="338" y="118"/>
      <point x="518" y="60"/>
      <point x="891" y="50" type="qcurve" smooth="yes"/>
      <point x="1267" y="39"/>
      <point x="1595" y="-81"/>
      <point x="1595" y="-203" type="qcurve" smooth="yes"/>
      <point x="1595" y="-331"/>
      <point x="1254" y="-510"/>
      <point x="846" y="-510" type="qcurve" smooth="yes"/>
      <point x="491" y="-510"/>
      <point x="118" y="-369"/>
    </contour>
    <contour>
      <point x="254" y="661" type="qcurve" smooth="yes"/>
      <point x="254" y="842"/>
      <point x="584" y="1080"/>
      <point x="852" y="1080" type="qcurve" smooth="yes"/>
      <point x="1120" y="1080"/>
      <point x="1456" y="861"/>
      <point x="1456" y="670" type="qcurve" smooth="yes"/>
      <point x="1457" y="489"/>
      <point x="1123" y="245"/>
      <point x="854" y="245" type="qcurve" smooth="yes"/>
      <point x="585" y="245"/>
      <point x="254" y="466"/>
    </contour>
    <contour>
      <point x="383" y="656" type="qcurve" smooth="yes"/>
      <point x="383" y="499"/>
      <point x="633" y="357"/>
      <point x="853" y="357" type="qcurve" smooth="yes"/>
      <point x="1052" y="357"/>
      <point x="1328" y="515"/>
      <point x="1328" y="667" type="qcurve" smooth="yes"/>
      <point x="1328" y="812"/>
      <point x="1067" y="966"/>
      <point x="857" y="966" type="qcurve" smooth="yes"/>
      <point x="639" y="966"/>
      <point x="383" y="797"/>
    </contour>
    <contour>
      <point x="1109" y="943" type="line"/>
      <point x="1088" y="1039" type="line"/>
      <point x="1659" y="1041" type="line"/>
      <point x="1659" y="929" type="line"/>
    </contour>
  </outline>
</glyph>
<glyph name="h" format="2">
  <advance width="1851"/>
  <unicode hex="0068"/>
  <anchor x="979" y="0" name="bottom"/>
  <anchor x="509" y="1214.0" name="center"/>
  <anchor x="396" y="1514" name="top"/>
  <outline>
    <contour>
      <point x="116" y="0" type="line"/>
      <point x="116" y="101" type="line"/>
      <point x="335" y="128" type="line"/>
      <point x="337" y="552" type="line"/>
      <point x="335" y="1371" type="line"/>
      <point x="108" y="1392" type="line"/>
      <point x="108" y="1500" type="line"/>
      <point x="433" y="1514" type="line"/>
      <point x="441" y="1509" type="line"/>
      <point x="458" y="1486" type="line"/>
      <point x="458" y="822" type="line"/>
      <point x="561" y="916"/>
      <point x="901" y="1071"/>
      <point x="1099" y="1071" type="qcurve" smooth="yes"/>
      <point x="1349" y="1071"/>
      <point x="1592" y="895"/>
      <point x="1592" y="718" type="qcurve" smooth="yes"/>
      <point x="1592" y="675"/>
      <point x="1588" y="588"/>
      <point x="1588" y="553" type="qcurve" smooth="yes"/>
      <point x="1588" y="128" type="line"/>
      <point x="1805" y="101" type="line"/>
      <point x="1805" y="0" type="line"/>
      <point x="1250" y="0" type="line"/>
      <point x="1250" y="101" type="line"/>
      <point x="1460" y="128" type="line"/>
      <point x="1464" y="552" type="line"/>
      <point x="1464" y="661" type="line" smooth="yes"/>
      <point x="1464" y="815"/>
      <point x="1275" y="948"/>
      <point x="1058" y="948" type="qcurve" smooth="yes"/>
      <point x="875" y="948"/>
      <point x="546" y="781"/>
      <point x="458" y="688" type="qcurve"/>
      <point x="460" y="552" type="line"/>
      <point x="468" y="128" type="line"/>
      <point x="689" y="101" type="line"/>
      <point x="689" y="0" type="line"/>
    </contour>
  </outline>
</glyph>
<glyph name="i" format="2">
  <advance width="759"/>
  <unicode hex="0069"/>
  <anchor x="379.5" y="0" name="bottom"/>
  <anchor x="379.5" y="1050" name="top"/>
  <anchor x="224" y="0" name="ogonek"/>
  <outline>
    <contour>
      <point x="116" y="0" type="line"/>
      <point x="116" y="103" type="line"/>
      <point x="348" y="128" type="line"/>
      <point x="350" y="552" type="line"/>
      <point x="347" y="908" type="line"/>
      <point x="106" y="927" type="line"/>
      <point x="106" y="1035" type="line"/>
      <point x="414" y="1053" type="line"/>
      <point x="430" y="1051" type="line"/>
      <point x="481" y="1007" type="line"/>
      <point x="473" y="552" type="line"/>
      <point x="480" y="128" type="line"/>
      <point x="698" y="103" type="line"/>
      <point x="698" y="0" type="line"/>
    </contour>
    <contour>
      <point x="278" y="1356" type="qcurve" smooth="yes"/>
      <point x="278" y="1402"/>
      <point x="334" y="1468"/>
      <point x="389" y="1468" type="qcurve" smooth="yes"/>
      <point x="439" y="1468"/>
      <point x="501" y="1402"/>
      <point x="501" y="1356" type="qcurve" smooth="yes"/>
      <point x="501" y="1311"/>
      <point x="443" y="1248"/>
      <point x="389" y="1248" type="qcurve" smooth="yes"/>
      <point x="336" y="1248"/>
      <point x="278" y="1313"/>
    </contour>
  </outline>
</glyph>
<glyph name="j" format="2">
  <advance width="703"/>
  <unicode hex="006A"/>
  <anchor x="351.5" y="-436" name="bottom"/>
  <anchor x="351.5" y="1050" name="top"/>
  <outline>
    <contour>
      <point x="28" y="-475" type="qcurve"/>
      <point x="28" y="-362" type="line"/>
      <point x="205" y="-372"/>
      <point x="355" y="-275"/>
      <point x="354" y="-179" type="qcurve" smooth="yes"/>
      <point x="356" y="552" type="line"/>
      <point x="354" y="908" type="line"/>
      <point x="68" y="930" type="line"/>
      <point x="68" y="1037" type="line"/>
      <point x="429" y="1053" type="line"/>
      <point x="444" y="1051" type="line"/>
      <point x="489" y="1013" type="line"/>
      <point x="481" y="552" type="line"/>
      <point x="481" y="-173" type="line" smooth="yes"/>
      <point x="481" y="-344"/>
      <point x="243" y="-493"/>
    </contour>
    <contour>
      <point x="290" y="1366" type="qcurve" smooth="yes"/>
      <point x="290" y="1412"/>
      <point x="347" y="1476"/>
      <point x="401" y="1476" type="qcurve" smooth="yes"/>
      <point x="452" y="1476"/>
      <point x="513" y="1413"/>
      <point x="513" y="1366" type="qcurve" smooth="yes"/>
      <point x="513" y="1326"/>
      <point x="464" y="1252"/>
      <point x="401" y="1252" type="qcurve" smooth="yes"/>
      <point x="340" y="1252"/>
      <point x="290" y="1329"/>
    </contour>
  </outline>
</glyph>
<glyph name="k" format="2">
  <advance width="1571"/>
  <unicode hex="006B"/>
  <anchor x="930" y="0" name="bottom"/>
  <anchor x="785.5" y="1514" name="top"/>
  <outline>
    <contour>
      <point x="116" y="0" type="line"/>
      <point x="116" y="101" type="line"/>
      <point x="335" y="128" type="line"/>
      <point x="338" y="552" type="line"/>
      <point x="335" y="1371" type="line"/>
      <point x="108" y="1392" type="line"/>
      <point x="108" y="1500" type="line"/>
      <point x="431" y="1514" type="line"/>
      <point x="439" y="1509" type="line"/>
      <point x="458" y="1486" type="line"/>
      <point x="460" y="572" type="line"/>
      <point x="468" y="128" type="line"/>
      <point x="694" y="101" type="line"/>
      <point x="694" y="0" type="line"/>
    </contour>
    <contour>
      <point x="411" y="348" type="line"/>
      <point x="409" y="459" type="line"/>
      <point x="1075" y="926" type="line"/>
      <point x="875" y="948" type="line"/>
      <point x="875" y="1050" type="line"/>
      <point x="1491" y="1050" type="line"/>
      <point x="1491" y="948" type="line"/>
      <point x="1250" y="925" type="line"/>
    </contour>
    <contour>
      <point x="748" y="637" type="line"/>
      <point x="847" y="712" type="line"/>
      <point x="1421" y="130" type="line"/>
      <point x="1676" y="101" type="line"/>
      <point x="1676" y="0" type="line"/>
      <point x="1151" y="0" type="line"/>
      <point x="1149" y="101" type="line"/>
      <point x="1262" y="123" type="line"/>
    </contour>
  </outline>
</glyph>
<glyph name="l" format="2">
  <advance width="795"/>
  <unicode hex="006C"/>
  <anchor x="418" y="0" name="bottom"/>
  <anchor x="418" y="750.0" name="center"/>
  <anchor x="418" y="1514" name="top"/>
  <anchor x="479" y="1050" name="topright"/>
  <outline>
    <contour>
      <point x="116" y="0" type="line"/>
      <point x="116" y="102" type="line"/>
      <point x="355" y="128" type="line"/>
      <point x="358" y="527" type="line"/>
      <point x="353" y="1371" type="line"/>
      <point x="104" y="1392" type="line"/>
      <point x="104" y="1500" type="line"/>
      <point x="451" y="1514" type="line"/>
      <point x="464" y="1507" type="line"/>
      <point x="479" y="1487" type="line"/>
      <point x="477" y="527" type="line"/>
      <point x="486" y="128" type="line"/>
      <point x="722" y="101" type="line"/>
      <point x="722" y="0" type="line"/>
    </contour>
  </outline>
</glyph>
<glyph name="m" format="2">
  <advance width="2744"/>
  <unicode hex="006D"/>
  <anchor x="1372.0" y="0" name="bottom"/>
  <anchor x="1372.0" y="1050" name="top"/>
  <outline>
    <contour>
      <point x="130" y="0" type="line"/>
      <point x="130" y="101" type="line"/>
      <point x="348" y="128" type="line"/>
      <point x="350" y="552" type="line"/>
      <point x="348" y="905" type="line"/>
      <point x="106" y="925" type="line"/>
      <point x="106" y="1038" type="line"/>
      <point x="431" y="1050" type="line"/>
      <point x="459" y="1033" type="line"/>
      <point x="473" y="828" type="line"/>
      <point x="547" y="911"/>
      <point x="868" y="1071"/>
      <point x="1049" y="1071" type="qcurve" smooth="yes"/>
      <point x="1229" y="1071"/>
      <point x="1439" y="947"/>
      <point x="1466" y="824" type="qcurve"/>
      <point x="1587" y="935"/>
      <point x="1851" y="1070"/>
      <point x="2051" y="1070" type="qcurve" smooth="yes"/>
      <point x="2257" y="1070"/>
      <point x="2484" y="896"/>
      <point x="2484" y="718" type="qcurve" smooth="yes"/>
      <point x="2484" y="674"/>
      <point x="2481" y="576"/>
      <point x="2481" y="552" type="qcurve" smooth="yes"/>
      <point x="2481" y="128" type="line"/>
      <point x="2699" y="101" type="line"/>
      <point x="2699" y="0" type="line"/>
      <point x="2141" y="0" type="line"/>
      <point x="2141" y="101" type="line"/>
      <point x="2352" y="128" type="line"/>
      <point x="2357" y="552" type="line"/>
      <point x="2357" y="662" type="line" smooth="yes"/>
      <point x="2357" y="823"/>
      <point x="2187" y="951"/>
      <point x="2009" y="951" type="qcurve" smooth="yes"/>
      <point x="1827" y="951"/>
      <point x="1566" y="796"/>
      <point x="1476" y="693" type="qcurve"/>
      <point x="1477" y="676"/>
      <point x="1478" y="587"/>
      <point x="1478" y="552" type="qcurve" smooth="yes"/>
      <point x="1478" y="128" type="line"/>
      <point x="1715" y="101" type="line"/>
      <point x="1715" y="0" type="line"/>
      <point x="1118" y="0" type="line"/>
      <point x="1118" y="101" type="line"/>
      <point x="1348" y="128" type="line"/>
      <point x="1352" y="552" type="line"/>
      <point x="1352" y="664" type="line" smooth="yes"/>
      <point x="1352" y="825"/>
      <point x="1180" y="951"/>
      <point x="1014" y="951" type="qcurve" smooth="yes"/>
      <point x="838" y="951"/>
      <point x="556" y="783"/>
      <point x="473" y="688" type="qcurve"/>
      <point x="473" y="552" type="line"/>
      <point x="481" y="128" type="line"/>
      <point x="702" y="101" type="line"/>
      <point x="702" y="0" type="line"/>
    </contour>
  </outline>
</glyph>
<glyph name="o" format="2">
  <advance width="1690"/>
  <unicode hex="006F"/>
  <outline>
    <contour>
      <point x="94.0" y="525.0" type="qcurve" smooth="yes"/>
      <point x="94.0" y="754.0"/>
      <point x="514.0" y="1081.0"/>
      <point x="842.0" y="1081.0" type="qcurve" smooth="yes"/>
      <point x="1177.0" y="1081.0"/>
      <point x="1596" y="774"/>
      <point x="1596.0" y="531.0" type="qcurve" smooth="yes"/>
      <point x="1596.0" y="283"/>
      <point x="1173.0" y="-31.0"/>
      <point x="838" y="-31" type="qcurve" smooth="yes"/>
      <point x="502.0" y="-31.0"/>
      <point x="94.0" y="281.0"/>
    </contour>
    <contour>
      <point x="223.0" y="533" type="qcurve" smooth="yes"/>
      <point x="223.0" y="339"/>
      <point x="553" y="72"/>
      <point x="839" y="72.0" type="qcurve" smooth="yes"/>
      <point x="1138" y="72.0"/>
      <point x="1468.0" y="327.0"/>
      <point x="1468.0" y="530.0" type="qcurve" smooth="yes"/>
      <point x="1468" y="714"/>
      <point x="1128" y="966"/>
      <point x="839" y="966" type="qcurve" smooth="yes"/>
      <point x="558" y="966.0"/>
      <point x="223" y="735"/>
    </contour>
  </outline>
</glyph>
<glyph name="p" format="2">
  <advance width="1773"/>
  <unicode hex="0070"/>
  <anchor x="886.5" y="0" name="bottom"/>
  <anchor x="886.5" y="1050" name="top"/>
  <outline>
    <contour>
      <point x="101" y="-480" type="line"/>
      <point x="101" y="-382" type="line"/>
      <point x="327" y="-355" type="line"/>
      <point x="331" y="452" type="line"/>
      <point x="329" y="905" type="line"/>
      <point x="89" y="925" type="line"/>
      <point x="89" y="1036" type="line"/>
      <point x="383" y="1050" type="line"/>
      <point x="406" y="1032" type="line"/>
      <point x="441" y="861" type="line"/>
      <point x="522" y="941"/>
      <point x="817" y="1080"/>
      <point x="1022" y="1080" type="qcurve" smooth="yes"/>
      <point x="1314" y="1080"/>
      <point x="1679" y="785"/>
      <point x="1679" y="568" type="qcurve" smooth="yes"/>
      <point x="1679" y="295"/>
      <point x="1316" y="-26"/>
      <point x="962" y="-26" type="qcurve" smooth="yes"/>
      <point x="780" y="-26"/>
      <point x="525" y="49"/>
      <point x="450" y="91" type="qcurve"/>
      <point x="452" y="-355" type="line"/>
      <point x="717" y="-382" type="line"/>
      <point x="717" y="-480" type="line"/>
    </contour>
    <contour>
      <point x="452" y="217" type="line"/>
      <point x="516" y="164"/>
      <point x="792" y="84"/>
      <point x="933" y="84" type="qcurve" smooth="yes"/>
      <point x="1252" y="84"/>
      <point x="1551" y="333"/>
      <point x="1551" y="556" type="qcurve" smooth="yes"/>
      <point x="1551" y="736"/>
      <point x="1261" y="963"/>
      <point x="999" y="963" type="qcurve" smooth="yes"/>
      <point x="811" y="963"/>
      <point x="534" y="837"/>
      <point x="452" y="743" type="qcurve"/>
      <point x="450" y="455" type="line"/>
    </contour>
  </outline>
</glyph>
<glyph name="q" format="2">
  <advance width="1713"/>
  <unicode hex="0071"/>
  <anchor x="856.5" y="0" name="bottom"/>
  <anchor x="856.5" y="1050" name="top"/>
  <outline>
    <contour>
      <point x="94" y="516" type="qcurve" smooth="yes"/>
      <point x="94" y="775"/>
      <point x="482" y="1082"/>
      <point x="819" y="1082" type="qcurve" smooth="yes"/>
      <point x="1001" y="1082"/>
      <point x="1263" y="988"/>
      <point x="1324" y="939" type="qcurve"/>
      <point x="1373" y="1068" type="line"/>
      <point x="1697" y="1036" type="line"/>
      <point x="1697" y="929" type="line"/>
      <point x="1431" y="929" type="line"/>
      <point x="1434" y="460" type="line"/>
      <point x="1436" y="-355" type="line"/>
      <point x="1688" y="-384" type="line"/>
      <point x="1688" y="-480" type="line"/>
      <point x="1031" y="-480" type="line"/>
      <point x="1031" y="-382" type="line"/>
      <point x="1313" y="-358" type="line"/>
      <point x="1317" y="144" type="line"/>
      <point x="1252" y="73"/>
      <point x="956" y="-30"/>
      <point x="765" y="-30" type="qcurve" smooth="yes"/>
      <point x="463" y="-30"/>
      <point x="94" y="267"/>
    </contour>
    <contour>
      <point x="223" y="524" type="qcurve" smooth="yes"/>
      <point x="223" y="317"/>
      <point x="510" y="79"/>
      <point x="764" y="79" type="qcurve" smooth="yes"/>
      <point x="977" y="79"/>
      <point x="1254" y="180"/>
      <point x="1313" y="247" type="qcurve"/>
      <point x="1313" y="826" type="line"/>
      <point x="1249" y="883"/>
      <point x="971" y="960"/>
      <point x="805" y="960" type="qcurve" smooth="yes"/>
      <point x="524" y="960"/>
      <point x="223" y="729"/>
    </contour>
  </outline>
</glyph>
<glyph name="r" format="2">
  <advance width="1247"/>
  <unicode hex="0072"/>
  <anchor x="623.5" y="0" name="bottom"/>
  <anchor x="711" y="1050" name="top"/>
  <outline>
    <contour>
      <point x="130" y="0" type="line"/>
      <point x="130" y="101" type="line"/>
      <point x="348" y="128" type="line"/>
      <point x="350" y="532" type="line"/>
      <point x="348" y="905" type="line"/>
      <point x="106" y="925" type="line"/>
      <point x="106" y="1038" type="line"/>
      <point x="430" y="1050" type="line"/>
      <point x="458" y="1033" type="line"/>
      <point x="470" y="809" type="line"/>
      <point x="570" y="920"/>
      <point x="913" y="1062"/>
      <point x="1114" y="1062" type="qcurve" smooth="yes"/>
      <point x="1218" y="1062" type="line"/>
      <point x="1218" y="750" type="line"/>
      <point x="1128" y="750" type="line"/>
      <point x="1076" y="949" type="line"/>
      <point x="894" y="947"/>
      <point x="557" y="798"/>
      <point x="471" y="699" type="qcurve"/>
      <point x="473" y="532" type="line"/>
      <point x="482" y="128" type="line"/>
      <point x="743" y="101" type="line"/>
      <point x="743" y="0" type="line"/>
    </contour>
  </outline>
</glyph>
<glyph name="s" format="2">
  <advance width="1364"/>
  <unicode hex="0073"/>
  <anchor x="738.0" y="0" name="bottom"/>
  <anchor x="665.0" y="1050" name="top"/>
  <outline>
    <contour>
      <point x="115" y="0" type="line"/>
      <point x="115" y="341" type="line"/>
      <point x="194" y="341" type="line"/>
      <point x="231" y="245" type="line" smooth="yes"/>
      <point x="265" y="158"/>
      <point x="545" y="78"/>
      <point x="741" y="78" type="qcurve" smooth="yes"/>
      <point x="943" y="78"/>
      <point x="1166" y="180"/>
      <point x="1166" y="269" type="qcurve" smooth="yes"/>
      <point x="1166" y="365"/>
      <point x="919" y="449"/>
      <point x="672" y="492" type="qcurve" smooth="yes"/>
      <point x="395" y="540"/>
      <point x="153" y="672"/>
      <point x="153" y="799" type="qcurve" smooth="yes"/>
      <point x="153" y="926"/>
      <point x="427" y="1081"/>
      <point x="663" y="1081" type="qcurve" smooth="yes"/>
      <point x="823" y="1081"/>
      <point x="1047" y="1021"/>
      <point x="1102" y="992" type="qcurve"/>
      <point x="1130" y="1050" type="line"/>
      <point x="1213" y="1050" type="line"/>
      <point x="1213" y="758" type="line"/>
      <point x="1129" y="758" type="line"/>
      <point x="1094" y="846" type="line" smooth="yes"/>
      <point x="1070" y="906"/>
      <point x="827" y="967"/>
      <point x="646" y="967" type="qcurve" smooth="yes"/>
      <point x="466" y="967"/>
      <point x="274" y="891"/>
      <point x="274" y="817" type="qcurve" smooth="yes"/>
      <point x="274" y="740"/>
      <point x="495" y="649"/>
      <point x="763" y="601" type="qcurve" smooth="yes"/>
      <point x="1042" y="551"/>
      <point x="1288" y="406"/>
      <point x="1288" y="278" type="qcurve" smooth="yes"/>
      <point x="1288" y="151"/>
      <point x="998" y="-28"/>
      <point x="739" y="-28" type="qcurve" smooth="yes"/>
      <point x="572" y="-28"/>
      <point x="291" y="41"/>
      <point x="225" y="87" type="qcurve"/>
      <point x="189" y="0" type="line"/>
    </contour>
  </outline>
</glyph>
<glyph name="t" format="2">
  <advance width="820"/>
  <unicode hex="0074"/>
  <anchor x="410.0" y="0" name="bottom"/>
  <anchor x="410.0" y="624.0" name="center"/>
  <anchor x="410.0" y="1306" name="top"/>
  <anchor x="794" y="1050" name="topright"/>
  <outline>
    <contour>
      <point x="79" y="936" type="line"/>
      <point x="79" y="1032" type="line"/>
      <point x="186" y="1044"/>
      <point x="283" y="1136"/>
      <point x="290" y="1306" type="qcurve"/>
      <point x="399" y="1306" type="line"/>
      <point x="407" y="1293" type="line"/>
      <point x="404" y="1037" type="line"/>
      <point x="794" y="1037" type="line"/>
      <point x="794" y="929" type="line"/>
      <point x="406" y="929" type="line"/>
      <point x="404" y="552" type="line"/>
      <point x="406" y="259" type="line" smooth="yes"/>
      <point x="406" y="186"/>
      <point x="469" y="106"/>
      <point x="557" y="112" type="qcurve" smooth="yes"/>
      <point x="818" y="129" type="line"/>
      <point x="818" y="34" type="line"/>
      <point x="444" y="-8" type="line"/>
      <point x="374" y="-5"/>
      <point x="283" y="71"/>
      <point x="283" y="150" type="qcurve" smooth="yes"/>
      <point x="283" y="552" type="line"/>
      <point x="279" y="926" type="line"/>
    </contour>
  </outline>
</glyph>
<glyph name="v" format="2">
  <advance width="1630"/>
  <unicode hex="0076"/>
  <anchor x="815.0" y="0" name="bottom"/>
  <anchor x="815.0" y="1050" name="top"/>
  <outline>
    <contour>
      <point x="-17" y="945" type="line"/>
      <point x="-17" y="1050" type="line"/>
      <point x="568" y="1050" type="line"/>
      <point x="568" y="945" type="line"/>
      <point x="354" y="922" type="line"/>
      <point x="582" y="529" type="line"/>
      <point x="844" y="93" type="line"/>
      <point x="1098" y="528" type="line"/>
      <point x="1324" y="922" type="line"/>
      <point x="1086" y="945" type="line"/>
      <point x="1086" y="1050" type="line"/>
      <point x="1653" y="1050" type="line"/>
      <point x="1653" y="945" type="line"/>
      <point x="1435" y="922" type="line"/>
      <point x="1178" y="480" type="line"/>
      <point x="902" y="-7" type="line"/>
      <point x="757" y="-7" type="line"/>
      <point x="484" y="465" type="line"/>
      <point x="215" y="921" type="line"/>
    </contour>
  </outline>
</glyph>
<glyph name="w" format="2">
  <advance width="2298"/>
  <unicode hex="0077"/>
  <anchor x="1149.0" y="0" name="bottom"/>
  <anchor x="1149.0" y="1050" name="top"/>
  <outline>
    <contour>
      <point x="-17" y="945" type="line"/>
      <point x="-17" y="1050" type="line"/>
      <point x="560" y="1050" type="line"/>
      <point x="560" y="948" type="line"/>
      <point x="344" y="924" type="line"/>
      <point x="536" y="532" type="line"/>
      <point x="752" y="90" type="line"/>
      <point x="951" y="466" type="line"/>
      <point x="1147" y="866" type="line"/>
      <point x="1199" y="760" type="line"/>
      <point x="1031" y="419" type="line"/>
      <point x="821" y="-7" type="line"/>
      <point x="671" y="-7" type="line"/>
      <point x="432" y="479" type="line"/>
      <point x="213" y="924" type="line"/>
    </contour>
    <contour>
      <point x="821" y="948" type="line"/>
      <point x="821" y="1050" type="line"/>
      <point x="1393" y="1050" type="line"/>
      <point x="1393" y="948" type="line"/>
      <point x="1183" y="925" type="line"/>
      <point x="1383" y="510" type="line"/>
      <point x="1586" y="84" type="line"/>
      <point x="1808" y="520" type="line"/>
      <point x="2003" y="928" type="line"/>
      <point x="1761" y="948" type="line"/>
      <point x="1761" y="1050" type="line"/>
      <point x="2321" y="1050" type="line"/>
      <point x="2321" y="945" type="line"/>
      <point x="2106" y="924" type="line"/>
      <point x="1889" y="475" type="line"/>
      <point x="1656" y="-7" type="line"/>
      <point x="1507" y="-7" type="line"/>
      <point x="1282" y="448" type="line"/>
      <point x="1047" y="924" type="line"/>
    </contour>
  </outline>
</glyph>
<glyph name="x" format="2">
  <advance width="1644"/>
  <unicode hex="0078"/>
  <anchor x="822.0" y="0" name="bottom"/>
  <anchor x="822.0" y="1050" name="top"/>
  <outline>
    <contour>
      <point x="45" y="0" type="line"/>
      <point x="45" y="101" type="line"/>
      <point x="318" y="128" type="line"/>
      <point x="789" y="568" type="line"/>
      <point x="810" y="568" type="line"/>
      <point x="1173" y="927" type="line"/>
      <point x="944" y="948" type="line"/>
      <point x="944" y="1050" type="line"/>
      <point x="1571" y="1050" type="line"/>
      <point x="1569" y="945" type="line"/>
      <point x="1300" y="924" type="line"/>
      <point x="861" y="501" type="line"/>
      <point x="843" y="501" type="line"/>
      <point x="451" y="128" type="line"/>
      <point x="680" y="101" type="line"/>
      <point x="680" y="0" type="line"/>
    </contour>
    <contour>
      <point x="66" y="945" type="line"/>
      <point x="66" y="1050" type="line"/>
      <point x="737" y="1050" type="line"/>
      <point x="737" y="948" type="line"/>
      <point x="501" y="927" type="line"/>
      <point x="875" y="579" type="line"/>
      <point x="1364" y="128" type="line"/>
      <point x="1636" y="101" type="line"/>
      <point x="1636" y="0" type="line"/>
      <point x="934" y="0" type="line"/>
      <point x="934" y="101" type="line"/>
      <point x="1191" y="127" type="line"/>
      <point x="791" y="499" type="line"/>
      <point x="329" y="924" type="line"/>
    </contour>
  </outline>
</glyph>
<glyph name="y" format="2">
  <advance width="1597"/>
  <unicode hex="0079"/>
  <anchor x="1251" y="0" name="bottom"/>
  <anchor x="848" y="1050" name="top"/>
  <outline>
    <contour>
      <point x="-17" y="943" type="line"/>
      <point x="-17" y="1050" type="line"/>
      <point x="569" y="1050" type="line"/>
      <point x="569" y="945" type="line"/>
      <point x="352" y="925" type="line"/>
      <point x="586" y="533" type="line"/>
      <point x="849" y="92" type="line"/>
      <point x="1088" y="509" type="line"/>
      <point x="1325" y="923" type="line"/>
      <point x="1065" y="945" type="line"/>
      <point x="1065" y="1050" type="line"/>
      <point x="1632" y="1050" type="line"/>
      <point x="1632" y="945" type="line"/>
      <point x="1434" y="920" type="line"/>
      <point x="1173" y="466" type="line"/>
      <point x="802" y="-181" type="line" smooth="yes"/>
      <point x="713" y="-336"/>
      <point x="449" y="-491"/>
      <point x="310" y="-491" type="qcurve"/>
      <point x="97" y="-468" type="line"/>
      <point x="97" y="-365" type="line"/>
      <point x="262" y="-365" type="line" smooth="yes"/>
      <point x="423" y="-365"/>
      <point x="630" y="-264"/>
      <point x="703" y="-135" type="qcurve" smooth="yes"/>
      <point x="777" y="-9" type="line"/>
      <point x="777" y="-9" type="line"/>
      <point x="491" y="464" type="line"/>
      <point x="215" y="921" type="line"/>
    </contour>
  </outline>
</glyph>
<glyph name="z" format="2">
  <advance width="1386"/>
  <unicode hex="007A"/>
  <outline>
    <contour>
      <point x="71.0" y="0.0" type="line"/>
      <point x="71.0" y="91.0" type="line"/>
      <point x="1105.0" y="941.0" type="line"/>
      <point x="240.0" y="941.0" type="line"/>
      <point x="195.0" y="710.0" type="line"/>
      <point x="109.0" y="710.0" type="line"/>
      <point x="109.0" y="1050.0" type="line"/>
      <point x="1297.0" y="1050.0" type="line"/>
      <point x="1297.0" y="960.0" type="line"/>
      <point x="252.0" y="101.0" type="line"/>
      <point x="1174.0" y="101.0" type="line"/>
      <point x="1229.0" y="332.0" type="line"/>
      <point x="1320.0" y="332.0" type="line"/>
      <point x="1320.0" y="0.0" type="line"/>
    </contour>
  </outline>
</glyph>
<glyph name="braceleft" format="2">
	<unicode hex="007B"/>
	<advance width="731"/>
	<outline>
		<contour>
			<point x="17" y="478" type="line"/>
			<point x="17" y="592" type="line"/>
			<point x="180" y="602" type="line" smooth="yes"/>
			<point x="225" y="605"/>
			<point x="349" y="647"/>
			<point x="349" y="732" type="qcurve" smooth="yes"/>
			<point x="349" y="829"/>
			<point x="191" y="1072"/>
			<point x="191" y="1198" type="qcurve" smooth="yes"/>
			<point x="191" y="1337"/>
			<point x="362" y="1510"/>
			<point x="505" y="1510" type="qcurve" smooth="yes"/>
			<point x="557" y="1510"/>
			<point x="665" y="1502"/>
			<point x="699" y="1497" type="qcurve"/>
			<point x="699" y="1395" type="line"/>
			<point x="660" y="1397"/>
			<point x="560" y="1402"/>
			<point x="518" y="1402" type="qcurve" smooth="yes"/>
			<point x="407" y="1402"/>
			<point x="290" y="1318"/>
			<point x="290" y="1204" type="qcurve" smooth="yes"/>
			<point x="290" y="1079"/>
			<point x="465" y="847"/>
			<point x="465" y="759" type="qcurve" smooth="yes"/>
			<point x="465" y="665"/>
			<point x="350" y="564"/>
			<point x="259" y="548" type="qcurve"/>
			<point x="373" y="540"/>
			<point x="463" y="454"/>
			<point x="463" y="350" type="qcurve" smooth="yes"/>
			<point x="463" y="222"/>
			<point x="276" y="-62"/>
			<point x="276" y="-176" type="qcurve" smooth="yes"/>
			<point x="276" y="-309"/>
			<point x="403" y="-377"/>
			<point x="505" y="-377" type="qcurve" smooth="yes"/>
			<point x="572" y="-377"/>
			<point x="647" y="-372"/>
			<point x="694" y="-367" type="qcurve"/>
			<point x="694" y="-479" type="line"/>
			<point x="658" y="-486"/>
			<point x="547" y="-495"/>
			<point x="495" y="-495" type="qcurve" smooth="yes"/>
			<point x="355" y="-495"/>
			<point x="177" y="-329"/>
			<point x="177" y="-170" type="qcurve" smooth="yes"/>
			<point x="177" y="-50"/>
			<point x="343" y="255"/>
			<point x="343" y="388" type="qcurve"/>
			<point x="326" y="471" type="line"/>
		</contour>
	</outline>
</glyph>
<glyph name="braceright" format="2">
  <advance width="731"/>
  <unicode hex="007D"/>
  <outline>
    <contour>
      <point x="37.0" y="-479.0" type="qcurve"/>
      <point x="37.0" y="-367.0" type="line"/>
      <point x="84.0" y="-372.0"/>
      <point x="199.0" y="-377.0"/>
      <point x="266.0" y="-377.0" type="qcurve" smooth="yes"/>
      <point x="368.0" y="-377.0"/>
      <point x="495.0" y="-286.0"/>
      <point x="495.0" y="-176.0" type="qcurve" smooth="yes"/>
      <point x="495.0" y="-62.0"/>
      <point x="268.0" y="222.0"/>
      <point x="268.0" y="350.0" type="qcurve" smooth="yes"/>
      <point x="268.0" y="454.0"/>
      <point x="358.0" y="540.0"/>
      <point x="472.0" y="548.0" type="qcurve"/>
      <point x="381.0" y="564.0"/>
      <point x="266.0" y="665.0"/>
      <point x="266.0" y="759.0" type="qcurve" smooth="yes"/>
      <point x="266.0" y="847.0"/>
      <point x="401.0" y="1079.0"/>
      <point x="401.0" y="1204.0" type="qcurve" smooth="yes"/>
      <point x="401.0" y="1301.0"/>
      <point x="284.0" y="1402.0"/>
      <point x="173.0" y="1402.0" type="qcurve" smooth="yes"/>
      <point x="131.0" y="1402.0"/>
      <point x="71.0" y="1397.0"/>
      <point x="32.0" y="1395.0" type="qcurve"/>
      <point x="32.0" y="1497.0" type="line"/>
      <point x="66.0" y="1502.0"/>
      <point x="134.0" y="1510.0"/>
      <point x="186.0" y="1510.0" type="qcurve" smooth="yes"/>
      <point x="329.0" y="1510.0"/>
      <point x="500.0" y="1337.0"/>
      <point x="500.0" y="1198.0" type="qcurve" smooth="yes"/>
      <point x="500.0" y="1072.0"/>
      <point x="382.0" y="829.0"/>
      <point x="382.0" y="732.0" type="qcurve" smooth="yes"/>
      <point x="382.0" y="657.0"/>
      <point x="506.0" y="605.0"/>
      <point x="551.0" y="602.0" type="qcurve" smooth="yes"/>
      <point x="714.0" y="592.0" type="line"/>
      <point x="714.0" y="478.0" type="line"/>
      <point x="405.0" y="471.0" type="line"/>
      <point x="388.0" y="388.0" type="line"/>
      <point x="388.0" y="255.0"/>
      <point x="594.0" y="-50.0"/>
      <point x="594.0" y="-170.0" type="qcurve" smooth="yes"/>
      <point x="594.0" y="-329.0"/>
      <point x="416.0" y="-495.0"/>
      <point x="276.0" y="-495.0" type="qcurve" smooth="yes"/>
      <point x="224.0" y="-495.0"/>
      <point x="73.0" y="-486.0"/>
    </contour>
  </outline>
</glyph>
<glyph name="asciitilde" format="2">
	<unicode hex="007E"/>
	<advance width="1374"/>
	<outline>
		<contour>
			<point x="156" y="590" type="line"/>
			<point x="215" y="669"/>
			<point x="354" y="790"/>
			<point x="436" y="791" type="qcurve"/>
			<point x="976" y="682" type="line"/>
			<point x="1029" y="687"/>
			<point x="1113" y="744"/>
			<point x="1154" y="822" type="qcurve"/>
			<point x="1229" y="775" type="line"/>
			<point x="1182" y="676"/>
			<point x="1043" y="566"/>
			<point x="947" y="565" type="qcurve"/>
			<point x="415" y="672" type="line"/>
			<point x="357" y="659"/>
			<point x="261" y="591"/>
			<point x="211" y="526" type="qcurve"/>
		</contour>
	</outline>
</glyph>
<glyph name="exclamdown" format="2">
  <advance width="598"/>
  <unicode hex="00A1"/>
  <outline>
    <contour>
      <point x="418.0" y="1248.0" type="qcurve" smooth="yes"/>
      <point x="418.0" y="1202.0"/>
      <point x="351.0" y="1134.0"/>
      <point x="299.0" y="1134.0" type="qcurve" smooth="yes"/>
      <point x="247.0" y="1134.0"/>
      <point x="180.0" y="1202.0"/>
      <point x="180.0" y="1248.0" type="qcurve" smooth="yes"/>
      <point x="180.0" y="1292.0"/>
      <point x="247.0" y="1360.0"/>
      <point x="299.0" y="1360.0" type="qcurve" smooth="yes"/>
      <point x="351.0" y="1360.0"/>
      <point x="418.0" y="1292.0"/>
    </contour>
    <contour>
      <point x="390.0" y="-62.0" type="line" smooth="yes"/>
      <point x="397.0" y="-130.0"/>
      <point x="327.0" y="-198.0"/>
      <point x="296.0" y="-198.0" type="qcurve" smooth="yes"/>
      <point x="265.0" y="-198.0"/>
      <point x="197.0" y="-132.0"/>
      <point x="204.0" y="-63.0" type="qcurve" smooth="yes"/>
      <point x="233.0" y="214.0" type="line"/>
      <point x="255.0" y="582.0" type="line"/>
      <point x="269.0" y="877.0" type="line"/>
      <point x="327.0" y="877.0" type="line"/>
      <point x="341.0" y="582.0" type="line"/>
      <point x="361.0" y="214.0" type="line"/>
    </contour>
  </outline>
</glyph>
<glyph name="cent" format="2">
  <advance width="1522"/>
  <unicode hex="00A2"/>
  <outline>
    <contour>
      <point x="124" y="536" type="qcurve" smooth="yes"/>
      <point x="124" y="796"/>
      <point x="525.0" y="1092.0"/>
      <point x="768.0" y="1092.0" type="qcurve" smooth="yes"/>
      <point x="963.0" y="1092.0"/>
      <point x="1186.0" y="1035.0"/>
      <point x="1241.0" y="1001.0" type="qcurve"/>
      <point x="1288.0" y="1080.0" type="line"/>
      <point x="1373.0" y="1080.0" type="line"/>
      <point x="1393.0" y="714.0" type="line"/>
      <point x="1304.0" y="697.0" type="line"/>
      <point x="1254.0" y="862.0" type="line" smooth="yes"/>
      <point x="1234" y="929"/>
      <point x="1010.0" y="985.0"/>
      <point x="818.0" y="985.0" type="qcurve" smooth="yes"/>
      <point x="572.0" y="985.0"/>
      <point x="240.0" y="732.0"/>
      <point x="241.0" y="523.0" type="qcurve" smooth="yes"/>
      <point x="242" y="319"/>
      <point x="541" y="103"/>
      <point x="800" y="103.0" type="qcurve" smooth="yes"/>
      <point x="973" y="103.0"/>
      <point x="1319.0" y="194.0"/>
      <point x="1422.0" y="287.0" type="qcurve"/>
      <point x="1473.0" y="209.0" type="line"/>
      <point x="1371.0" y="113.0"/>
      <point x="1017" y="-10"/>
      <point x="795" y="-10" type="qcurve" smooth="yes"/>
      <point x="489" y="-10"/>
      <point x="124" y="259"/>
    </contour>
    <contour>
      <point x="743.0" y="-190.0" type="line"/>
      <point x="743.0" y="12.0" type="line"/>
      <point x="743.0" y="12.0" type="line"/>
      <point x="743.0" y="510.0" type="line"/>
      <point x="825.0" y="488.0" type="line"/>
      <point x="825.0" y="12.0" type="line"/>
      <point x="825.0" y="12.0" type="line"/>
      <point x="825.0" y="-160.0" type="line"/>
    </contour>
    <contour>
      <point x="743.0" y="1249.0" type="line"/>
      <point x="825.0" y="1259.0" type="line"/>
      <point x="825.0" y="1048.0" type="line"/>
      <point x="825.0" y="1048.0" type="line"/>
      <point x="825.0" y="488.0" type="line"/>
      <point x="743.0" y="510.0" type="line"/>
      <point x="743.0" y="1048.0" type="line"/>
      <point x="743.0" y="1048.0" type="line"/>
    </contour>
  </outline>
</glyph>
<glyph name="sterling" format="2">
  <advance width="1276"/>
  <unicode hex="00A3"/>
  <outline>
    <contour>
      <point x="657.0" y="477" type="qcurve" smooth="yes"/>
      <point x="657" y="342"/>
      <point x="533.0" y="186"/>
      <point x="434.0" y="130" type="qcurve"/>
      <point x="440.0" y="121.0" type="line"/>
      <point x="1077.0" y="118.0" type="line"/>
      <point x="1195.0" y="313.0" type="line"/>
      <point x="1261.0" y="313.0" type="line"/>
      <point x="1148.0" y="0.0" type="line"/>
      <point x="69.0" y="0.0" type="line"/>
      <point x="37.0" y="50.0" type="line"/>
      <point x="129.0" y="123.0" type="line"/>
      <point x="347.0" y="117.0"/>
      <point x="537" y="327"/>
      <point x="537.0" y="454" type="qcurve" smooth="yes"/>
      <point x="537.0" y="566"/>
      <point x="441" y="710"/>
      <point x="360" y="791" type="qcurve" smooth="yes"/>
      <point x="279" y="872"/>
      <point x="168.0" y="1036"/>
      <point x="168.0" y="1176" type="qcurve" smooth="yes"/>
      <point x="168" y="1320"/>
      <point x="406" y="1521.0"/>
      <point x="608" y="1521.0" type="qcurve" smooth="yes"/>
      <point x="767" y="1521"/>
      <point x="1014.0" y="1429.0"/>
      <point x="1098.0" y="1364.0" type="qcurve"/>
      <point x="1029.0" y="1262.0" type="line"/>
      <point x="967.0" y="1310.0"/>
      <point x="751.0" y="1400.0"/>
      <point x="604.0" y="1400.0" type="qcurve" smooth="yes"/>
      <point x="439.0" y="1400.0"/>
      <point x="299" y="1256"/>
      <point x="299.0" y="1158.0" type="qcurve" smooth="yes"/>
      <point x="299.0" y="1068"/>
      <point x="373" y="924"/>
      <point x="455" y="841" type="qcurve" smooth="yes"/>
      <point x="537" y="758"/>
      <point x="657.0" y="593"/>
    </contour>
    <contour>
      <point x="203.0" y="615.0" type="line"/>
      <point x="182.0" y="707.0" type="line"/>
      <point x="1066.0" y="707.0" type="line"/>
      <point x="1040.0" y="615.0" type="line"/>
    </contour>
  </outline>
</glyph>
<glyph name="currency" format="2">
  <advance width="1543"/>
  <unicode hex="00A4"/>
  <outline>
    <contour>
      <point x="272.0" y="731" type="qcurve" smooth="yes"/>
      <point x="272.0" y="935"/>
      <point x="542.0" y="1215"/>
      <point x="760.0" y="1215" type="qcurve" smooth="yes"/>
      <point x="978.0" y="1215"/>
      <point x="1253.0" y="948"/>
      <point x="1253.0" y="731" type="qcurve" smooth="yes"/>
      <point x="1253.0" y="530"/>
      <point x="979.0" y="237"/>
      <point x="759.0" y="237" type="qcurve" smooth="yes"/>
      <point x="541.0" y="237"/>
      <point x="272.0" y="514"/>
    </contour>
    <contour>
      <point x="372.0" y="730" type="qcurve" smooth="yes"/>
      <point x="372.0" y="557"/>
      <point x="594.0" y="332"/>
      <point x="762.0" y="332" type="qcurve" smooth="yes"/>
      <point x="942.0" y="332"/>
      <point x="1150.0" y="551"/>
      <point x="1150.0" y="729" type="qcurve" smooth="yes"/>
      <point x="1150.0" y="896"/>
      <point x="929.0" y="1113"/>
      <point x="761.0" y="1113" type="qcurve" smooth="yes"/>
      <point x="580.0" y="1113"/>
      <point x="371.0" y="898"/>
    </contour>
    <contour>
      <point x="460" y="1056" type="line"/>
      <point x="250.0" y="1251.0" type="line"/>
      <point x="324.0" y="1325.0" type="line"/>
      <point x="529" y="1118" type="line"/>
    </contour>
    <contour>
      <point x="1073" y="1041" type="line"/>
      <point x="1006" y="1100" type="line"/>
      <point x="1221.0" y="1324.0" type="line"/>
      <point x="1292.0" y="1252.0" type="line"/>
    </contour>
    <contour>
      <point x="462" y="385" type="line"/>
      <point x="540" y="325" type="line"/>
      <point x="332.0" y="90.0" type="line"/>
      <point x="252.0" y="161.0" type="line"/>
    </contour>
    <contour>
      <point x="1061" y="393" type="line"/>
      <point x="1294.0" y="162.0" type="line"/>
      <point x="1219.0" y="89.0" type="line"/>
      <point x="992" y="330" type="line"/>
    </contour>
  </outline>
</glyph>
<glyph name="yen" format="2">
	<unicode hex="00A5"/>
	<advance width="1694"/>
	<outline>
		<contour>
			<point x="334" y="597" type="line"/>
			<point x="319" y="689" type="line"/>
			<point x="1410" y="689" type="line"/>
			<point x="1394" y="597" type="line"/>
		</contour>
		<contour>
			<point x="811" y="538" type="line"/>
			<point x="526" y="936" type="line"/>
			<point x="219" y="1378" type="line"/>
			<point x="-25" y="1407" type="line"/>
			<point x="-25" y="1500" type="line"/>
			<point x="629" y="1500" type="line"/>
			<point x="629" y="1412" type="line"/>
			<point x="350" y="1383" type="line"/>
			<point x="621" y="991" type="line"/>
			<point x="871" y="643" type="line"/>
			<point x="1127" y="1018" type="line"/>
			<point x="1374" y="1378" type="line"/>
			<point x="1139" y="1412" type="line"/>
			<point x="1139" y="1500" type="line"/>
			<point x="1737" y="1500" type="line"/>
			<point x="1737" y="1407" type="line"/>
			<point x="1498" y="1378" type="line"/>
			<point x="1205" y="966" type="line"/>
			<point x="913" y="543" type="line"/>
			<point x="913" y="115" type="line"/>
			<point x="1166" y="87" type="line"/>
			<point x="1166" y="0" type="line"/>
			<point x="552" y="0" type="line"/>
			<point x="552" y="87" type="line"/>
			<point x="809" y="115" type="line"/>
		</contour>
		<contour>
			<point x="374" y="321" type="line"/>
			<point x="359" y="413" type="line"/>
			<point x="1370" y="413" type="line"/>
			<point x="1354" y="321" type="line"/>
		</contour>
	</outline>
</glyph>
<glyph name="brokenbar" format="2">
  <advance width="588"/>
  <unicode hex="00A6"/>
  <outline>
    <contour>
      <point x="256.0" y="693.0" type="line"/>
      <point x="250.0" y="881.0" type="line"/>
      <point x="248.0" y="1189.0" type="line"/>
      <point x="254.0" y="1554.0" type="line"/>
      <point x="335.0" y="1536.0" type="line"/>
      <point x="340.0" y="1188.0" type="line"/>
      <point x="337.0" y="881.0" type="line"/>
      <point x="335.0" y="680.0" type="line"/>
    </contour>
    <contour>
      <point x="258.0" y="-465.0" type="line"/>
      <point x="255.0" y="-47.0" type="line"/>
      <point x="250.0" y="211.0" type="line"/>
      <point x="250.0" y="423.0" type="line"/>
      <point x="340.0" y="403.0" type="line"/>
      <point x="336.0" y="211.0" type="line"/>
      <point x="340.0" y="-47.0" type="line"/>
      <point x="343.0" y="-521.0" type="line"/>
    </contour>
  </outline>
</glyph>
<glyph name="section" format="2">
	<unicode hex="00A7"/>
	<advance width="1464"/>
	<outline>
		<contour>
			<point x="1341" y="107" type="qcurve" smooth="yes"/>
			<point x="1341" y="-65"/>
			<point x="1018" y="-253"/>
			<point x="794" y="-253" type="qcurve" smooth="yes"/>
			<point x="621" y="-253"/>
			<point x="342" y="-180"/>
			<point x="272" y="-128" type="qcurve"/>
			<point x="223" y="-235" type="line"/>
			<point x="162" y="-235" type="line"/>
			<point x="162" y="216" type="line"/>
			<point x="247" y="216" type="line"/>
			<point x="275" y="87" type="line" smooth="yes"/>
			<point x="305" y="-38"/>
			<point x="606" y="-164"/>
			<point x="774" y="-164" type="qcurve" smooth="yes"/>
			<point x="932" y="-164"/>
			<point x="1217" y="-52"/>
			<point x="1218" y="85" type="qcurve" smooth="yes"/>
			<point x="1219" y="199"/>
			<point x="942" y="340"/>
			<point x="677" y="419" type="qcurve" smooth="yes"/>
			<point x="460" y="484"/>
			<point x="185" y="642"/>
			<point x="185" y="769" type="qcurve" smooth="yes"/>
			<point x="185" y="868"/>
			<point x="314" y="981"/>
			<point x="438" y="1014" type="qcurve"/>
			<point x="364" y="1032"/>
			<point x="238" y="1143"/>
			<point x="238" y="1249" type="qcurve" smooth="yes"/>
			<point x="238" y="1379"/>
			<point x="505" y="1512"/>
			<point x="715" y="1512" type="qcurve" smooth="yes"/>
			<point x="815" y="1512"/>
			<point x="1041" y="1474"/>
			<point x="1099" y="1439" type="qcurve"/>
			<point x="1121" y="1480" type="line"/>
			<point x="1176" y="1480" type="line"/>
			<point x="1176" y="1156" type="line"/>
			<point x="1091" y="1156" type="line"/>
			<point x="1063" y="1299" type="line" smooth="yes"/>
			<point x="1047" y="1364"/>
			<point x="843" y="1419"/>
			<point x="723" y="1419" type="qcurve" smooth="yes"/>
			<point x="565" y="1419"/>
			<point x="377" y="1340"/>
			<point x="377" y="1250" type="qcurve" smooth="yes"/>
			<point x="377" y="1171"/>
			<point x="570" y="1075"/>
			<point x="801" y="1026" type="qcurve" smooth="yes"/>
			<point x="1007" y="984"/>
			<point x="1278" y="829"/>
			<point x="1278" y="696" type="qcurve" smooth="yes"/>
			<point x="1278" y="592"/>
			<point x="1076" y="452"/>
			<point x="923" y="442" type="qcurve"/>
			<point x="1101" y="390"/>
			<point x="1341" y="239"/>
		</contour>
		<contour>
			<point x="324" y="782" type="qcurve" smooth="yes"/>
			<point x="324" y="695"/>
			<point x="531" y="574"/>
			<point x="797" y="490" type="qcurve"/>
			<point x="916" y="491"/>
			<point x="1156" y="593"/>
			<point x="1156" y="693" type="qcurve" smooth="yes"/>
			<point x="1156" y="794"/>
			<point x="930" y="889"/>
			<point x="751" y="934" type="qcurve" smooth="yes"/>
			<point x="652" y="959"/>
			<point x="572" y="975"/>
			<point x="545" y="982" type="qcurve"/>
			<point x="442" y="954"/>
			<point x="324" y="869"/>
		</contour>
	</outline>
</glyph>
<glyph name="dieresis" format="2">
  <advance width="1024"/>
  <unicode hex="00A8"/>
  <outline>
    <contour>
      <point x="622" y="1197.0" type="qcurve" smooth="yes"/>
      <point x="622" y="1245"/>
      <point x="672" y="1299"/>
      <point x="722" y="1299" type="qcurve" smooth="yes"/>
      <point x="770" y="1299"/>
      <point x="825" y="1242"/>
      <point x="825" y="1197.0" type="qcurve" smooth="yes"/>
      <point x="825" y="1148"/>
      <point x="774" y="1095"/>
      <point x="722" y="1095" type="qcurve" smooth="yes"/>
      <point x="676" y="1095"/>
      <point x="622" y="1149"/>
    </contour>
    <contour>
      <point x="199" y="1197.0" type="qcurve" smooth="yes"/>
      <point x="199" y="1245"/>
      <point x="252" y="1299"/>
      <point x="302" y="1299" type="qcurve" smooth="yes"/>
      <point x="348" y="1299"/>
      <point x="402" y="1242"/>
      <point x="402" y="1197.0" type="qcurve" smooth="yes"/>
      <point x="402" y="1148"/>
      <point x="353" y="1095"/>
      <point x="302" y="1095" type="qcurve" smooth="yes"/>
      <point x="254" y="1095"/>
      <point x="199" y="1149"/>
    </contour>
  </outline>
</glyph>
<glyph name="copyright" format="2">
  <advance width="2271"/>
  <unicode hex="00A9"/>
  <outline>
    <contour>
      <point x="593.0" y="616.0" type="qcurve" smooth="yes"/>
      <point x="593.0" y="849.0"/>
      <point x="935.0" y="1151.0"/>
      <point x="1173.0" y="1151.0" type="qcurve" smooth="yes"/>
      <point x="1276.0" y="1151.0"/>
      <point x="1412.0" y="1110.0"/>
      <point x="1458.0" y="1073.0" type="qcurve"/>
      <point x="1477.0" y="1144.0" type="line"/>
      <point x="1545.0" y="1134.0" type="line"/>
      <point x="1557.0" y="818.0" type="line"/>
      <point x="1477.0" y="811.0" type="line"/>
      <point x="1450.0" y="882.0" type="line"/>
      <point x="1425.0" y="967.0"/>
      <point x="1278.0" y="1041.0"/>
      <point x="1176.0" y="1041.0" type="qcurve" smooth="yes"/>
      <point x="980.0" y="1041.0"/>
      <point x="720.0" y="810.0"/>
      <point x="721.0" y="615.0" type="qcurve" smooth="yes"/>
      <point x="721.0" y="438.0"/>
      <point x="961.0" y="233.0"/>
      <point x="1202.0" y="233.0" type="qcurve" smooth="yes"/>
      <point x="1313.0" y="233.0"/>
      <point x="1499.0" y="307.0"/>
      <point x="1558.0" y="377.0" type="qcurve"/>
      <point x="1614.0" y="316.0" type="line"/>
      <point x="1552.0" y="224.0"/>
      <point x="1314.0" y="109.0"/>
      <point x="1136.0" y="109.0" type="qcurve" smooth="yes"/>
      <point x="946.0" y="109.0"/>
      <point x="593.0" y="360.0"/>
    </contour>
    <contour>
      <point x="92.0" y="676.0" type="qcurve" smooth="yes"/>
      <point x="92.0" y="1064.0"/>
      <point x="667.0" y="1599.0"/>
      <point x="1128.0" y="1599.0" type="qcurve" smooth="yes"/>
      <point x="1587.0" y="1599.0"/>
      <point x="2179.0" y="1090.0"/>
      <point x="2179.0" y="697.0" type="qcurve" smooth="yes"/>
      <point x="2179.0" y="266.0"/>
      <point x="1605.0" y="-271.0"/>
      <point x="1152.0" y="-271.0" type="qcurve" smooth="yes"/>
      <point x="685.0" y="-271.0"/>
      <point x="92.0" y="254.0"/>
    </contour>
    <contour>
      <point x="206.0" y="673.0" type="qcurve" smooth="yes"/>
      <point x="206.0" y="282.0"/>
      <point x="737.0" y="-176.0"/>
      <point x="1144.0" y="-176.0" type="qcurve" smooth="yes"/>
      <point x="1540.0" y="-176.0"/>
      <point x="2065.0" y="291.0"/>
      <point x="2065.0" y="691.0" type="qcurve" smooth="yes"/>
      <point x="2065.0" y="1041.0"/>
      <point x="1559.0" y="1504.0"/>
      <point x="1144.0" y="1504.0" type="qcurve" smooth="yes"/>
      <point x="750.0" y="1504.0"/>
      <point x="206.0" y="1031.0"/>
    </contour>
  </outline>
</glyph>
<glyph name="ordfeminine" format="2">
  <advance width="1427"/>
  <unicode hex="00AA"/>
  <outline>
    <contour>
      <point x="205.0" y="824.0" type="qcurve" smooth="yes"/>
      <point x="205.0" y="960.0"/>
      <point x="590.0" y="1123.0"/>
      <point x="1055.0" y="1170.0" type="qcurve"/>
      <point x="1054.0" y="1101.0" type="line"/>
      <point x="723.0" y="1071.0"/>
      <point x="339.0" y="912.0"/>
      <point x="341.0" y="841.0" type="qcurve" smooth="yes"/>
      <point x="343.0" y="761.0"/>
      <point x="457" y="689"/>
      <point x="593" y="689.0" type="qcurve" smooth="yes"/>
      <point x="737.0" y="689.0"/>
      <point x="969.0" y="769.0"/>
      <point x="1027.0" y="816.0" type="qcurve"/>
      <point x="1021.0" y="1165.0" type="line" smooth="yes"/>
      <point x="1019" y="1281"/>
      <point x="857" y="1424.0"/>
      <point x="680.0" y="1424.0" type="qcurve" smooth="yes"/>
      <point x="566" y="1424"/>
      <point x="439.0" y="1398.0"/>
      <point x="418.0" y="1370.0" type="qcurve"/>
      <point x="428.0" y="1360.0"/>
      <point x="434" y="1326"/>
      <point x="434.0" y="1301.0" type="qcurve" smooth="yes"/>
      <point x="434.0" y="1261"/>
      <point x="391" y="1230"/>
      <point x="345.0" y="1230.0" type="qcurve" smooth="yes"/>
      <point x="300" y="1230"/>
      <point x="259.0" y="1279.0"/>
      <point x="259.0" y="1330.0" type="qcurve" smooth="yes"/>
      <point x="259.0" y="1409.0"/>
      <point x="469" y="1528"/>
      <point x="690.0" y="1528.0" type="qcurve" smooth="yes"/>
      <point x="921" y="1528.0"/>
      <point x="1124" y="1336"/>
      <point x="1125.0" y="1165.0" type="qcurve" smooth="yes"/>
      <point x="1128.0" y="721.0" type="line"/>
      <point x="1331.0" y="696.0" type="line"/>
      <point x="1331.0" y="612.0" type="line"/>
      <point x="1062.0" y="612.0" type="line"/>
      <point x="1030.0" y="632.0" type="line"/>
      <point x="1026.0" y="740.0" type="line"/>
      <point x="966.0" y="679.0"/>
      <point x="730" y="599"/>
      <point x="570" y="599.0" type="qcurve" smooth="yes"/>
      <point x="400" y="599.0"/>
      <point x="205.0" y="698.0"/>
    </contour>
  </outline>
</glyph>
<glyph name="guillemetleft" format="2">
  <advance width="1676"/>
  <unicode hex="00AB"/>
  <outline>
    <contour>
      <point x="96.0" y="626.0" type="line"/>
      <point x="132" y="651.0"/>
      <point x="629" y="1000"/>
      <point x="705.0" y="1044.0" type="qcurve" smooth="yes"/>
      <point x="770" y="1082"/>
      <point x="821.0" y="990.0"/>
      <point x="760.0" y="948.0" type="qcurve" smooth="yes"/>
      <point x="641.0" y="867.0"/>
      <point x="283.0" y="612.0"/>
      <point x="257.0" y="597.0" type="qcurve"/>
      <point x="283.0" y="583.0"/>
      <point x="703.0" y="299.0"/>
      <point x="781.0" y="241.0" type="qcurve" smooth="yes"/>
      <point x="826" y="208"/>
      <point x="776.0" y="111.0"/>
      <point x="730.0" y="144.0" type="qcurve" smooth="yes"/>
      <point x="669.0" y="185.0"/>
      <point x="162.0" y="525.0"/>
      <point x="96.0" y="575.0" type="qcurve"/>
    </contour>
    <contour>
      <point x="756.0" y="626.0" type="line"/>
      <point x="792" y="651.0"/>
      <point x="1289" y="1000"/>
      <point x="1365.0" y="1044.0" type="qcurve" smooth="yes"/>
      <point x="1430" y="1082"/>
      <point x="1481.0" y="990.0"/>
      <point x="1420.0" y="948.0" type="qcurve" smooth="yes"/>
      <point x="1301.0" y="867.0"/>
      <point x="943.0" y="612.0"/>
      <point x="917.0" y="597.0" type="qcurve"/>
      <point x="943.0" y="583.0"/>
      <point x="1363.0" y="299.0"/>
      <point x="1441.0" y="241.0" type="qcurve" smooth="yes"/>
      <point x="1486" y="208"/>
      <point x="1436.0" y="111.0"/>
      <point x="1390.0" y="144.0" type="qcurve" smooth="yes"/>
      <point x="1329.0" y="185.0"/>
      <point x="822.0" y="525.0"/>
      <point x="756.0" y="575.0" type="qcurve"/>
    </contour>
  </outline>
</glyph>
<glyph name="logicalnot" format="2">
  <advance width="1200"/>
  <unicode hex="00AC"/>
  <outline>
    <contour>
      <point x="129.0" y="793.0" type="line"/>
      <point x="1061.0" y="793.0" type="line"/>
      <point x="1061.0" y="296.0" type="line"/>
      <point x="977.0" y="296.0" type="line"/>
      <point x="977.0" y="711.0" type="line"/>
      <point x="129.0" y="711.0" type="line"/>
    </contour>
  </outline>
</glyph>
<glyph name="registered" format="2">
  <advance width="2271"/>
  <unicode hex="00AE"/>
  <outline>
    <contour>
      <point x="92.0" y="673.0" type="qcurve" smooth="yes"/>
      <point x="92.0" y="1062.0"/>
      <point x="667.0" y="1598.0"/>
      <point x="1128.0" y="1598.0" type="qcurve" smooth="yes"/>
      <point x="1586.0" y="1598.0"/>
      <point x="2179.0" y="1088.0"/>
      <point x="2179.0" y="694.0" type="qcurve" smooth="yes"/>
      <point x="2179.0" y="262.0"/>
      <point x="1605.0" y="-276.0"/>
      <point x="1152.0" y="-276.0" type="qcurve" smooth="yes"/>
      <point x="685.0" y="-276.0"/>
      <point x="92.0" y="250.0"/>
    </contour>
    <contour>
      <point x="164" y="671" type="qcurve" smooth="yes"/>
      <point x="164" y="267"/>
      <point x="719" y="-207"/>
      <point x="1144" y="-207" type="qcurve" smooth="yes"/>
      <point x="1558" y="-207"/>
      <point x="2107" y="276"/>
      <point x="2107" y="690" type="qcurve" smooth="yes"/>
      <point x="2107" y="1052"/>
      <point x="1578" y="1531"/>
      <point x="1144" y="1531" type="qcurve" smooth="yes"/>
      <point x="732" y="1531"/>
      <point x="164" y="1042"/>
    </contour>
    <contour>
      <point x="734.0" y="176.0" type="line"/>
      <point x="734.0" y="246.0" type="line"/>
      <point x="851.0" y="270.0" type="line"/>
      <point x="853.0" y="723.0" type="line"/>
      <point x="851.0" y="1113.0" type="line"/>
      <point x="724.0" y="1136.0" type="line"/>
      <point x="724.0" y="1209.0" type="line"/>
      <point x="1197.0" y="1209.0" type="line" smooth="yes"/>
      <point x="1355" y="1209"/>
      <point x="1508.0" y="1062.0"/>
      <point x="1508.0" y="948.0" type="qcurve" smooth="yes"/>
      <point x="1508.0" y="821.0"/>
      <point x="1331.0" y="654.0"/>
      <point x="1205.0" y="654.0" type="qcurve" smooth="yes"/>
      <point x="1154.0" y="654.0"/>
      <point x="944.0" y="658.0"/>
      <point x="920.0" y="658.0" type="qcurve"/>
      <point x="920.0" y="743.0" type="line"/>
      <point x="1179.0" y="743.0" type="line" smooth="yes"/>
      <point x="1281" y="743"/>
      <point x="1400.0" y="838.0"/>
      <point x="1400.0" y="929.0" type="qcurve" smooth="yes"/>
      <point x="1400.0" y="1006.0"/>
      <point x="1311" y="1111"/>
      <point x="1175.0" y="1118.0" type="qcurve" smooth="yes"/>
      <point x="988.0" y="1118.0" type="line"/>
      <point x="967.0" y="1105.0" type="line"/>
      <point x="963.0" y="723.0" type="line"/>
      <point x="965.0" y="270.0" type="line"/>
      <point x="1107.0" y="246.0" type="line"/>
      <point x="1107.0" y="176.0" type="line"/>
    </contour>
    <contour>
      <point x="1181.0" y="672.0" type="line"/>
      <point x="1299.0" y="688.0" type="line"/>
      <point x="1493.0" y="381.0" type="line" smooth="yes"/>
      <point x="1559.0" y="277.0"/>
      <point x="1635.0" y="246.0"/>
      <point x="1677.0" y="246.0" type="qcurve"/>
      <point x="1677.0" y="176.0" type="line"/>
      <point x="1559.0" y="176.0" type="line"/>
      <point x="1497.0" y="182.0" type="line"/>
    </contour>
  </outline>
</glyph>
<glyph name="degree" format="2">
  <advance width="939"/>
  <unicode hex="00B0"/>
  <outline>
    <contour>
      <point x="110.0" y="1193.0" type="qcurve" smooth="yes"/>
      <point x="110.0" y="1340.0"/>
      <point x="313.0" y="1556.0"/>
      <point x="470.0" y="1556.0" type="qcurve" smooth="yes"/>
      <point x="626.0" y="1556.0"/>
      <point x="829.0" y="1340.0"/>
      <point x="829.0" y="1193.0" type="qcurve" smooth="yes"/>
      <point x="829.0" y="1049.0"/>
      <point x="626.0" y="832.0"/>
      <point x="470.0" y="832.0" type="qcurve" smooth="yes"/>
      <point x="313.0" y="832.0"/>
      <point x="110.0" y="1049.0"/>
    </contour>
    <contour>
      <point x="223.0" y="1193.0" type="qcurve" smooth="yes"/>
      <point x="223.0" y="1091.0"/>
      <point x="362.0" y="937.0"/>
      <point x="470.0" y="937.0" type="qcurve" smooth="yes"/>
      <point x="580.0" y="937.0"/>
      <point x="717.0" y="1091.0"/>
      <point x="717.0" y="1193.0" type="qcurve" smooth="yes"/>
      <point x="717.0" y="1299.0"/>
      <point x="580.0" y="1451.0"/>
      <point x="470.0" y="1451.0" type="qcurve" smooth="yes"/>
      <point x="362.0" y="1451.0"/>
      <point x="223.0" y="1299.0"/>
    </contour>
  </outline>
</glyph>
<glyph name="plusminus" format="2">
  <advance width="1200"/>
  <unicode hex="00B1"/>
  <outline>
    <contour>
      <point x="114.0" y="651.0" type="line"/>
      <point x="114.0" y="753.0" type="line"/>
      <point x="1087.0" y="753.0" type="line"/>
      <point x="1087.0" y="651.0" type="line"/>
    </contour>
    <contour>
      <point x="546.0" y="228.0" type="line"/>
      <point x="546.0" y="1158.0" type="line"/>
      <point x="645.0" y="1158.0" type="line"/>
      <point x="645.0" y="228.0" type="line"/>
    </contour>
    <contour>
      <point x="114.0" y="1.0" type="line"/>
      <point x="114.0" y="109.0" type="line"/>
      <point x="1087.0" y="109.0" type="line"/>
      <point x="1087.0" y="1.0" type="line"/>
    </contour>
  </outline>
</glyph>
<glyph name="twosuperior" format="2">
  <advance width="952"/>
  <unicode hex="00B2"/>
  <outline>
    <contour>
      <point x="105.0" y="620.0" type="line"/>
      <point x="107.0" y="666.0" type="line"/>
      <point x="109.0" y="821.0"/>
      <point x="301" y="1015"/>
      <point x="455" y="1085" type="qcurve" smooth="yes"/>
      <point x="605.0" y="1153.0"/>
      <point x="723.0" y="1235.0"/>
      <point x="723.0" y="1298.0" type="qcurve" smooth="yes"/>
      <point x="723" y="1361"/>
      <point x="609.0" y="1429.0"/>
      <point x="492" y="1429.0" type="qcurve" smooth="yes"/>
      <point x="370.0" y="1429.0"/>
      <point x="217.0" y="1347.0"/>
      <point x="169.0" y="1302.0" type="qcurve"/>
      <point x="117.0" y="1365.0" type="line"/>
      <point x="180.0" y="1431.0"/>
      <point x="368" y="1520"/>
      <point x="504" y="1520.0" type="qcurve" smooth="yes"/>
      <point x="651.0" y="1520.0"/>
      <point x="826.0" y="1413.0"/>
      <point x="826.0" y="1312.0" type="qcurve" smooth="yes"/>
      <point x="826.0" y="1216.0"/>
      <point x="659" y="1080"/>
      <point x="501" y="1009" type="qcurve" smooth="yes"/>
      <point x="343.0" y="938.0"/>
      <point x="213.0" y="794.0"/>
      <point x="208.0" y="727.0" type="qcurve"/>
      <point x="214.0" y="716.0" type="line"/>
      <point x="852.0" y="716.0" type="line"/>
      <point x="852.0" y="620.0" type="line"/>
    </contour>
  </outline>
</glyph>
<glyph name="threesuperior" format="2">
  <advance width="771"/>
  <unicode hex="00B3"/>
  <outline>
    <contour>
      <point x="45.0" y="713.0" type="qcurve"/>
      <point x="93.0" y="799.0" type="line"/>
      <point x="135.0" y="762.0"/>
      <point x="284.0" y="696.0"/>
      <point x="382" y="696.0" type="qcurve" smooth="yes"/>
      <point x="486.0" y="696.0"/>
      <point x="635.0" y="786"/>
      <point x="635.0" y="867.0" type="qcurve" smooth="yes"/>
      <point x="635.0" y="950"/>
      <point x="469" y="1042.0"/>
      <point x="314.0" y="1042.0" type="qcurve" smooth="yes"/>
      <point x="220.0" y="1042.0" type="line"/>
      <point x="199.0" y="1120.0" type="line"/>
      <point x="291.0" y="1124.0" type="line" smooth="yes"/>
      <point x="439" y="1130"/>
      <point x="608.0" y="1228.0"/>
      <point x="608.0" y="1304.0" type="qcurve" smooth="yes"/>
      <point x="608.0" y="1371.0"/>
      <point x="507" y="1430.0"/>
      <point x="411.0" y="1430.0" type="qcurve" smooth="yes"/>
      <point x="319" y="1430"/>
      <point x="180.0" y="1373.0"/>
      <point x="131.0" y="1332.0" type="qcurve"/>
      <point x="78.0" y="1410.0" type="line"/>
      <point x="144.0" y="1460.0"/>
      <point x="302.0" y="1520.0"/>
      <point x="427" y="1520.0" type="qcurve" smooth="yes"/>
      <point x="566.0" y="1520.0"/>
      <point x="712.0" y="1407"/>
      <point x="712.0" y="1313.0" type="qcurve" smooth="yes"/>
      <point x="712" y="1221"/>
      <point x="596.0" y="1117.0"/>
      <point x="476.0" y="1093.0" type="qcurve"/>
      <point x="476.0" y="1089.0" type="line"/>
      <point x="596.0" y="1081.0"/>
      <point x="742.0" y="965"/>
      <point x="742.0" y="874" type="qcurve" smooth="yes"/>
      <point x="742" y="751"/>
      <point x="541.0" y="607.0"/>
      <point x="385" y="607" type="qcurve" smooth="yes"/>
      <point x="267.0" y="607.0"/>
      <point x="100.0" y="667.0"/>
    </contour>
  </outline>
</glyph>
<glyph name="acute" format="2">
  <advance width="1024"/>
  <unicode hex="00B4"/>
  <outline>
    <contour>
      <point x="829.0" y="1414.0" type="qcurve" smooth="yes"/>
      <point x="829.0" y="1389.0"/>
      <point x="782.0" y="1351.0"/>
      <point x="764.0" y="1338.0" type="qcurve" smooth="yes"/>
      <point x="409.0" y="1078.0" type="line"/>
      <point x="369.0" y="1128.0" type="line"/>
      <point x="674.0" y="1426.0" type="line" smooth="yes"/>
      <point x="696" y="1447"/>
      <point x="735.0" y="1480.0"/>
      <point x="763.0" y="1480.0" type="qcurve" smooth="yes"/>
      <point x="793.0" y="1480.0"/>
      <point x="829.0" y="1438.0"/>
    </contour>
  </outline>
</glyph>
<glyph name="micro" format="2">
  <advance width="1841"/>
  <unicode hex="00B5"/>
  <outline>
    <contour>
      <point x="154.0" y="-337.0" type="line"/>
      <point x="177.0" y="-313.0" type="line"/>
      <point x="213.0" y="-171"/>
      <point x="337" y="267"/>
      <point x="364.0" y="375.0" type="qcurve" smooth="yes"/>
      <point x="499.0" y="919.0" type="line"/>
      <point x="249.0" y="931.0" type="line"/>
      <point x="249.0" y="1023.0" type="line"/>
      <point x="556.0" y="1046.0" type="line"/>
      <point x="606.0" y="1046.0" type="line"/>
      <point x="640.0" y="988.0" type="line"/>
      <point x="479.0" y="320.0" type="line" smooth="yes"/>
      <point x="458" y="231"/>
      <point x="579" y="77.0"/>
      <point x="745" y="77.0" type="qcurve" smooth="yes"/>
      <point x="913" y="77"/>
      <point x="1315.0" y="189.0"/>
      <point x="1426.0" y="289.0" type="qcurve"/>
      <point x="1573.0" y="893.0" type="line"/>
      <point x="1518.0" y="1024.0" type="line"/>
      <point x="1696.0" y="1051.0" type="line"/>
      <point x="1732.0" y="967.0" type="line"/>
      <point x="1563.0" y="336.0" type="line"/>
      <point x="1535.0" y="137.0" type="line"/>
      <point x="1817.0" y="141.0" type="line"/>
      <point x="1815.0" y="59.0" type="line"/>
      <point x="1489.0" y="-10.0" type="line"/>
      <point x="1413.0" y="63.0" type="line"/>
      <point x="1430.0" y="212.0" type="line"/>
      <point x="1333.0" y="124.0"/>
      <point x="918" y="-16"/>
      <point x="718" y="-16" type="qcurve" smooth="yes"/>
      <point x="585" y="-16"/>
      <point x="433.0" y="52.0"/>
      <point x="415.0" y="115.0" type="qcurve"/>
      <point x="317.0" y="-245.0" type="line"/>
      <point x="558.0" y="-249.0" type="line"/>
      <point x="555.0" y="-341.0" type="line"/>
      <point x="177.0" y="-379.0" type="line"/>
    </contour>
  </outline>
</glyph>
<glyph name="paragraph" format="2">
  <advance width="1460"/>
  <unicode hex="00B6"/>
  <outline>
    <contour>
      <point x="1367.0" y="97.0" type="line"/>
      <point x="1367.0" y="0.0" type="line"/>
      <point x="277.0" y="0.0" type="line"/>
      <point x="277.0" y="97.0" type="line"/>
      <point x="1042.0" y="124.0" type="line"/>
      <point x="1044.0" y="727.0" type="line"/>
      <point x="985.0" y="721.0"/>
      <point x="735.0" y="713.0"/>
      <point x="596.0" y="713.0" type="qcurve" smooth="yes"/>
      <point x="337.0" y="713.0"/>
      <point x="119.0" y="913.0"/>
      <point x="119.0" y="1064.0" type="qcurve" smooth="yes"/>
      <point x="119.0" y="1289.0"/>
      <point x="411.0" y="1500.0"/>
      <point x="613.0" y="1500.0" type="qcurve" smooth="yes"/>
      <point x="1350.0" y="1500.0" type="line"/>
      <point x="1350.0" y="1400.0" type="line"/>
      <point x="1159.0" y="1365.0" type="line"/>
      <point x="1157.0" y="694.0" type="line"/>
      <point x="1159.0" y="116.0" type="line"/>
    </contour>
    <contour>
      <point x="649.0" y="51.0" type="line"/>
      <point x="552.0" y="46.0" type="line"/>
      <point x="554.0" y="776.0" type="line"/>
      <point x="647.0" y="773.0" type="line"/>
    </contour>
  </outline>
</glyph>
<glyph name="periodcentered" format="2">
  <advance width="590"/>
  <unicode hex="00B7"/>
  <outline>
    <contour>
      <point x="174" y="731" type="qcurve" smooth="yes"/>
      <point x="174" y="775"/>
      <point x="241" y="846"/>
      <point x="295.0" y="846" type="qcurve" smooth="yes"/>
      <point x="348" y="846"/>
      <point x="415" y="775"/>
      <point x="415" y="731" type="qcurve" smooth="yes"/>
      <point x="415" y="687"/>
      <point x="347" y="617"/>
      <point x="295.0" y="617" type="qcurve" smooth="yes"/>
      <point x="243" y="617"/>
      <point x="174" y="687"/>
    </contour>
  </outline>
</glyph>
<glyph name="cedilla" format="2">
	<unicode hex="00B8"/>
	<advance width="1024"/>
	<outline>
		<contour>
			<point x="529" y="8" type="line"/>
			<point x="470" y="-129" type="line"/>
			<point x="499" y="-116"/>
			<point x="578" y="-96"/>
			<point x="629" y="-96" type="qcurve" smooth="yes"/>
			<point x="713" y="-96"/>
			<point x="827" y="-180"/>
			<point x="827" y="-263" type="qcurve" smooth="yes"/>
			<point x="827" y="-354"/>
			<point x="670" y="-473"/>
			<point x="534" y="-473" type="qcurve" smooth="yes"/>
			<point x="404" y="-473"/>
			<point x="214" y="-411"/>
			<point x="143" y="-362" type="qcurve"/>
			<point x="173" y="-288" type="line"/>
			<point x="235" y="-332"/>
			<point x="421" y="-389"/>
			<point x="523" y="-389" type="qcurve" smooth="yes"/>
			<point x="616" y="-389"/>
			<point x="712" y="-335"/>
			<point x="712" y="-277" type="qcurve" smooth="yes"/>
			<point x="712" y="-227"/>
			<point x="637" y="-180"/>
			<point x="576" y="-180" type="qcurve" smooth="yes"/>
			<point x="526" y="-180"/>
			<point x="443" y="-194"/>
			<point x="424" y="-202" type="qcurve"/>
			<point x="383" y="-160" type="line"/>
			<point x="459" y="14" type="line"/>
		</contour>
	</outline>
</glyph>
<glyph name="onesuperior" format="2">
  <advance width="823"/>
  <unicode hex="00B9"/>
  <outline>
    <contour>
      <point x="126.0" y="620.0" type="line"/>
      <point x="126.0" y="701.0" type="line"/>
      <point x="376.0" y="729.0" type="line"/>
      <point x="376.0" y="1109.0" type="line"/>
      <point x="374.0" y="1372.0" type="line"/>
      <point x="124.0" y="1383.0" type="line"/>
      <point x="124.0" y="1465.0" type="line"/>
      <point x="444.0" y="1509.0" type="line"/>
      <point x="477.0" y="1491.0" type="line"/>
      <point x="475.0" y="1109.0" type="line"/>
      <point x="475.0" y="729.0" type="line"/>
      <point x="727.0" y="701.0" type="line"/>
      <point x="727.0" y="620.0" type="line"/>
    </contour>
  </outline>
</glyph>
<glyph name="ordmasculine" format="2">
  <advance width="1452"/>
  <unicode hex="00BA"/>
  <outline>
    <contour>
      <point x="169.0" y="1069.0" type="qcurve" smooth="yes"/>
      <point x="169.0" y="1261.0"/>
      <point x="487.0" y="1527.0"/>
      <point x="724.0" y="1527.0" type="qcurve" smooth="yes"/>
      <point x="964.0" y="1527.0"/>
      <point x="1283.0" y="1274.0"/>
      <point x="1283.0" y="1075.0" type="qcurve" smooth="yes"/>
      <point x="1283.0" y="887.0"/>
      <point x="966.0" y="610.0"/>
      <point x="730.0" y="610.0" type="qcurve" smooth="yes"/>
      <point x="494.0" y="610.0"/>
      <point x="169.0" y="868.0"/>
    </contour>
    <contour>
      <point x="253.0" y="1087.0" type="qcurve" smooth="yes"/>
      <point x="256.0" y="928.0"/>
      <point x="506.0" y="725.0"/>
      <point x="726.0" y="725.0" type="qcurve" smooth="yes"/>
      <point x="960.0" y="725.0"/>
      <point x="1199.0" y="910.0"/>
      <point x="1199.0" y="1075.0" type="qcurve" smooth="yes"/>
      <point x="1199.0" y="1227.0"/>
      <point x="949.0" y="1413.0"/>
      <point x="728.0" y="1413.0" type="qcurve" smooth="yes"/>
      <point x="489.0" y="1413.0"/>
      <point x="253.0" y="1242.0"/>
    </contour>
  </outline>
</glyph>
<glyph name="guillemetright" format="2">
  <advance width="1676"/>
  <unicode hex="00BB"/>
  <outline>
    <contour>
      <point x="1581.0" y="567.0" type="line"/>
      <point x="1545.0" y="542.0"/>
      <point x="1048.0" y="193.0"/>
      <point x="972.0" y="149.0" type="qcurve" smooth="yes"/>
      <point x="907.0" y="111.0"/>
      <point x="856.0" y="203.0"/>
      <point x="917.0" y="245.0" type="qcurve" smooth="yes"/>
      <point x="1036.0" y="326.0"/>
      <point x="1394.0" y="581.0"/>
      <point x="1420.0" y="596.0" type="qcurve"/>
      <point x="1394.0" y="610.0"/>
      <point x="974.0" y="894.0"/>
      <point x="896.0" y="952.0" type="qcurve" smooth="yes"/>
      <point x="851.0" y="985.0"/>
      <point x="901.0" y="1082.0"/>
      <point x="947.0" y="1049.0" type="qcurve" smooth="yes"/>
      <point x="1008.0" y="1008.0"/>
      <point x="1515.0" y="668.0"/>
      <point x="1581.0" y="618.0" type="qcurve"/>
    </contour>
    <contour>
      <point x="920.0" y="567.0" type="line"/>
      <point x="884.0" y="542.0"/>
      <point x="387.0" y="193.0"/>
      <point x="311.0" y="149.0" type="qcurve" smooth="yes"/>
      <point x="246.0" y="111.0"/>
      <point x="195.0" y="203.0"/>
      <point x="256.0" y="245.0" type="qcurve" smooth="yes"/>
      <point x="375.0" y="326.0"/>
      <point x="733.0" y="581.0"/>
      <point x="759.0" y="596.0" type="qcurve"/>
      <point x="733.0" y="610.0"/>
      <point x="313.0" y="894.0"/>
      <point x="235.0" y="952.0" type="qcurve" smooth="yes"/>
      <point x="190.0" y="985.0"/>
      <point x="240.0" y="1082.0"/>
      <point x="286.0" y="1049.0" type="qcurve" smooth="yes"/>
      <point x="347.0" y="1008.0"/>
      <point x="854.0" y="668.0"/>
      <point x="920.0" y="618.0" type="qcurve"/>
    </contour>
  </outline>
</glyph>
<glyph name="questiondown" format="2">
	<unicode hex="00BF"/>
	<advance width="1242"/>
	<outline>
		<contour>
			<point x="940" y="1245" type="qcurve" smooth="yes"/>
			<point x="940" y="1199"/>
			<point x="876" y="1131"/>
			<point x="824" y="1131" type="qcurve" smooth="yes"/>
			<point x="773" y="1131"/>
			<point x="710" y="1199"/>
			<point x="710" y="1245" type="qcurve" smooth="yes"/>
			<point x="710" y="1289"/>
			<point x="773" y="1357"/>
			<point x="824" y="1357" type="qcurve" smooth="yes"/>
			<point x="876" y="1357"/>
			<point x="940" y="1289"/>
		</contour>
		<contour>
			<point x="1220" y="159" type="qcurve" smooth="yes"/>
			<point x="1220" y="-17"/>
			<point x="884" y="-182"/>
			<point x="643" y="-182" type="qcurve" smooth="yes"/>
			<point x="381" y="-182"/>
			<point x="32" y="-13"/>
			<point x="32" y="150" type="qcurve" smooth="yes"/>
			<point x="32" y="291"/>
			<point x="207" y="473"/>
			<point x="408" y="559" type="qcurve" smooth="yes"/>
			<point x="585" y="635"/>
			<point x="766" y="776"/>
			<point x="766" y="887" type="qcurve" smooth="yes"/>
			<point x="766" y="944" type="line"/>
			<point x="861" y="944" type="line"/>
			<point x="861" y="864" type="line" smooth="yes"/>
			<point x="861" y="720"/>
			<point x="674" y="551"/>
			<point x="492" y="471" type="qcurve" smooth="yes"/>
			<point x="325" y="398"/>
			<point x="162" y="261"/>
			<point x="162" y="150" type="qcurve" smooth="yes"/>
			<point x="162" y="44"/>
			<point x="420" y="-69"/>
			<point x="641" y="-69" type="qcurve" smooth="yes"/>
			<point x="857" y="-69"/>
			<point x="1102" y="12"/>
			<point x="1103" y="70" type="qcurve" smooth="yes"/>
			<point x="1103" y="96"/>
			<point x="994" y="176"/>
			<point x="994" y="219" type="qcurve" smooth="yes"/>
			<point x="995" y="255"/>
			<point x="1052" y="311"/>
			<point x="1097" y="311" type="qcurve" smooth="yes"/>
			<point x="1158" y="311"/>
			<point x="1220" y="233"/>
		</contour>
	</outline>
</glyph>
<glyph name="AE" format="2">
  <advance width="2873"/>
  <unicode hex="00C6"/>
  <outline>
    <contour>
      <point x="5.0" y="0.0" type="line"/>
      <point x="5.0" y="103.0" type="line"/>
      <point x="221.0" y="132.0" type="line"/>
      <point x="586.0" y="556.0" type="line"/>
      <point x="1271.0" y="1384.0" type="line"/>
      <point x="1013.0" y="1403.0" type="line"/>
      <point x="1013.0" y="1500.0" type="line"/>
      <point x="2699.0" y="1500.0" type="line"/>
      <point x="2699.0" y="1139.0" type="line"/>
      <point x="2607.0" y="1139.0" type="line"/>
      <point x="2550.0" y="1394.0" type="line"/>
      <point x="1599.0" y="1394.0" type="line"/>
      <point x="1562.0" y="1367.0" type="line"/>
      <point x="1560.0" y="784.0" type="line"/>
      <point x="1562.0" y="141.0" type="line"/>
      <point x="1578.0" y="104.0" type="line"/>
      <point x="2634.0" y="104.0" type="line"/>
      <point x="2733.0" y="411.0" type="line"/>
      <point x="2824.0" y="411.0" type="line"/>
      <point x="2781.0" y="0.0" type="line"/>
      <point x="1167.0" y="0.0" type="line"/>
      <point x="1167.0" y="98.0" type="line"/>
      <point x="1437.0" y="131.0" type="line"/>
      <point x="1439.0" y="783.0" type="line"/>
      <point x="1437.0" y="1365.0" type="line"/>
      <point x="1382.0" y="1367.0" type="line"/>
      <point x="680.0" y="514.0" type="line"/>
      <point x="358.0" y="134.0" type="line"/>
      <point x="550.0" y="103.0" type="line"/>
      <point x="550.0" y="0.0" type="line"/>
    </contour>
    <contour>
      <point x="644.0" y="528.0" type="line"/>
      <point x="700.0" y="625.0" type="line"/>
      <point x="1112.0" y="621.0" type="line"/>
      <point x="1112.0" y="528.0" type="line"/>
    </contour>
    <contour>
      <point x="1112.0" y="621.0" type="line"/>
      <point x="1486.0" y="626.0" type="line"/>
      <point x="1486.0" y="528.0" type="line"/>
      <point x="1112.0" y="528.0" type="line"/>
    </contour>
    <contour>
      <point x="1512.0" y="727.0" type="line"/>
      <point x="1509.0" y="836.0" type="line"/>
      <point x="2373.0" y="838.0" type="line"/>
      <point x="2413.0" y="1021.0" type="line"/>
      <point x="2498.0" y="1021.0" type="line"/>
      <point x="2498.0" y="547.0" type="line"/>
      <point x="2413.0" y="547.0" type="line"/>
      <point x="2373.0" y="731.0" type="line"/>
    </contour>
  </outline>
</glyph>
<glyph name="multiply" format="2">
  <advance width="1200"/>
  <unicode hex="00D7"/>
  <outline>
    <contour>
      <point x="222.0" y="196.0" type="line"/>
      <point x="151.0" y="267.0" type="line"/>
      <point x="978.0" y="1075.0" type="line"/>
      <point x="1049.0" y="1004.0" type="line"/>
    </contour>
    <contour>
      <point x="978.0" y="196.0" type="line"/>
      <point x="151.0" y="1004.0" type="line"/>
      <point x="228.0" y="1081.0" type="line"/>
      <point x="1055.0" y="273.0" type="line"/>
    </contour>
  </outline>
</glyph>
<glyph name="Thorn" format="2">
  <advance width="1746"/>
  <unicode hex="00DE"/>
  <outline>
    <contour>
      <point x="138.0" y="0.0" type="line"/>
      <point x="138.0" y="98.0" type="line"/>
      <point x="404.0" y="132.0" type="line"/>
      <point x="407.0" y="762.0" type="line"/>
      <point x="405.0" y="1375.0" type="line"/>
      <point x="136.0" y="1403.0" type="line"/>
      <point x="136.0" y="1500.0" type="line"/>
      <point x="795.0" y="1500.0" type="line"/>
      <point x="795.0" y="1394.0" type="line"/>
      <point x="528.0" y="1379.0" type="line"/>
      <point x="528.0" y="1220.0" type="line"/>
      <point x="1055.0" y="1220.0" type="line" smooth="yes"/>
      <point x="1324" y="1220"/>
      <point x="1613.0" y="1007.0"/>
      <point x="1613.0" y="796.0" type="qcurve" smooth="yes"/>
      <point x="1613.0" y="578.0"/>
      <point x="1290" y="306"/>
      <point x="961" y="306" type="qcurve" smooth="yes"/>
      <point x="813" y="306"/>
      <point x="564.0" y="331.0"/>
      <point x="488.0" y="344.0" type="qcurve"/>
      <point x="492.0" y="444.0" type="line"/>
      <point x="553.0" y="429.0"/>
      <point x="843.0" y="411.0"/>
      <point x="945.0" y="410.0" type="qcurve" smooth="yes"/>
      <point x="1215.0" y="411.0"/>
      <point x="1490.0" y="610.0"/>
      <point x="1490.0" y="799.0" type="qcurve" smooth="yes"/>
      <point x="1490.0" y="963.0"/>
      <point x="1239" y="1114"/>
      <point x="1015.0" y="1109.0" type="qcurve" smooth="yes"/>
      <point x="528.0" y="1109.0" type="line"/>
      <point x="524.0" y="754.0" type="line"/>
      <point x="533.0" y="133.0" type="line"/>
      <point x="820.0" y="98.0" type="line"/>
      <point x="820.0" y="0.0" type="line"/>
    </contour>
  </outline>
</glyph>
<glyph name="germandbls" format="2">
	<unicode hex="00DF"/>
	<advance width="1835"/>
	<outline>
		<contour>
			<point x="1328" y="1247" type="qcurve" smooth="yes"/>
			<point x="1328" y="1127"/>
			<point x="1152" y="1008"/>
			<point x="1000" y="964" type="qcurve" smooth="yes"/>
			<point x="870" y="926"/>
			<point x="789" y="865"/>
			<point x="789" y="817" type="qcurve" smooth="yes"/>
			<point x="789" y="740"/>
			<point x="1010" y="649"/>
			<point x="1278" y="601" type="qcurve" smooth="yes"/>
			<point x="1557" y="551"/>
			<point x="1803" y="406"/>
			<point x="1803" y="278" type="qcurve" smooth="yes"/>
			<point x="1803" y="151"/>
			<point x="1513" y="-28"/>
			<point x="1254" y="-28" type="qcurve" smooth="yes"/>
			<point x="1087" y="-28"/>
			<point x="806" y="41"/>
			<point x="740" y="87" type="qcurve"/>
			<point x="704" y="0" type="line"/>
			<point x="630" y="0" type="line"/>
			<point x="630" y="341" type="line"/>
			<point x="709" y="341" type="line"/>
			<point x="746" y="245" type="line" smooth="yes"/>
			<point x="780" y="158"/>
			<point x="1060" y="78"/>
			<point x="1256" y="78" type="qcurve" smooth="yes"/>
			<point x="1458" y="78"/>
			<point x="1681" y="180"/>
			<point x="1681" y="269" type="qcurve" smooth="yes"/>
			<point x="1681" y="365"/>
			<point x="1434" y="449"/>
			<point x="1187" y="492" type="qcurve" smooth="yes"/>
			<point x="910" y="540"/>
			<point x="668" y="672"/>
			<point x="668" y="799" type="qcurve" smooth="yes"/>
			<point x="668" y="881"/>
			<point x="784" y="1012"/>
			<point x="949" y="1059" type="qcurve" smooth="yes"/>
			<point x="1062" y="1091"/>
			<point x="1203" y="1163"/>
			<point x="1203" y="1236" type="qcurve" smooth="yes"/>
			<point x="1203" y="1335"/>
			<point x="1008" y="1422"/>
			<point x="843" y="1422" type="qcurve" smooth="yes"/>
			<point x="653" y="1422"/>
			<point x="469" y="1261"/>
			<point x="469" y="1132" type="qcurve" smooth="yes"/>
			<point x="469" y="592" type="line"/>
			<point x="473" y="77" type="line"/>
			<point x="410" y="-10" type="line"/>
			<point x="113" y="0" type="line"/>
			<point x="113" y="81" type="line"/>
			<point x="348" y="108" type="line"/>
			<point x="348" y="592" type="line"/>
			<point x="348" y="1083" type="line" smooth="yes"/>
			<point x="348" y="1290"/>
			<point x="580" y="1522"/>
			<point x="852" y="1522" type="qcurve" smooth="yes"/>
			<point x="1084" y="1522"/>
			<point x="1328" y="1371"/>
		</contour>
	</outline>
</glyph>
<glyph name="ae" format="2">
  <advance width="2523"/>
  <unicode hex="00E6"/>
  <outline>
    <contour>
      <point x="1260" y="829" type="qcurve"/>
      <point x="1342" y="953"/>
      <point x="1652" y="1080"/>
      <point x="1854" y="1080" type="qcurve" smooth="yes"/>
      <point x="2110" y="1080"/>
      <point x="2489" y="837"/>
      <point x="2515" y="623" type="qcurve"/>
      <point x="2515" y="528" type="line"/>
      <point x="1255" y="528" type="line"/>
      <point x="1258" y="639" type="line"/>
      <point x="2393" y="639" type="line"/>
      <point x="2368" y="787"/>
      <point x="2049" y="968"/>
      <point x="1841" y="967" type="qcurve" smooth="yes"/>
      <point x="1593" y="966"/>
      <point x="1279" y="746"/>
      <point x="1281" y="537" type="qcurve" smooth="yes"/>
      <point x="1283" y="313"/>
      <point x="1597" y="75"/>
      <point x="1887" y="75" type="qcurve" smooth="yes"/>
      <point x="2063" y="75"/>
      <point x="2322" y="166"/>
      <point x="2419" y="238" type="qcurve"/>
      <point x="2490" y="161" type="line"/>
      <point x="2414" y="78"/>
      <point x="2064" y="-30"/>
      <point x="1870" y="-30" type="qcurve" smooth="yes"/>
      <point x="1668" y="-30"/>
      <point x="1359" y="80"/>
      <point x="1270" y="188" type="qcurve"/>
      <point x="1201" y="122"/>
      <point x="826" y="-20"/>
      <point x="617" y="-20" type="qcurve" smooth="yes"/>
      <point x="370" y="-20"/>
      <point x="87" y="119"/>
      <point x="87" y="290" type="qcurve" smooth="yes"/>
      <point x="87" y="478"/>
      <point x="632" y="677"/>
      <point x="1207" y="669" type="qcurve"/>
      <point x="1215" y="574" type="line"/>
      <point x="675" y="584"/>
      <point x="218" y="428"/>
      <point x="218" y="300" type="qcurve" smooth="yes"/>
      <point x="218" y="184"/>
      <point x="435" y="86"/>
      <point x="639" y="86" type="qcurve" smooth="yes"/>
      <point x="804" y="86"/>
      <point x="1175" y="214"/>
      <point x="1218" y="260" type="qcurve"/>
      <point x="1198" y="297"/>
      <point x="1167" y="441"/>
      <point x="1166" y="532" type="qcurve" smooth="yes"/>
      <point x="1164" y="695" type="line" smooth="yes"/>
      <point x="1162" y="836"/>
      <point x="946" y="978"/>
      <point x="711" y="978" type="qcurve" smooth="yes"/>
      <point x="525" y="978"/>
      <point x="340" y="923"/>
      <point x="313" y="897" type="qcurve"/>
      <point x="361" y="876"/>
      <point x="414" y="803"/>
      <point x="409" y="765" type="qcurve" smooth="yes"/>
      <point x="404" y="728"/>
      <point x="355" y="682"/>
      <point x="308" y="682" type="qcurve" smooth="yes"/>
      <point x="247" y="682"/>
      <point x="184" y="773"/>
      <point x="184" y="829" type="qcurve" smooth="yes"/>
      <point x="184" y="928"/>
      <point x="460" y="1082"/>
      <point x="704" y="1082" type="qcurve" smooth="yes"/>
      <point x="984" y="1082"/>
      <point x="1214" y="950"/>
    </contour>
  </outline>
</glyph>
<glyph name="eth" format="2">
  <advance width="1674"/>
  <unicode hex="00F0"/>
  <outline>
    <contour>
      <point x="95.0" y="515.0" type="qcurve" smooth="yes"/>
      <point x="95.0" y="740.0"/>
      <point x="482.0" y="1050.0"/>
      <point x="823.0" y="1050.0" type="qcurve" smooth="yes"/>
      <point x="1098.0" y="1050.0"/>
      <point x="1534.0" y="787.0"/>
      <point x="1554.0" y="571.0" type="qcurve"/>
      <point x="1457.0" y="569.0" type="line"/>
      <point x="1413.0" y="793.0"/>
      <point x="1031.0" y="942.0"/>
      <point x="826.0" y="942.0" type="qcurve" smooth="yes"/>
      <point x="553.0" y="942.0"/>
      <point x="212.0" y="722.0"/>
      <point x="213.0" y="535.0" type="qcurve" smooth="yes"/>
      <point x="214.0" y="346.0"/>
      <point x="555.0" y="81.0"/>
      <point x="824.0" y="79.0" type="qcurve" smooth="yes"/>
      <point x="1085.0" y="77.0"/>
      <point x="1461.0" y="248.0"/>
      <point x="1455.0" y="518.0" type="qcurve" smooth="yes"/>
      <point x="1448.0" y="890.0"/>
      <point x="828.0" y="1429.0"/>
      <point x="397.0" y="1501.0" type="qcurve"/>
      <point x="444.0" y="1584.0" type="line"/>
      <point x="1001.0" y="1499.0"/>
      <point x="1562.0" y="915.0"/>
      <point x="1562.0" y="582.0" type="qcurve" smooth="yes"/>
      <point x="1562.0" y="259.0"/>
      <point x="1145.0" y="-30.0"/>
      <point x="819.0" y="-30.0" type="qcurve" smooth="yes"/>
      <point x="519.0" y="-30.0"/>
      <point x="95.0" y="275.0"/>
    </contour>
    <contour>
      <point x="518.0" y="1234.0" type="line"/>
      <point x="1214.0" y="1574.0" type="line"/>
      <point x="1281.0" y="1483.0" type="line"/>
      <point x="586.0" y="1143.0" type="line"/>
    </contour>
  </outline>
</glyph>
<glyph name="divide" format="2">
  <advance width="1200"/>
  <unicode hex="00F7"/>
  <outline>
    <contour>
      <point x="114.0" y="618.0" type="line"/>
      <point x="114.0" y="720.0" type="line"/>
      <point x="1087.0" y="720.0" type="line"/>
      <point x="1087.0" y="618.0" type="line"/>
    </contour>
    <contour>
      <point x="505" y="386.0" type="qcurve" smooth="yes"/>
      <point x="505" y="422"/>
      <point x="557" y="478"/>
      <point x="600.0" y="478" type="qcurve" smooth="yes"/>
      <point x="643" y="478"/>
      <point x="695" y="422"/>
      <point x="695" y="386.0" type="qcurve" smooth="yes"/>
      <point x="695" y="351"/>
      <point x="643" y="294"/>
      <point x="600.0" y="294" type="qcurve" smooth="yes"/>
      <point x="557" y="294"/>
      <point x="505" y="351"/>
    </contour>
    <contour>
      <point x="505" y="951" type="qcurve" smooth="yes"/>
      <point x="505" y="987"/>
      <point x="557" y="1044"/>
      <point x="600.0" y="1044" type="qcurve" smooth="yes"/>
      <point x="643" y="1044"/>
      <point x="695" y="987"/>
      <point x="695" y="951" type="qcurve" smooth="yes"/>
      <point x="695" y="916"/>
      <point x="643" y="860"/>
      <point x="600.0" y="860" type="qcurve" smooth="yes"/>
      <point x="557" y="860"/>
      <point x="505" y="916"/>
    </contour>
  </outline>
</glyph>
<glyph name="idotless" format="2">
  <advance width="759"/>
  <unicode hex="0131"/>
  <anchor x="379.5" y="1050" name="top"/>
  <outline>
    <contour>
      <point x="116" y="0" type="line"/>
      <point x="116" y="103" type="line"/>
      <point x="348" y="128" type="line"/>
      <point x="350" y="552" type="line"/>
      <point x="347" y="908" type="line"/>
      <point x="106" y="927" type="line"/>
      <point x="106" y="1035" type="line"/>
      <point x="414" y="1053" type="line"/>
      <point x="430" y="1051" type="line"/>
      <point x="481" y="1007" type="line"/>
      <point x="473" y="552" type="line"/>
      <point x="480" y="128" type="line"/>
      <point x="698" y="103" type="line"/>
      <point x="698" y="0" type="line"/>
    </contour>
  </outline>
</glyph>
<glyph name="kgreenlandic" format="2">
  <advance width="1515"/>
  <unicode hex="0138"/>
  <outline>
    <contour>
      <point x="117.0" y="0.0" type="line"/>
      <point x="117.0" y="101.0" type="line"/>
      <point x="338.0" y="128.0" type="line"/>
      <point x="340.0" y="552.0" type="line"/>
      <point x="338.0" y="921.0" type="line"/>
      <point x="144.0" y="945.0" type="line"/>
      <point x="144.0" y="1050.0" type="line"/>
      <point x="651.0" y="1050.0" type="line"/>
      <point x="651.0" y="945.0" type="line"/>
      <point x="461.0" y="923.0" type="line"/>
      <point x="462.0" y="552.0" type="line"/>
      <point x="470.0" y="128.0" type="line"/>
      <point x="693.0" y="101.0" type="line"/>
      <point x="693.0" y="0.0" type="line"/>
    </contour>
    <contour>
      <point x="441.0" y="376.0" type="line"/>
      <point x="433.0" y="486.0" type="line"/>
      <point x="1076.0" y="931.0" type="line"/>
      <point x="926.0" y="949.0" type="line"/>
      <point x="926.0" y="1050.0" type="line"/>
      <point x="1465.0" y="1050.0" type="line"/>
      <point x="1465.0" y="949.0" type="line"/>
      <point x="1254.0" y="930.0" type="line"/>
    </contour>
    <contour>
      <point x="699.0" y="618.0" type="line"/>
      <point x="794.0" y="699.0" type="line"/>
      <point x="1350.0" y="131.0" type="line"/>
      <point x="1563.0" y="101.0" type="line"/>
      <point x="1563.0" y="0.0" type="line"/>
      <point x="1073.0" y="0.0" type="line"/>
      <point x="1064.0" y="93.0" type="line"/>
      <point x="1207.0" y="113.0" type="line"/>
    </contour>
  </outline>
</glyph>
<glyph name="OE" format="2">
  <advance width="3147"/>
  <unicode hex="0152"/>
  <outline>
    <contour>
      <point x="100.0" y="737.0" type="qcurve" smooth="yes"/>
      <point x="100.0" y="1068.0"/>
      <point x="639.0" y="1512.0"/>
      <point x="1155.0" y="1512.0" type="qcurve" smooth="yes"/>
      <point x="1264.0" y="1512.0"/>
      <point x="1463.0" y="1500.0"/>
      <point x="1524.0" y="1500.0" type="qcurve" smooth="yes"/>
      <point x="2973.0" y="1500.0" type="line"/>
      <point x="2973.0" y="1139.0" type="line"/>
      <point x="2861.0" y="1139.0" type="line"/>
      <point x="2804.0" y="1393.0" type="line"/>
      <point x="1842.0" y="1393.0" type="line"/>
      <point x="1776.0" y="1367.0" type="line"/>
      <point x="1774.0" y="784.0" type="line"/>
      <point x="1776.0" y="141.0" type="line"/>
      <point x="1841.0" y="114.0" type="line"/>
      <point x="2887.0" y="114.0" type="line"/>
      <point x="2987.0" y="411.0" type="line"/>
      <point x="3098.0" y="411.0" type="line"/>
      <point x="3055.0" y="0.0" type="line"/>
      <point x="1514.0" y="0.0" type="line" smooth="yes"/>
      <point x="1410.0" y="0.0"/>
      <point x="1257.0" y="-16.0"/>
      <point x="1159.0" y="-16.0" type="qcurve" smooth="yes"/>
      <point x="663.0" y="-16.0"/>
      <point x="100.0" y="396.0"/>
    </contour>
    <contour>
      <point x="228.0" y="765.0" type="qcurve" smooth="yes"/>
      <point x="228.0" y="461.0"/>
      <point x="726.0" y="108.0"/>
      <point x="1166.0" y="108.0" type="qcurve" smooth="yes"/>
      <point x="1450.0" y="108.0"/>
      <point x="1591.0" y="134.0"/>
      <point x="1655.0" y="148.0" type="qcurve"/>
      <point x="1656.0" y="784.0" type="line"/>
      <point x="1655.0" y="1358.0" type="line"/>
      <point x="1552.0" y="1386.0"/>
      <point x="1343.0" y="1391.0"/>
      <point x="1150.0" y="1391.0" type="qcurve" smooth="yes"/>
      <point x="726.0" y="1389.0"/>
      <point x="228.0" y="1046.0"/>
    </contour>
    <contour>
      <point x="1723.0" y="725.0" type="line"/>
      <point x="1723.0" y="842.0" type="line"/>
      <point x="2647.0" y="838.0" type="line"/>
      <point x="2687.0" y="1021.0" type="line"/>
      <point x="2772.0" y="1021.0" type="line"/>
      <point x="2772.0" y="547.0" type="line"/>
      <point x="2687.0" y="547.0" type="line"/>
      <point x="2647.0" y="731.0" type="line"/>
    </contour>
  </outline>
</glyph>
<glyph name="oe" format="2">
	<unicode hex="0153"/>
	<advance width="2819"/>
	<outline>
		<contour>
			<point x="94" y="525" type="qcurve" smooth="yes"/>
			<point x="94" y="754"/>
			<point x="514" y="1081"/>
			<point x="842" y="1081" type="qcurve" smooth="yes"/>
			<point x="1111" y="1081"/>
			<point x="1442" y="888"/>
			<point x="1506" y="749" type="qcurve"/>
			<point x="1518" y="749" type="line"/>
			<point x="1582" y="884"/>
			<point x="1906" y="1080"/>
			<point x="2147" y="1080" type="qcurve" smooth="yes"/>
			<point x="2403" y="1080"/>
			<point x="2785" y="837"/>
			<point x="2811" y="623" type="qcurve"/>
			<point x="2811" y="528" type="line"/>
			<point x="1572" y="528" type="line"/>
			<point x="1575" y="639" type="line"/>
			<point x="2689" y="639" type="line"/>
			<point x="2664" y="787"/>
			<point x="2343" y="967"/>
			<point x="2135" y="967" type="qcurve" smooth="yes"/>
			<point x="1897" y="967"/>
			<point x="1581" y="746"/>
			<point x="1581" y="549" type="qcurve" smooth="yes"/>
			<point x="1581" y="316"/>
			<point x="1893" y="74"/>
			<point x="2184" y="74" type="qcurve" smooth="yes"/>
			<point x="2356" y="74"/>
			<point x="2618" y="166"/>
			<point x="2715" y="238" type="qcurve"/>
			<point x="2783" y="159" type="line"/>
			<point x="2710" y="77"/>
			<point x="2357" y="-30"/>
			<point x="2167" y="-30" type="qcurve" smooth="yes"/>
			<point x="1906" y="-30"/>
			<point x="1588" y="148"/>
			<point x="1524" y="277" type="qcurve"/>
			<point x="1517" y="277" type="line"/>
			<point x="1443" y="154"/>
			<point x="1088" y="-31"/>
			<point x="813" y="-31" type="qcurve" smooth="yes"/>
			<point x="502" y="-31"/>
			<point x="94" y="281"/>
		</contour>
		<contour>
			<point x="223" y="536" type="qcurve" smooth="yes"/>
			<point x="223" y="338"/>
			<point x="554" y="72"/>
			<point x="824" y="72" type="qcurve" smooth="yes"/>
			<point x="1121" y="72"/>
			<point x="1462" y="330"/>
			<point x="1462" y="530" type="qcurve" smooth="yes"/>
			<point x="1462" y="714"/>
			<point x="1119" y="966"/>
			<point x="838" y="966" type="qcurve" smooth="yes"/>
			<point x="557" y="966"/>
			<point x="223" y="735"/>
		</contour>
	</outline>
</glyph>
<glyph name="Schwa" format="2">
  <advance width="2182"/>
  <unicode hex="018F"/>
  <outline>
    <contour>
      <point x="112.0" y="1306.0" type="line"/>
      <point x="244.0" y="1392.0"/>
      <point x="716" y="1521"/>
      <point x="1046" y="1521.0" type="qcurve" smooth="yes"/>
      <point x="1532" y="1521.0"/>
      <point x="2081" y="1097"/>
      <point x="2081.0" y="752.0" type="qcurve" smooth="yes"/>
      <point x="2081.0" y="378.0"/>
      <point x="1494.0" y="-30.0"/>
      <point x="1039.0" y="-30.0" type="qcurve" smooth="yes"/>
      <point x="602" y="-30"/>
      <point x="104" y="319.0"/>
      <point x="104.0" y="641.0" type="qcurve" smooth="yes"/>
      <point x="104.0" y="717.0" type="line"/>
      <point x="2026.0" y="717.0" type="line"/>
      <point x="2026.0" y="613.0" type="line"/>
      <point x="1072.0" y="621.0" type="line"/>
      <point x="222.0" y="615.0" type="line"/>
      <point x="222.0" y="588.0" type="line" smooth="yes"/>
      <point x="222" y="377"/>
      <point x="653" y="81"/>
      <point x="1052" y="81.0" type="qcurve" smooth="yes"/>
      <point x="1478" y="81"/>
      <point x="1949.0" y="441"/>
      <point x="1949.0" y="747" type="qcurve" smooth="yes"/>
      <point x="1949" y="1031"/>
      <point x="1484.0" y="1412.0"/>
      <point x="1038" y="1412" type="qcurve" smooth="yes"/>
      <point x="692.0" y="1412.0"/>
      <point x="285" y="1277"/>
      <point x="171.0" y="1201.0" type="qcurve"/>
    </contour>
  </outline>
</glyph>
<glyph name="florin" format="2">
	<unicode hex="0192"/>
	<advance width="934"/>
	<outline>
		<contour>
			<point x="521" y="-89" type="line" smooth="yes"/>
			<point x="522" y="-184"/>
			<point x="347" y="-311"/>
			<point x="247" y="-311" type="qcurve" smooth="yes"/>
			<point x="184" y="-311"/>
			<point x="113" y="-285"/>
			<point x="91" y="-264" type="qcurve" smooth="yes"/>
			<point x="71" y="-251" type="line"/>
			<point x="82" y="-175" type="line"/>
			<point x="87" y="-178" type="line" smooth="yes"/>
			<point x="129" y="-194"/>
			<point x="201" y="-209"/>
			<point x="251" y="-209" type="qcurve" smooth="yes"/>
			<point x="326" y="-209"/>
			<point x="402" y="-134"/>
			<point x="402" y="-45" type="qcurve" smooth="yes"/>
			<point x="394" y="878" type="line"/>
			<point x="151" y="905" type="line"/>
			<point x="151" y="988" type="line"/>
			<point x="395" y="991" type="line"/>
			<point x="394" y="1282" type="line" smooth="yes"/>
			<point x="393" y="1385"/>
			<point x="542" y="1514"/>
			<point x="658" y="1514" type="qcurve" smooth="yes"/>
			<point x="718" y="1514"/>
			<point x="792" y="1496"/>
			<point x="813" y="1466" type="qcurve" smooth="yes"/>
			<point x="824" y="1455" type="line"/>
			<point x="813" y="1369" type="line"/>
			<point x="806" y="1373" type="line" smooth="yes"/>
			<point x="774" y="1386"/>
			<point x="699" y="1402"/>
			<point x="638" y="1402" type="qcurve" smooth="yes"/>
			<point x="570" y="1402"/>
			<point x="513" y="1308"/>
			<point x="515" y="1228" type="qcurve" smooth="yes"/>
			<point x="513" y="985" type="line"/>
			<point x="816" y="985" type="line"/>
			<point x="816" y="885" type="line"/>
			<point x="513" y="885" type="line"/>
		</contour>
	</outline>
</glyph>
<glyph name="schwa" format="2">
	<unicode hex="0259"/>
	<advance width="1459"/>
	<outline>
		<contour>
			<point x="1365" y="527" type="qcurve" smooth="yes"/>
			<point x="1365" y="259"/>
			<point x="975" y="-30"/>
			<point x="670" y="-30" type="qcurve" smooth="yes"/>
			<point x="414" y="-30"/>
			<point x="35" y="213"/>
			<point x="9" y="427" type="qcurve"/>
			<point x="9" y="522" type="line"/>
			<point x="1269" y="522" type="line"/>
			<point x="1266" y="411" type="line"/>
			<point x="131" y="411" type="line"/>
			<point x="156" y="263"/>
			<point x="475" y="82"/>
			<point x="683" y="83" type="qcurve" smooth="yes"/>
			<point x="931" y="84"/>
			<point x="1240" y="304"/>
			<point x="1238" y="513" type="qcurve" smooth="yes"/>
			<point x="1236" y="737"/>
			<point x="927" y="975"/>
			<point x="637" y="975" type="qcurve" smooth="yes"/>
			<point x="461" y="975"/>
			<point x="202" y="884"/>
			<point x="105" y="812" type="qcurve"/>
			<point x="34" y="889" type="line"/>
			<point x="110" y="972"/>
			<point x="460" y="1080"/>
			<point x="654" y="1080" type="qcurve" smooth="yes"/>
			<point x="978" y="1080"/>
			<point x="1365" y="798"/>
		</contour>
	</outline>
</glyph>
<glyph name="doubleprimemod" format="2">
	<unicode hex="02BA"/>
	<advance width="1265"/>
	<outline>
		<contour>
			<point x="332" y="1502" type="line"/>
			<point x="526" y="1502" type="line"/>
			<point x="385" y="935" type="line"/>
			<point x="263" y="950" type="line"/>
		</contour>
		<contour>
			<point x="809" y="1502" type="line"/>
			<point x="1003" y="1502" type="line"/>
			<point x="862" y="935" type="line"/>
			<point x="740" y="950" type="line"/>
		</contour>
	</outline>
</glyph>
<glyph name="apostrophemod" format="2">
	<unicode hex="02BC"/>
	<advance width="560"/>
	<outline>
		<contour>
			<point x="161" y="1046" type="line"/>
			<point x="222" y="1117"/>
			<point x="288" y="1231"/>
			<point x="300" y="1294" type="qcurve"/>
			<point x="246" y="1297"/>
			<point x="165" y="1354"/>
			<point x="165" y="1402" type="qcurve" smooth="yes"/>
			<point x="165" y="1456"/>
			<point x="241" y="1518"/>
			<point x="294" y="1518" type="qcurve" smooth="yes"/>
			<point x="351" y="1518"/>
			<point x="422" y="1440"/>
			<point x="422" y="1382" type="qcurve" smooth="yes"/>
			<point x="422" y="1302"/>
			<point x="313" y="1097"/>
			<point x="207" y="995" type="qcurve"/>
		</contour>
	</outline>
</glyph>
<glyph name="circumflex" format="2">
  <advance width="1024"/>
  <unicode hex="02C6"/>
  <outline>
    <contour>
      <point x="510.0" y="1630.0" type="qcurve" smooth="yes"/>
      <point x="550" y="1630"/>
      <point x="600.0" y="1588.0"/>
      <point x="673.0" y="1524.0" type="qcurve" smooth="yes"/>
      <point x="891.0" y="1331.0" type="line"/>
      <point x="834.0" y="1272.0" type="line"/>
      <point x="503.0" y="1493.0" type="line"/>
      <point x="188.0" y="1271.0" type="line"/>
      <point x="132.0" y="1331.0" type="line"/>
      <point x="350.0" y="1522.0" type="line" smooth="yes"/>
      <point x="415.0" y="1579.0"/>
      <point x="470.0" y="1630.0"/>
    </contour>
  </outline>
</glyph>
<glyph name="caron" format="2">
  <advance width="1024"/>
  <unicode hex="02C7"/>
  <outline>
    <contour>
      <point x="512.0" y="1112.0" type="qcurve" smooth="yes"/>
      <point x="472.0" y="1111.0"/>
      <point x="414.0" y="1162.0"/>
      <point x="349.0" y="1219.0" type="qcurve" smooth="yes"/>
      <point x="131.0" y="1411.0" type="line"/>
      <point x="192.0" y="1470.0" type="line"/>
      <point x="520.0" y="1252.0" type="line"/>
      <point x="840.0" y="1470.0" type="line"/>
      <point x="893.0" y="1411.0" type="line"/>
      <point x="675.0" y="1218.0" type="line" smooth="yes"/>
      <point x="602.0" y="1154.0"/>
      <point x="552.0" y="1113.0"/>
    </contour>
  </outline>
</glyph>
<glyph name="breve" format="2">
  <advance width="1024"/>
  <unicode hex="02D8"/>
  <outline>
    <contour>
      <point x="796.0" y="1406.0" type="qcurve"/>
      <point x="868.0" y="1367.0" type="line"/>
      <point x="823" y="1267.0"/>
      <point x="653.0" y="1138.0"/>
      <point x="519.0" y="1138.0" type="qcurve" smooth="yes"/>
      <point x="385" y="1138"/>
      <point x="209.0" y="1249.0"/>
      <point x="156.0" y="1365.0" type="qcurve"/>
      <point x="228.0" y="1407.0" type="line"/>
      <point x="264.0" y="1344.0"/>
      <point x="412" y="1259.0"/>
      <point x="512.0" y="1259.0" type="qcurve" smooth="yes"/>
      <point x="613" y="1259"/>
      <point x="754.0" y="1344.0"/>
    </contour>
  </outline>
</glyph>
<glyph name="dotaccent" format="2">
  <advance width="1024"/>
  <unicode hex="02D9"/>
  <outline>
    <contour>
      <point x="398" y="1209" type="qcurve" smooth="yes"/>
      <point x="398" y="1259"/>
      <point x="455" y="1324"/>
      <point x="511" y="1324" type="qcurve" smooth="yes"/>
      <point x="565" y="1324"/>
      <point x="626" y="1259"/>
      <point x="626" y="1209" type="qcurve" smooth="yes"/>
      <point x="626" y="1159"/>
      <point x="569" y="1098"/>
      <point x="511" y="1098" type="qcurve" smooth="yes"/>
      <point x="457.0" y="1098"/>
      <point x="398" y="1159"/>
    </contour>
  </outline>
</glyph>
<glyph name="ring" format="2">
  <advance width="1024"/>
  <unicode hex="02DA"/>
  <outline>
    <contour>
      <point x="261" y="1504" type="qcurve" smooth="yes"/>
      <point x="261" y="1607"/>
      <point x="403" y="1738"/>
      <point x="512" y="1738" type="qcurve" smooth="yes"/>
      <point x="621" y="1738"/>
      <point x="763" y="1607"/>
      <point x="763" y="1504" type="qcurve" smooth="yes"/>
      <point x="763" y="1401"/>
      <point x="621" y="1270"/>
      <point x="512" y="1270" type="qcurve" smooth="yes"/>
      <point x="403" y="1270"/>
      <point x="261" y="1401"/>
    </contour>
    <contour>
      <point x="366" y="1504" type="qcurve" smooth="yes"/>
      <point x="366" y="1443"/>
      <point x="447" y="1367"/>
      <point x="512" y="1367" type="qcurve" smooth="yes"/>
      <point x="579" y="1367"/>
      <point x="657" y="1438"/>
      <point x="657" y="1504" type="qcurve" smooth="yes"/>
      <point x="657" y="1565"/>
      <point x="577" y="1641"/>
      <point x="512" y="1641" type="qcurve" smooth="yes"/>
      <point x="445" y="1641"/>
      <point x="366" y="1570"/>
    </contour>
  </outline>
</glyph>
<glyph name="ogonek" format="2">
	<unicode hex="02DB"/>
	<advance width="1024"/>
	<outline>
		<contour>
			<point x="444" y="-243" type="qcurve" smooth="yes"/>
			<point x="444" y="-294"/>
			<point x="522" y="-365"/>
			<point x="597" y="-365" type="qcurve" smooth="yes"/>
			<point x="672" y="-365"/>
			<point x="802" y="-310"/>
			<point x="848" y="-268" type="qcurve"/>
			<point x="897" y="-323" type="line"/>
			<point x="839" y="-379"/>
			<point x="667" y="-459"/>
			<point x="576" y="-459" type="qcurve" smooth="yes"/>
			<point x="468" y="-459"/>
			<point x="331" y="-365"/>
			<point x="331" y="-283" type="qcurve" smooth="yes"/>
			<point x="331" y="-196"/>
			<point x="481" y="-51"/>
			<point x="574" y="6" type="qcurve" smooth="yes"/>
			<point x="605" y="25" type="line"/>
			<point x="652" y="-4" type="line"/>
			<point x="627" y="-20" type="line" smooth="yes"/>
			<point x="548" y="-71"/>
			<point x="444" y="-184"/>
		</contour>
	</outline>
</glyph>
<glyph name="tilde" format="2">
	<unicode hex="02DC"/>
	<advance width="1024"/>
	<outline>
		<contour>
			<point x="159" y="1163" type="line"/>
			<point x="196" y="1212"/>
			<point x="305" y="1289"/>
			<point x="358" y="1289" type="qcurve" smooth="yes"/>
			<point x="402" y="1289"/>
			<point x="472" y="1268"/>
			<point x="509" y="1248" type="qcurve" smooth="yes"/>
			<point x="547" y="1228"/>
			<point x="614" y="1192"/>
			<point x="655" y="1192" type="qcurve" smooth="yes"/>
			<point x="692" y="1192"/>
			<point x="758" y="1222"/>
			<point x="792" y="1262" type="qcurve"/>
			<point x="858" y="1211" type="line"/>
			<point x="821" y="1150"/>
			<point x="717" y="1073"/>
			<point x="659" y="1073" type="qcurve" smooth="yes"/>
			<point x="611" y="1073"/>
			<point x="528" y="1097"/>
			<point x="492" y="1115" type="qcurve" smooth="yes"/>
			<point x="458" y="1132"/>
			<point x="382" y="1167"/>
			<point x="346" y="1167" type="qcurve" smooth="yes"/>
			<point x="309" y="1167"/>
			<point x="235" y="1127"/>
			<point x="217" y="1107" type="qcurve"/>
		</contour>
	</outline>
</glyph>
<glyph name="hungarumlaut" format="2">
  <advance width="1024"/>
  <unicode hex="02DD"/>
  <outline>
    <contour>
      <point x="685" y="1579" type="qcurve" smooth="yes"/>
      <point x="685" y="1554"/>
      <point x="638" y="1516"/>
      <point x="620" y="1502" type="qcurve" smooth="yes"/>
      <point x="334" y="1270" type="line"/>
      <point x="279" y="1320" type="line"/>
      <point x="530" y="1590" type="line" smooth="yes"/>
      <point x="551" y="1613"/>
      <point x="591" y="1645"/>
      <point x="619" y="1645" type="qcurve" smooth="yes"/>
      <point x="649" y="1645"/>
      <point x="685" y="1603"/>
    </contour>
    <contour>
      <point x="1056" y="1579" type="qcurve" smooth="yes"/>
      <point x="1056" y="1554"/>
      <point x="1009" y="1516"/>
      <point x="991" y="1502" type="qcurve" smooth="yes"/>
      <point x="705" y="1270" type="line"/>
      <point x="650" y="1320" type="line"/>
      <point x="901" y="1590" type="line" smooth="yes"/>
      <point x="922" y="1613"/>
      <point x="962" y="1645"/>
      <point x="990" y="1645" type="qcurve" smooth="yes"/>
      <point x="1020" y="1645"/>
      <point x="1056" y="1603"/>
    </contour>
  </outline>
</glyph>
<glyph name="hookabovecomb" format="2">
	<unicode hex="0309"/>
	<advance width="1024"/>
	<outline>
		<contour>
			<point x="399" y="1092" type="line"/>
			<point x="399" y="1204" type="line"/>
			<point x="440" y="1247" type="line"/>
			<point x="464" y="1244"/>
			<point x="546" y="1237"/>
			<point x="596" y="1237" type="qcurve" smooth="yes"/>
			<point x="687" y="1237"/>
			<point x="763" y="1283"/>
			<point x="763" y="1333" type="qcurve" smooth="yes"/>
			<point x="763" y="1381"/>
			<point x="656" y="1429"/>
			<point x="562" y="1429" type="qcurve" smooth="yes"/>
			<point x="441" y="1429"/>
			<point x="266" y="1385"/>
			<point x="233" y="1369" type="qcurve"/>
			<point x="203" y="1461" type="line"/>
			<point x="242" y="1482"/>
			<point x="424" y="1539"/>
			<point x="566" y="1539" type="qcurve" smooth="yes"/>
			<point x="710" y="1539"/>
			<point x="887" y="1428"/>
			<point x="887" y="1337" type="qcurve" smooth="yes"/>
			<point x="887" y="1254"/>
			<point x="763" y="1139"/>
			<point x="649" y="1139" type="qcurve" smooth="yes"/>
			<point x="598" y="1139"/>
			<point x="516" y="1150"/>
			<point x="485" y="1155" type="qcurve"/>
			<point x="485" y="1092" type="line"/>
		</contour>
	</outline>
</glyph>
<glyph name="breveinvertedcomb" format="2">
  <advance width="1024"/>
  <unicode hex="030F"/>
  <outline>
    <contour>
      <point x="228.0" y="1119.0" type="qcurve"/>
      <point x="156.0" y="1158.0" type="line"/>
      <point x="201.0" y="1258.0"/>
      <point x="371.0" y="1387.0"/>
      <point x="505.0" y="1387.0" type="qcurve" smooth="yes"/>
      <point x="639.0" y="1387.0"/>
      <point x="815.0" y="1276.0"/>
      <point x="868.0" y="1160.0" type="qcurve"/>
      <point x="796.0" y="1118.0" type="line"/>
      <point x="760.0" y="1181.0"/>
      <point x="612.0" y="1266.0"/>
      <point x="512.0" y="1266.0" type="qcurve" smooth="yes"/>
      <point x="411.0" y="1266.0"/>
      <point x="270.0" y="1181.0"/>
    </contour>
  </outline>
</glyph>
<glyph name="dblgravecomb" format="2">
  <advance width="1024"/>
  <unicode hex="0311"/>
  <outline>
    <contour>
      <point x="119" y="1417" type="qcurve" smooth="yes"/>
      <point x="119" y="1441"/>
      <point x="152" y="1483"/>
      <point x="182" y="1483" type="qcurve" smooth="yes"/>
      <point x="210" y="1483"/>
      <point x="254" y="1456"/>
      <point x="276" y="1434" type="qcurve" smooth="yes"/>
      <point x="584" y="1135" type="line"/>
      <point x="539" y="1078" type="line"/>
      <point x="180" y="1332" type="line" smooth="yes"/>
      <point x="162" y="1345"/>
      <point x="119" y="1392"/>
    </contour>
    <contour>
      <point x="439" y="1395" type="qcurve" smooth="yes"/>
      <point x="439" y="1419"/>
      <point x="472" y="1461"/>
      <point x="502" y="1461" type="qcurve" smooth="yes"/>
      <point x="530" y="1461"/>
      <point x="574" y="1434"/>
      <point x="596" y="1412" type="qcurve" smooth="yes"/>
      <point x="874" y="1135" type="line"/>
      <point x="829" y="1078" type="line"/>
      <point x="500" y="1310" type="line" smooth="yes"/>
      <point x="482" y="1323"/>
      <point x="439" y="1370"/>
    </contour>
  </outline>
</glyph>
<glyph name="horncomb" format="2">
  <advance width="1024"/>
  <unicode hex="031B"/>
  <anchor x="-0.5" y="1050" name="_topright"/>
  <anchor x="686" y="1050" name="topright"/>
  <outline>
    <contour>
      <point x="-1" y="1050" type="line"/>
      <point x="60" y="1035"/>
      <point x="293" y="1002"/>
      <point x="373" y="1002" type="qcurve" smooth="yes"/>
      <point x="454" y="1002"/>
      <point x="561" y="1078"/>
      <point x="561" y="1152" type="qcurve" smooth="yes"/>
      <point x="561" y="1196"/>
      <point x="530" y="1296"/>
      <point x="506" y="1333" type="qcurve"/>
      <point x="588" y="1333" type="line"/>
      <point x="614" y="1308"/>
      <point x="686" y="1194"/>
      <point x="686" y="1127" type="qcurve" smooth="yes"/>
      <point x="686" y="1032"/>
      <point x="521" y="925"/>
      <point x="398" y="925" type="qcurve" smooth="yes"/>
      <point x="307" y="925"/>
      <point x="65" y="969"/>
      <point x="-1" y="992" type="qcurve"/>
    </contour>
  </outline>
</glyph>
<glyph name="dieresisbelowcomb" format="2">
  <advance width="1024"/>
  <unicode hex="0324"/>
  <outline>
    <contour>
      <point x="218.0" y="-173.0" type="qcurve" smooth="yes"/>
      <point x="218.0" y="-129.0"/>
      <point x="266.0" y="-80.0"/>
      <point x="312.0" y="-80.0" type="qcurve" smooth="yes"/>
      <point x="354.0" y="-80.0"/>
      <point x="403.0" y="-132.0"/>
      <point x="403.0" y="-173.0" type="qcurve" smooth="yes"/>
      <point x="403.0" y="-218.0"/>
      <point x="358.0" y="-266.0"/>
      <point x="312.0" y="-266.0" type="qcurve" smooth="yes"/>
      <point x="268.0" y="-266.0"/>
      <point x="218.0" y="-217.0"/>
    </contour>
    <contour>
      <point x="621.0" y="-173.0" type="qcurve" smooth="yes"/>
      <point x="621.0" y="-129.0"/>
      <point x="667.0" y="-80.0"/>
      <point x="712.0" y="-80.0" type="qcurve" smooth="yes"/>
      <point x="756.0" y="-80.0"/>
      <point x="806.0" y="-132.0"/>
      <point x="806.0" y="-173.0" type="qcurve" smooth="yes"/>
      <point x="806.0" y="-218.0"/>
      <point x="759.0" y="-266.0"/>
      <point x="712.0" y="-266.0" type="qcurve" smooth="yes"/>
      <point x="670.0" y="-266.0"/>
      <point x="621.0" y="-217.0"/>
    </contour>
  </outline>
</glyph>
<glyph name="commaaccentcomb" format="2">
  <advance width="1024"/>
  <unicode hex="0326"/>
  <outline>
    <contour>
      <point x="394.0" y="-506.0" type="line"/>
      <point x="433.0" y="-456.0"/>
      <point x="501" y="-382"/>
      <point x="526" y="-327" type="qcurve"/>
      <point x="444" y="-320"/>
      <point x="389" y="-274"/>
      <point x="389" y="-224" type="qcurve" smooth="yes"/>
      <point x="389" y="-184"/>
      <point x="449" y="-125"/>
      <point x="501" y="-125" type="qcurve" smooth="yes"/>
      <point x="554" y="-125"/>
      <point x="631" y="-192"/>
      <point x="631" y="-265" type="qcurve" smooth="yes"/>
      <point x="631" y="-357"/>
      <point x="502.0" y="-504.0"/>
      <point x="440.0" y="-556.0" type="qcurve"/>
    </contour>
  </outline>
</glyph>
<glyph name="brevebelowcomb" format="2">
  <advance width="1024"/>
  <unicode hex="032E"/>
  <anchor x="512.0" y="0" name="_bottom"/>
  <anchor x="512.0" y="-369" name="bottom"/>
  <outline>
    <contour>
      <point x="796" y="-101" type="qcurve"/>
      <point x="868" y="-140" type="line"/>
      <point x="823" y="-240"/>
      <point x="653" y="-369"/>
      <point x="519" y="-369" type="qcurve" smooth="yes"/>
      <point x="385" y="-369"/>
      <point x="209" y="-258"/>
      <point x="156" y="-142" type="qcurve"/>
      <point x="228" y="-100" type="line"/>
      <point x="264" y="-163"/>
      <point x="412" y="-248"/>
      <point x="512" y="-248" type="qcurve" smooth="yes"/>
      <point x="613" y="-248"/>
      <point x="754" y="-163"/>
    </contour>
  </outline>
</glyph>
<glyph name="macronbelowcomb" format="2">
	<unicode hex="0331"/>
	<advance width="1024"/>
	<outline>
		<contour>
			<point x="156" y="-335" type="line"/>
			<point x="156" y="-212" type="line"/>
			<point x="868" y="-212" type="line"/>
			<point x="868" y="-335" type="line"/>
		</contour>
	</outline>
</glyph>
<glyph name="tonos" format="2">
  <advance width="1037"/>
  <unicode hex="0384"/>
  <guideline x="471" y="1077" angle="0" identifier="imXhKtUTtf"/>
  <anchor x="417" y="1077" name="_GRKtop"/>
  <outline>
    <contour>
      <point x="417" y="1270" type="line"/>
      <point x="369" y="1313" type="line"/>
      <point x="656" y="1748" type="line"/>
      <point x="844" y="1738" type="line"/>
      <point x="852" y="1726" type="line"/>
    </contour>
  </outline>
</glyph>
<glyph name="dieresistonos" format="2">
  <advance width="1224"/>
  <unicode hex="0385"/>
  <anchor x="554" y="1050" name="_GRKtop"/>
  <outline>
    <contour>
      <point x="292" y="1270" type="qcurve" smooth="yes"/>
      <point x="244" y="1270"/>
      <point x="189" y="1324"/>
      <point x="189" y="1372" type="qcurve" smooth="yes"/>
      <point x="189" y="1420"/>
      <point x="242" y="1474"/>
      <point x="292" y="1474" type="qcurve" smooth="yes"/>
      <point x="338" y="1474"/>
      <point x="392" y="1417"/>
      <point x="392" y="1372" type="qcurve" smooth="yes"/>
      <point x="392" y="1323"/>
      <point x="343" y="1270"/>
    </contour>
    <contour>
      <point x="551" y="1269" type="line"/>
      <point x="497" y="1293" type="line"/>
      <point x="645" y="1722" type="line"/>
      <point x="832" y="1744" type="line"/>
      <point x="840" y="1733" type="line"/>
    </contour>
    <contour>
      <point x="932" y="1270" type="qcurve" smooth="yes"/>
      <point x="886" y="1270"/>
      <point x="832" y="1324"/>
      <point x="832" y="1372" type="qcurve" smooth="yes"/>
      <point x="832" y="1420"/>
      <point x="882" y="1474"/>
      <point x="932" y="1474" type="qcurve" smooth="yes"/>
      <point x="980" y="1474"/>
      <point x="1035" y="1417"/>
      <point x="1035" y="1372" type="qcurve" smooth="yes"/>
      <point x="1035" y="1323"/>
      <point x="984" y="1270"/>
    </contour>
  </outline>
</glyph>
